<?xml version="1.0" encoding="utf-8" standalone="no"?>
<!DOCTYPE svg PUBLIC "-//W3C//DTD SVG 1.1//EN"
  "http://www.w3.org/Graphics/SVG/1.1/DTD/svg11.dtd">
<!-- Created with matplotlib (https://matplotlib.org/) -->
<svg height="576pt" version="1.1" viewBox="0 0 2160 576" width="2160pt" xmlns="http://www.w3.org/2000/svg" xmlns:xlink="http://www.w3.org/1999/xlink">
 <defs>
  <style type="text/css">
*{stroke-linecap:butt;stroke-linejoin:round;}
  </style>
 </defs>
 <g id="figure_1">
  <g id="patch_1">
   <path d="M 0 576 
L 2160 576 
L 2160 0 
L 0 0 
z
" style="fill:#ffffff;"/>
  </g>
  <g id="axes_1">
   <g id="patch_2">
    <path d="M 86.4 518.4 
L 389.496774 518.4 
L 389.496774 57.6 
L 86.4 57.6 
z
" style="fill:#ffffff;"/>
   </g>
   <g id="patch_3">
    <path clip-path="url(#p9f1f3464ae)" d="M 122.771613 518.4 
L 171.267097 518.4 
L 171.267097 258.020897 
L 122.771613 258.020897 
z
" style="fill:#b3de69;"/>
   </g>
   <g id="patch_4">
    <path clip-path="url(#p9f1f3464ae)" d="M 183.390968 518.4 
L 231.886452 518.4 
L 231.886452 255.167974 
L 183.390968 255.167974 
z
" style="fill:#b3de69;"/>
   </g>
   <g id="patch_5">
    <path clip-path="url(#p9f1f3464ae)" d="M 244.010323 518.4 
L 292.505806 518.4 
L 292.505806 255.563599 
L 244.010323 255.563599 
z
" style="fill:#b3de69;"/>
   </g>
   <g id="patch_6">
    <path clip-path="url(#p9f1f3464ae)" d="M 304.629677 518.4 
L 353.125161 518.4 
L 353.125161 256.796052 
L 304.629677 256.796052 
z
" style="fill:#b3de69;"/>
   </g>
   <g id="patch_7">
    <path clip-path="url(#p9f1f3464ae)" d="M 122.771613 258.020897 
L 171.267097 258.020897 
L 171.267097 219.20074 
L 122.771613 219.20074 
z
" style="fill:#b3e2cd;"/>
   </g>
   <g id="patch_8">
    <path clip-path="url(#p9f1f3464ae)" d="M 183.390968 255.167974 
L 231.886452 255.167974 
L 231.886452 221.030071 
L 183.390968 221.030071 
z
" style="fill:#b3e2cd;"/>
   </g>
   <g id="patch_9">
    <path clip-path="url(#p9f1f3464ae)" d="M 244.010323 255.563599 
L 292.505806 255.563599 
L 292.505806 222.908167 
L 244.010323 222.908167 
z
" style="fill:#b3e2cd;"/>
   </g>
   <g id="patch_10">
    <path clip-path="url(#p9f1f3464ae)" d="M 304.629677 256.796052 
L 353.125161 256.796052 
L 353.125161 225.310287 
L 304.629677 225.310287 
z
" style="fill:#b3e2cd;"/>
   </g>
   <g id="patch_11">
    <path clip-path="url(#p9f1f3464ae)" d="M 122.771613 219.20074 
L 171.267097 219.20074 
L 171.267097 198.843828 
L 122.771613 198.843828 
z
" style="fill:#4daf4a;"/>
   </g>
   <g id="patch_12">
    <path clip-path="url(#p9f1f3464ae)" d="M 183.390968 221.030071 
L 231.886452 221.030071 
L 231.886452 202.110269 
L 183.390968 202.110269 
z
" style="fill:#4daf4a;"/>
   </g>
   <g id="patch_13">
    <path clip-path="url(#p9f1f3464ae)" d="M 244.010323 222.908167 
L 292.505806 222.908167 
L 292.505806 204.191029 
L 244.010323 204.191029 
z
" style="fill:#4daf4a;"/>
   </g>
   <g id="patch_14">
    <path clip-path="url(#p9f1f3464ae)" d="M 304.629677 225.310287 
L 353.125161 225.310287 
L 353.125161 206.652056 
L 304.629677 206.652056 
z
" style="fill:#4daf4a;"/>
   </g>
   <g id="patch_15">
    <path clip-path="url(#p9f1f3464ae)" d="M 122.771613 198.843828 
L 171.267097 198.843828 
L 171.267097 169.492002 
L 122.771613 169.492002 
z
" style="fill:#cbd5e8;"/>
   </g>
   <g id="patch_16">
    <path clip-path="url(#p9f1f3464ae)" d="M 183.390968 202.110269 
L 231.886452 202.110269 
L 231.886452 173.319266 
L 183.390968 173.319266 
z
" style="fill:#cbd5e8;"/>
   </g>
   <g id="patch_17">
    <path clip-path="url(#p9f1f3464ae)" d="M 244.010323 204.191029 
L 292.505806 204.191029 
L 292.505806 175.916204 
L 244.010323 175.916204 
z
" style="fill:#cbd5e8;"/>
   </g>
   <g id="patch_18">
    <path clip-path="url(#p9f1f3464ae)" d="M 304.629677 206.652056 
L 353.125161 206.652056 
L 353.125161 178.66471 
L 304.629677 178.66471 
z
" style="fill:#cbd5e8;"/>
   </g>
   <g id="patch_19">
    <path clip-path="url(#p9f1f3464ae)" d="M 122.771613 169.492002 
L 171.267097 169.492002 
L 171.267097 140.613592 
L 122.771613 140.613592 
z
"/>
   </g>
   <g id="patch_20">
    <path clip-path="url(#p9f1f3464ae)" d="M 183.390968 173.319266 
L 231.886452 173.319266 
L 231.886452 144.528263 
L 183.390968 144.528263 
z
"/>
   </g>
   <g id="patch_21">
    <path clip-path="url(#p9f1f3464ae)" d="M 244.010323 175.916204 
L 292.505806 175.916204 
L 292.505806 147.243142 
L 244.010323 147.243142 
z
"/>
   </g>
   <g id="patch_22">
    <path clip-path="url(#p9f1f3464ae)" d="M 304.629677 178.66471 
L 353.125161 178.66471 
L 353.125161 149.12251 
L 304.629677 149.12251 
z
"/>
   </g>
   <g id="patch_23">
    <path clip-path="url(#p9f1f3464ae)" d="M 122.771613 140.613592 
L 171.267097 140.613592 
L 171.267097 136.352843 
L 122.771613 136.352843 
z
" style="fill:#a65628;"/>
   </g>
   <g id="patch_24">
    <path clip-path="url(#p9f1f3464ae)" d="M 183.390968 144.528263 
L 231.886452 144.528263 
L 231.886452 139.592663 
L 183.390968 139.592663 
z
" style="fill:#a65628;"/>
   </g>
   <g id="patch_25">
    <path clip-path="url(#p9f1f3464ae)" d="M 244.010323 147.243142 
L 292.505806 147.243142 
L 292.505806 141.667825 
L 244.010323 141.667825 
z
" style="fill:#a65628;"/>
   </g>
   <g id="patch_26">
    <path clip-path="url(#p9f1f3464ae)" d="M 304.629677 149.12251 
L 353.125161 149.12251 
L 353.125161 143.291813 
L 304.629677 143.291813 
z
" style="fill:#a65628;"/>
   </g>
   <g id="patch_27">
    <path clip-path="url(#p9f1f3464ae)" d="M 122.771613 136.352843 
L 171.267097 136.352843 
L 171.267097 130.671845 
L 122.771613 130.671845 
z
" style="fill:#fff2ae;"/>
   </g>
   <g id="patch_28">
    <path clip-path="url(#p9f1f3464ae)" d="M 183.390968 139.592663 
L 231.886452 139.592663 
L 231.886452 132.189262 
L 183.390968 132.189262 
z
" style="fill:#fff2ae;"/>
   </g>
   <g id="patch_29">
    <path clip-path="url(#p9f1f3464ae)" d="M 244.010323 141.667825 
L 292.505806 141.667825 
L 292.505806 133.304848 
L 244.010323 133.304848 
z
" style="fill:#fff2ae;"/>
   </g>
   <g id="patch_30">
    <path clip-path="url(#p9f1f3464ae)" d="M 304.629677 143.291813 
L 353.125161 143.291813 
L 353.125161 134.351411 
L 304.629677 134.351411 
z
" style="fill:#fff2ae;"/>
   </g>
   <g id="patch_31">
    <path clip-path="url(#p9f1f3464ae)" d="M 122.771613 130.671845 
L 171.267097 130.671845 
L 171.267097 128.304762 
L 122.771613 128.304762 
z
" style="fill:#984ea3;"/>
   </g>
   <g id="patch_32">
    <path clip-path="url(#p9f1f3464ae)" d="M 183.390968 132.189262 
L 231.886452 132.189262 
L 231.886452 129.310162 
L 183.390968 129.310162 
z
" style="fill:#984ea3;"/>
   </g>
   <g id="patch_33">
    <path clip-path="url(#p9f1f3464ae)" d="M 244.010323 133.304848 
L 292.505806 133.304848 
L 292.505806 130.51719 
L 244.010323 130.51719 
z
" style="fill:#984ea3;"/>
   </g>
   <g id="patch_34">
    <path clip-path="url(#p9f1f3464ae)" d="M 304.629677 134.351411 
L 353.125161 134.351411 
L 353.125161 131.241706 
L 304.629677 131.241706 
z
" style="fill:#984ea3;"/>
   </g>
   <g id="patch_35">
    <path clip-path="url(#p9f1f3464ae)" d="M 122.771613 128.304762 
L 171.267097 128.304762 
L 171.267097 118.363014 
L 122.771613 118.363014 
z
" style="fill:#e41a1c;"/>
   </g>
   <g id="patch_36">
    <path clip-path="url(#p9f1f3464ae)" d="M 183.390968 129.310162 
L 231.886452 129.310162 
L 231.886452 119.027661 
L 183.390968 119.027661 
z
" style="fill:#e41a1c;"/>
   </g>
   <g id="patch_37">
    <path clip-path="url(#p9f1f3464ae)" d="M 244.010323 130.51719 
L 292.505806 130.51719 
L 292.505806 120.163028 
L 244.010323 120.163028 
z
" style="fill:#e41a1c;"/>
   </g>
   <g id="patch_38">
    <path clip-path="url(#p9f1f3464ae)" d="M 304.629677 131.241706 
L 353.125161 131.241706 
L 353.125161 120.746451 
L 304.629677 120.746451 
z
" style="fill:#e41a1c;"/>
   </g>
   <g id="patch_39">
    <path clip-path="url(#p9f1f3464ae)" d="M 122.771613 118.363014 
L 171.267097 118.363014 
L 171.267097 79.542857 
L 122.771613 79.542857 
z
" style="fill:#377eb8;"/>
   </g>
   <g id="patch_40">
    <path clip-path="url(#p9f1f3464ae)" d="M 183.390968 119.027661 
L 231.886452 119.027661 
L 231.886452 79.542857 
L 183.390968 79.542857 
z
" style="fill:#377eb8;"/>
   </g>
   <g id="patch_41">
    <path clip-path="url(#p9f1f3464ae)" d="M 244.010323 120.163028 
L 292.505806 120.163028 
L 292.505806 79.542857 
L 244.010323 79.542857 
z
" style="fill:#377eb8;"/>
   </g>
   <g id="patch_42">
    <path clip-path="url(#p9f1f3464ae)" d="M 304.629677 120.746451 
L 353.125161 120.746451 
L 353.125161 79.542857 
L 304.629677 79.542857 
z
" style="fill:#377eb8;"/>
   </g>
   <g id="matplotlib.axis_1">
    <g id="xtick_1">
     <g id="line2d_1">
      <defs>
       <path d="M 0 0 
L 0 3.5 
" id="m6a57e034b2" style="stroke:#000000;stroke-width:0.8;"/>
      </defs>
      <g>
       <use style="stroke:#000000;stroke-width:0.8;" x="147.019355" xlink:href="#m6a57e034b2" y="518.4"/>
      </g>
     </g>
     <g id="text_1">
      <!-- 1990 -->
      <defs>
       <path d="M 12.40625 8.296875 
L 28.515625 8.296875 
L 28.515625 63.921875 
L 10.984375 60.40625 
L 10.984375 69.390625 
L 28.421875 72.90625 
L 38.28125 72.90625 
L 38.28125 8.296875 
L 54.390625 8.296875 
L 54.390625 0 
L 12.40625 0 
z
" id="DejaVuSans-49"/>
       <path d="M 10.984375 1.515625 
L 10.984375 10.5 
Q 14.703125 8.734375 18.5 7.8125 
Q 22.3125 6.890625 25.984375 6.890625 
Q 35.75 6.890625 40.890625 13.453125 
Q 46.046875 20.015625 46.78125 33.40625 
Q 43.953125 29.203125 39.59375 26.953125 
Q 35.25 24.703125 29.984375 24.703125 
Q 19.046875 24.703125 12.671875 31.3125 
Q 6.296875 37.9375 6.296875 49.421875 
Q 6.296875 60.640625 12.9375 67.421875 
Q 19.578125 74.21875 30.609375 74.21875 
Q 43.265625 74.21875 49.921875 64.515625 
Q 56.59375 54.828125 56.59375 36.375 
Q 56.59375 19.140625 48.40625 8.859375 
Q 40.234375 -1.421875 26.421875 -1.421875 
Q 22.703125 -1.421875 18.890625 -0.6875 
Q 15.09375 0.046875 10.984375 1.515625 
z
M 30.609375 32.421875 
Q 37.25 32.421875 41.125 36.953125 
Q 45.015625 41.5 45.015625 49.421875 
Q 45.015625 57.28125 41.125 61.84375 
Q 37.25 66.40625 30.609375 66.40625 
Q 23.96875 66.40625 20.09375 61.84375 
Q 16.21875 57.28125 16.21875 49.421875 
Q 16.21875 41.5 20.09375 36.953125 
Q 23.96875 32.421875 30.609375 32.421875 
z
" id="DejaVuSans-57"/>
       <path d="M 31.78125 66.40625 
Q 24.171875 66.40625 20.328125 58.90625 
Q 16.5 51.421875 16.5 36.375 
Q 16.5 21.390625 20.328125 13.890625 
Q 24.171875 6.390625 31.78125 6.390625 
Q 39.453125 6.390625 43.28125 13.890625 
Q 47.125 21.390625 47.125 36.375 
Q 47.125 51.421875 43.28125 58.90625 
Q 39.453125 66.40625 31.78125 66.40625 
z
M 31.78125 74.21875 
Q 44.046875 74.21875 50.515625 64.515625 
Q 56.984375 54.828125 56.984375 36.375 
Q 56.984375 17.96875 50.515625 8.265625 
Q 44.046875 -1.421875 31.78125 -1.421875 
Q 19.53125 -1.421875 13.0625 8.265625 
Q 6.59375 17.96875 6.59375 36.375 
Q 6.59375 54.828125 13.0625 64.515625 
Q 19.53125 74.21875 31.78125 74.21875 
z
" id="DejaVuSans-48"/>
      </defs>
      <g transform="translate(134.294355 532.998438)scale(0.1 -0.1)">
       <use xlink:href="#DejaVuSans-49"/>
       <use x="63.623047" xlink:href="#DejaVuSans-57"/>
       <use x="127.246094" xlink:href="#DejaVuSans-57"/>
       <use x="190.869141" xlink:href="#DejaVuSans-48"/>
      </g>
     </g>
    </g>
    <g id="xtick_2">
     <g id="line2d_2">
      <g>
       <use style="stroke:#000000;stroke-width:0.8;" x="207.63871" xlink:href="#m6a57e034b2" y="518.4"/>
      </g>
     </g>
     <g id="text_2">
      <!-- 2000 -->
      <defs>
       <path d="M 19.1875 8.296875 
L 53.609375 8.296875 
L 53.609375 0 
L 7.328125 0 
L 7.328125 8.296875 
Q 12.9375 14.109375 22.625 23.890625 
Q 32.328125 33.6875 34.8125 36.53125 
Q 39.546875 41.84375 41.421875 45.53125 
Q 43.3125 49.21875 43.3125 52.78125 
Q 43.3125 58.59375 39.234375 62.25 
Q 35.15625 65.921875 28.609375 65.921875 
Q 23.96875 65.921875 18.8125 64.3125 
Q 13.671875 62.703125 7.8125 59.421875 
L 7.8125 69.390625 
Q 13.765625 71.78125 18.9375 73 
Q 24.125 74.21875 28.421875 74.21875 
Q 39.75 74.21875 46.484375 68.546875 
Q 53.21875 62.890625 53.21875 53.421875 
Q 53.21875 48.921875 51.53125 44.890625 
Q 49.859375 40.875 45.40625 35.40625 
Q 44.1875 33.984375 37.640625 27.21875 
Q 31.109375 20.453125 19.1875 8.296875 
z
" id="DejaVuSans-50"/>
      </defs>
      <g transform="translate(194.91371 532.998438)scale(0.1 -0.1)">
       <use xlink:href="#DejaVuSans-50"/>
       <use x="63.623047" xlink:href="#DejaVuSans-48"/>
       <use x="127.246094" xlink:href="#DejaVuSans-48"/>
       <use x="190.869141" xlink:href="#DejaVuSans-48"/>
      </g>
     </g>
    </g>
    <g id="xtick_3">
     <g id="line2d_3">
      <g>
       <use style="stroke:#000000;stroke-width:0.8;" x="268.258065" xlink:href="#m6a57e034b2" y="518.4"/>
      </g>
     </g>
     <g id="text_3">
      <!-- 2005 -->
      <defs>
       <path d="M 10.796875 72.90625 
L 49.515625 72.90625 
L 49.515625 64.59375 
L 19.828125 64.59375 
L 19.828125 46.734375 
Q 21.96875 47.46875 24.109375 47.828125 
Q 26.265625 48.1875 28.421875 48.1875 
Q 40.625 48.1875 47.75 41.5 
Q 54.890625 34.8125 54.890625 23.390625 
Q 54.890625 11.625 47.5625 5.09375 
Q 40.234375 -1.421875 26.90625 -1.421875 
Q 22.3125 -1.421875 17.546875 -0.640625 
Q 12.796875 0.140625 7.71875 1.703125 
L 7.71875 11.625 
Q 12.109375 9.234375 16.796875 8.0625 
Q 21.484375 6.890625 26.703125 6.890625 
Q 35.15625 6.890625 40.078125 11.328125 
Q 45.015625 15.765625 45.015625 23.390625 
Q 45.015625 31 40.078125 35.4375 
Q 35.15625 39.890625 26.703125 39.890625 
Q 22.75 39.890625 18.8125 39.015625 
Q 14.890625 38.140625 10.796875 36.28125 
z
" id="DejaVuSans-53"/>
      </defs>
      <g transform="translate(255.533065 532.998438)scale(0.1 -0.1)">
       <use xlink:href="#DejaVuSans-50"/>
       <use x="63.623047" xlink:href="#DejaVuSans-48"/>
       <use x="127.246094" xlink:href="#DejaVuSans-48"/>
       <use x="190.869141" xlink:href="#DejaVuSans-53"/>
      </g>
     </g>
    </g>
    <g id="xtick_4">
     <g id="line2d_4">
      <g>
       <use style="stroke:#000000;stroke-width:0.8;" x="328.877419" xlink:href="#m6a57e034b2" y="518.4"/>
      </g>
     </g>
     <g id="text_4">
      <!-- 2010 -->
      <g transform="translate(316.152419 532.998438)scale(0.1 -0.1)">
       <use xlink:href="#DejaVuSans-50"/>
       <use x="63.623047" xlink:href="#DejaVuSans-48"/>
       <use x="127.246094" xlink:href="#DejaVuSans-49"/>
       <use x="190.869141" xlink:href="#DejaVuSans-48"/>
      </g>
     </g>
    </g>
    <g id="text_5">
     <!-- Year -->
     <defs>
      <path d="M -0.203125 72.90625 
L 10.40625 72.90625 
L 30.609375 42.921875 
L 50.6875 72.90625 
L 61.28125 72.90625 
L 35.5 34.71875 
L 35.5 0 
L 25.59375 0 
L 25.59375 34.71875 
z
" id="DejaVuSans-89"/>
      <path d="M 56.203125 29.59375 
L 56.203125 25.203125 
L 14.890625 25.203125 
Q 15.484375 15.921875 20.484375 11.0625 
Q 25.484375 6.203125 34.421875 6.203125 
Q 39.59375 6.203125 44.453125 7.46875 
Q 49.3125 8.734375 54.109375 11.28125 
L 54.109375 2.78125 
Q 49.265625 0.734375 44.1875 -0.34375 
Q 39.109375 -1.421875 33.890625 -1.421875 
Q 20.796875 -1.421875 13.15625 6.1875 
Q 5.515625 13.8125 5.515625 26.8125 
Q 5.515625 40.234375 12.765625 48.109375 
Q 20.015625 56 32.328125 56 
Q 43.359375 56 49.78125 48.890625 
Q 56.203125 41.796875 56.203125 29.59375 
z
M 47.21875 32.234375 
Q 47.125 39.59375 43.09375 43.984375 
Q 39.0625 48.390625 32.421875 48.390625 
Q 24.90625 48.390625 20.390625 44.140625 
Q 15.875 39.890625 15.1875 32.171875 
z
" id="DejaVuSans-101"/>
      <path d="M 34.28125 27.484375 
Q 23.390625 27.484375 19.1875 25 
Q 14.984375 22.515625 14.984375 16.5 
Q 14.984375 11.71875 18.140625 8.90625 
Q 21.296875 6.109375 26.703125 6.109375 
Q 34.1875 6.109375 38.703125 11.40625 
Q 43.21875 16.703125 43.21875 25.484375 
L 43.21875 27.484375 
z
M 52.203125 31.203125 
L 52.203125 0 
L 43.21875 0 
L 43.21875 8.296875 
Q 40.140625 3.328125 35.546875 0.953125 
Q 30.953125 -1.421875 24.3125 -1.421875 
Q 15.921875 -1.421875 10.953125 3.296875 
Q 6 8.015625 6 15.921875 
Q 6 25.140625 12.171875 29.828125 
Q 18.359375 34.515625 30.609375 34.515625 
L 43.21875 34.515625 
L 43.21875 35.40625 
Q 43.21875 41.609375 39.140625 45 
Q 35.0625 48.390625 27.6875 48.390625 
Q 23 48.390625 18.546875 47.265625 
Q 14.109375 46.140625 10.015625 43.890625 
L 10.015625 52.203125 
Q 14.9375 54.109375 19.578125 55.046875 
Q 24.21875 56 28.609375 56 
Q 40.484375 56 46.34375 49.84375 
Q 52.203125 43.703125 52.203125 31.203125 
z
" id="DejaVuSans-97"/>
      <path d="M 41.109375 46.296875 
Q 39.59375 47.171875 37.8125 47.578125 
Q 36.03125 48 33.890625 48 
Q 26.265625 48 22.1875 43.046875 
Q 18.109375 38.09375 18.109375 28.8125 
L 18.109375 0 
L 9.078125 0 
L 9.078125 54.6875 
L 18.109375 54.6875 
L 18.109375 46.1875 
Q 20.953125 51.171875 25.484375 53.578125 
Q 30.03125 56 36.53125 56 
Q 37.453125 56 38.578125 55.875 
Q 39.703125 55.765625 41.0625 55.515625 
z
" id="DejaVuSans-114"/>
     </defs>
     <g transform="translate(227.360887 546.676563)scale(0.1 -0.1)">
      <use xlink:href="#DejaVuSans-89"/>
      <use x="47.833984" xlink:href="#DejaVuSans-101"/>
      <use x="109.357422" xlink:href="#DejaVuSans-97"/>
      <use x="170.636719" xlink:href="#DejaVuSans-114"/>
     </g>
    </g>
   </g>
   <g id="matplotlib.axis_2">
    <g id="text_6">
     <!-- Fraction of growing stock volume -->
     <defs>
      <path d="M 9.8125 72.90625 
L 51.703125 72.90625 
L 51.703125 64.59375 
L 19.671875 64.59375 
L 19.671875 43.109375 
L 48.578125 43.109375 
L 48.578125 34.8125 
L 19.671875 34.8125 
L 19.671875 0 
L 9.8125 0 
z
" id="DejaVuSans-70"/>
      <path d="M 48.78125 52.59375 
L 48.78125 44.1875 
Q 44.96875 46.296875 41.140625 47.34375 
Q 37.3125 48.390625 33.40625 48.390625 
Q 24.65625 48.390625 19.8125 42.84375 
Q 14.984375 37.3125 14.984375 27.296875 
Q 14.984375 17.28125 19.8125 11.734375 
Q 24.65625 6.203125 33.40625 6.203125 
Q 37.3125 6.203125 41.140625 7.25 
Q 44.96875 8.296875 48.78125 10.40625 
L 48.78125 2.09375 
Q 45.015625 0.34375 40.984375 -0.53125 
Q 36.96875 -1.421875 32.421875 -1.421875 
Q 20.0625 -1.421875 12.78125 6.34375 
Q 5.515625 14.109375 5.515625 27.296875 
Q 5.515625 40.671875 12.859375 48.328125 
Q 20.21875 56 33.015625 56 
Q 37.15625 56 41.109375 55.140625 
Q 45.0625 54.296875 48.78125 52.59375 
z
" id="DejaVuSans-99"/>
      <path d="M 18.3125 70.21875 
L 18.3125 54.6875 
L 36.8125 54.6875 
L 36.8125 47.703125 
L 18.3125 47.703125 
L 18.3125 18.015625 
Q 18.3125 11.328125 20.140625 9.421875 
Q 21.96875 7.515625 27.59375 7.515625 
L 36.8125 7.515625 
L 36.8125 0 
L 27.59375 0 
Q 17.1875 0 13.234375 3.875 
Q 9.28125 7.765625 9.28125 18.015625 
L 9.28125 47.703125 
L 2.6875 47.703125 
L 2.6875 54.6875 
L 9.28125 54.6875 
L 9.28125 70.21875 
z
" id="DejaVuSans-116"/>
      <path d="M 9.421875 54.6875 
L 18.40625 54.6875 
L 18.40625 0 
L 9.421875 0 
z
M 9.421875 75.984375 
L 18.40625 75.984375 
L 18.40625 64.59375 
L 9.421875 64.59375 
z
" id="DejaVuSans-105"/>
      <path d="M 30.609375 48.390625 
Q 23.390625 48.390625 19.1875 42.75 
Q 14.984375 37.109375 14.984375 27.296875 
Q 14.984375 17.484375 19.15625 11.84375 
Q 23.34375 6.203125 30.609375 6.203125 
Q 37.796875 6.203125 41.984375 11.859375 
Q 46.1875 17.53125 46.1875 27.296875 
Q 46.1875 37.015625 41.984375 42.703125 
Q 37.796875 48.390625 30.609375 48.390625 
z
M 30.609375 56 
Q 42.328125 56 49.015625 48.375 
Q 55.71875 40.765625 55.71875 27.296875 
Q 55.71875 13.875 49.015625 6.21875 
Q 42.328125 -1.421875 30.609375 -1.421875 
Q 18.84375 -1.421875 12.171875 6.21875 
Q 5.515625 13.875 5.515625 27.296875 
Q 5.515625 40.765625 12.171875 48.375 
Q 18.84375 56 30.609375 56 
z
" id="DejaVuSans-111"/>
      <path d="M 54.890625 33.015625 
L 54.890625 0 
L 45.90625 0 
L 45.90625 32.71875 
Q 45.90625 40.484375 42.875 44.328125 
Q 39.84375 48.1875 33.796875 48.1875 
Q 26.515625 48.1875 22.3125 43.546875 
Q 18.109375 38.921875 18.109375 30.90625 
L 18.109375 0 
L 9.078125 0 
L 9.078125 54.6875 
L 18.109375 54.6875 
L 18.109375 46.1875 
Q 21.34375 51.125 25.703125 53.5625 
Q 30.078125 56 35.796875 56 
Q 45.21875 56 50.046875 50.171875 
Q 54.890625 44.34375 54.890625 33.015625 
z
" id="DejaVuSans-110"/>
      <path id="DejaVuSans-32"/>
      <path d="M 37.109375 75.984375 
L 37.109375 68.5 
L 28.515625 68.5 
Q 23.6875 68.5 21.796875 66.546875 
Q 19.921875 64.59375 19.921875 59.515625 
L 19.921875 54.6875 
L 34.71875 54.6875 
L 34.71875 47.703125 
L 19.921875 47.703125 
L 19.921875 0 
L 10.890625 0 
L 10.890625 47.703125 
L 2.296875 47.703125 
L 2.296875 54.6875 
L 10.890625 54.6875 
L 10.890625 58.5 
Q 10.890625 67.625 15.140625 71.796875 
Q 19.390625 75.984375 28.609375 75.984375 
z
" id="DejaVuSans-102"/>
      <path d="M 45.40625 27.984375 
Q 45.40625 37.75 41.375 43.109375 
Q 37.359375 48.484375 30.078125 48.484375 
Q 22.859375 48.484375 18.828125 43.109375 
Q 14.796875 37.75 14.796875 27.984375 
Q 14.796875 18.265625 18.828125 12.890625 
Q 22.859375 7.515625 30.078125 7.515625 
Q 37.359375 7.515625 41.375 12.890625 
Q 45.40625 18.265625 45.40625 27.984375 
z
M 54.390625 6.78125 
Q 54.390625 -7.171875 48.1875 -13.984375 
Q 42 -20.796875 29.203125 -20.796875 
Q 24.46875 -20.796875 20.265625 -20.09375 
Q 16.0625 -19.390625 12.109375 -17.921875 
L 12.109375 -9.1875 
Q 16.0625 -11.328125 19.921875 -12.34375 
Q 23.78125 -13.375 27.78125 -13.375 
Q 36.625 -13.375 41.015625 -8.765625 
Q 45.40625 -4.15625 45.40625 5.171875 
L 45.40625 9.625 
Q 42.625 4.78125 38.28125 2.390625 
Q 33.9375 0 27.875 0 
Q 17.828125 0 11.671875 7.65625 
Q 5.515625 15.328125 5.515625 27.984375 
Q 5.515625 40.671875 11.671875 48.328125 
Q 17.828125 56 27.875 56 
Q 33.9375 56 38.28125 53.609375 
Q 42.625 51.21875 45.40625 46.390625 
L 45.40625 54.6875 
L 54.390625 54.6875 
z
" id="DejaVuSans-103"/>
      <path d="M 4.203125 54.6875 
L 13.1875 54.6875 
L 24.421875 12.015625 
L 35.59375 54.6875 
L 46.1875 54.6875 
L 57.421875 12.015625 
L 68.609375 54.6875 
L 77.59375 54.6875 
L 63.28125 0 
L 52.6875 0 
L 40.921875 44.828125 
L 29.109375 0 
L 18.5 0 
z
" id="DejaVuSans-119"/>
      <path d="M 44.28125 53.078125 
L 44.28125 44.578125 
Q 40.484375 46.53125 36.375 47.5 
Q 32.28125 48.484375 27.875 48.484375 
Q 21.1875 48.484375 17.84375 46.4375 
Q 14.5 44.390625 14.5 40.28125 
Q 14.5 37.15625 16.890625 35.375 
Q 19.28125 33.59375 26.515625 31.984375 
L 29.59375 31.296875 
Q 39.15625 29.25 43.1875 25.515625 
Q 47.21875 21.78125 47.21875 15.09375 
Q 47.21875 7.46875 41.1875 3.015625 
Q 35.15625 -1.421875 24.609375 -1.421875 
Q 20.21875 -1.421875 15.453125 -0.5625 
Q 10.6875 0.296875 5.421875 2 
L 5.421875 11.28125 
Q 10.40625 8.6875 15.234375 7.390625 
Q 20.0625 6.109375 24.8125 6.109375 
Q 31.15625 6.109375 34.5625 8.28125 
Q 37.984375 10.453125 37.984375 14.40625 
Q 37.984375 18.0625 35.515625 20.015625 
Q 33.0625 21.96875 24.703125 23.78125 
L 21.578125 24.515625 
Q 13.234375 26.265625 9.515625 29.90625 
Q 5.8125 33.546875 5.8125 39.890625 
Q 5.8125 47.609375 11.28125 51.796875 
Q 16.75 56 26.8125 56 
Q 31.78125 56 36.171875 55.265625 
Q 40.578125 54.546875 44.28125 53.078125 
z
" id="DejaVuSans-115"/>
      <path d="M 9.078125 75.984375 
L 18.109375 75.984375 
L 18.109375 31.109375 
L 44.921875 54.6875 
L 56.390625 54.6875 
L 27.390625 29.109375 
L 57.625 0 
L 45.90625 0 
L 18.109375 26.703125 
L 18.109375 0 
L 9.078125 0 
z
" id="DejaVuSans-107"/>
      <path d="M 2.984375 54.6875 
L 12.5 54.6875 
L 29.59375 8.796875 
L 46.6875 54.6875 
L 56.203125 54.6875 
L 35.6875 0 
L 23.484375 0 
z
" id="DejaVuSans-118"/>
      <path d="M 9.421875 75.984375 
L 18.40625 75.984375 
L 18.40625 0 
L 9.421875 0 
z
" id="DejaVuSans-108"/>
      <path d="M 8.5 21.578125 
L 8.5 54.6875 
L 17.484375 54.6875 
L 17.484375 21.921875 
Q 17.484375 14.15625 20.5 10.265625 
Q 23.53125 6.390625 29.59375 6.390625 
Q 36.859375 6.390625 41.078125 11.03125 
Q 45.3125 15.671875 45.3125 23.6875 
L 45.3125 54.6875 
L 54.296875 54.6875 
L 54.296875 0 
L 45.3125 0 
L 45.3125 8.40625 
Q 42.046875 3.421875 37.71875 1 
Q 33.40625 -1.421875 27.6875 -1.421875 
Q 18.265625 -1.421875 13.375 4.4375 
Q 8.5 10.296875 8.5 21.578125 
z
M 31.109375 56 
z
" id="DejaVuSans-117"/>
      <path d="M 52 44.1875 
Q 55.375 50.25 60.0625 53.125 
Q 64.75 56 71.09375 56 
Q 79.640625 56 84.28125 50.015625 
Q 88.921875 44.046875 88.921875 33.015625 
L 88.921875 0 
L 79.890625 0 
L 79.890625 32.71875 
Q 79.890625 40.578125 77.09375 44.375 
Q 74.3125 48.1875 68.609375 48.1875 
Q 61.625 48.1875 57.5625 43.546875 
Q 53.515625 38.921875 53.515625 30.90625 
L 53.515625 0 
L 44.484375 0 
L 44.484375 32.71875 
Q 44.484375 40.625 41.703125 44.40625 
Q 38.921875 48.1875 33.109375 48.1875 
Q 26.21875 48.1875 22.15625 43.53125 
Q 18.109375 38.875 18.109375 30.90625 
L 18.109375 0 
L 9.078125 0 
L 9.078125 54.6875 
L 18.109375 54.6875 
L 18.109375 46.1875 
Q 21.1875 51.21875 25.484375 53.609375 
Q 29.78125 56 35.6875 56 
Q 41.65625 56 45.828125 52.96875 
Q 50 49.953125 52 44.1875 
z
" id="DejaVuSans-109"/>
     </defs>
     <g transform="translate(79.904375 387.51)rotate(-90)scale(0.12 -0.12)">
      <use xlink:href="#DejaVuSans-70"/>
      <use x="50.269531" xlink:href="#DejaVuSans-114"/>
      <use x="91.382812" xlink:href="#DejaVuSans-97"/>
      <use x="152.662109" xlink:href="#DejaVuSans-99"/>
      <use x="207.642578" xlink:href="#DejaVuSans-116"/>
      <use x="246.851562" xlink:href="#DejaVuSans-105"/>
      <use x="274.634766" xlink:href="#DejaVuSans-111"/>
      <use x="335.816406" xlink:href="#DejaVuSans-110"/>
      <use x="399.195312" xlink:href="#DejaVuSans-32"/>
      <use x="430.982422" xlink:href="#DejaVuSans-111"/>
      <use x="492.164062" xlink:href="#DejaVuSans-102"/>
      <use x="527.369141" xlink:href="#DejaVuSans-32"/>
      <use x="559.15625" xlink:href="#DejaVuSans-103"/>
      <use x="622.632812" xlink:href="#DejaVuSans-114"/>
      <use x="661.496094" xlink:href="#DejaVuSans-111"/>
      <use x="722.677734" xlink:href="#DejaVuSans-119"/>
      <use x="804.464844" xlink:href="#DejaVuSans-105"/>
      <use x="832.248047" xlink:href="#DejaVuSans-110"/>
      <use x="895.626953" xlink:href="#DejaVuSans-103"/>
      <use x="959.103516" xlink:href="#DejaVuSans-32"/>
      <use x="990.890625" xlink:href="#DejaVuSans-115"/>
      <use x="1042.990234" xlink:href="#DejaVuSans-116"/>
      <use x="1082.199219" xlink:href="#DejaVuSans-111"/>
      <use x="1143.380859" xlink:href="#DejaVuSans-99"/>
      <use x="1198.361328" xlink:href="#DejaVuSans-107"/>
      <use x="1256.271484" xlink:href="#DejaVuSans-32"/>
      <use x="1288.058594" xlink:href="#DejaVuSans-118"/>
      <use x="1347.238281" xlink:href="#DejaVuSans-111"/>
      <use x="1408.419922" xlink:href="#DejaVuSans-108"/>
      <use x="1436.203125" xlink:href="#DejaVuSans-117"/>
      <use x="1499.582031" xlink:href="#DejaVuSans-109"/>
      <use x="1596.994141" xlink:href="#DejaVuSans-101"/>
     </g>
    </g>
   </g>
   <g id="patch_43">
    <path d="M 86.4 518.4 
L 389.496774 518.4 
" style="fill:none;stroke:#000000;stroke-linecap:square;stroke-linejoin:miter;stroke-width:0.8;"/>
   </g>
   <g id="text_7">
    <!-- Austria -->
    <defs>
     <path d="M 34.1875 63.1875 
L 20.796875 26.90625 
L 47.609375 26.90625 
z
M 28.609375 72.90625 
L 39.796875 72.90625 
L 67.578125 0 
L 57.328125 0 
L 50.6875 18.703125 
L 17.828125 18.703125 
L 11.1875 0 
L 0.78125 0 
z
" id="DejaVuSans-65"/>
    </defs>
    <g transform="translate(101.554839 34.56)scale(0.22 -0.22)">
     <use xlink:href="#DejaVuSans-65"/>
     <use x="68.408203" xlink:href="#DejaVuSans-117"/>
     <use x="131.787109" xlink:href="#DejaVuSans-115"/>
     <use x="183.886719" xlink:href="#DejaVuSans-116"/>
     <use x="223.095703" xlink:href="#DejaVuSans-114"/>
     <use x="264.208984" xlink:href="#DejaVuSans-105"/>
     <use x="291.992188" xlink:href="#DejaVuSans-97"/>
    </g>
   </g>
  </g>
  <g id="axes_2">
   <g id="patch_44">
    <path d="M 480.425806 518.4 
L 783.522581 518.4 
L 783.522581 57.6 
L 480.425806 57.6 
z
" style="fill:#ffffff;"/>
   </g>
   <g id="patch_45">
    <path clip-path="url(#p4f90c0adf3)" d="M 577.416774 518.4 
L 625.912258 518.4 
L 625.912258 370.721088 
L 577.416774 370.721088 
z
" style="fill:#b3de69;"/>
   </g>
   <g id="patch_46">
    <path clip-path="url(#p4f90c0adf3)" d="M 638.036129 518.4 
L 686.531613 518.4 
L 686.531613 381.711044 
L 638.036129 381.711044 
z
" style="fill:#b3de69;"/>
   </g>
   <g id="patch_47">
    <path clip-path="url(#p4f90c0adf3)" d="M 698.655484 518.4 
L 747.150968 518.4 
L 747.150968 390.061945 
L 698.655484 390.061945 
z
" style="fill:#b3de69;"/>
   </g>
   <g id="patch_48">
    <path clip-path="url(#p4f90c0adf3)" d="M 577.416774 370.721088 
L 625.912258 370.721088 
L 625.912258 326.417415 
L 577.416774 326.417415 
z
" style="fill:#b3e2cd;"/>
   </g>
   <g id="patch_49">
    <path clip-path="url(#p4f90c0adf3)" d="M 638.036129 381.711044 
L 686.531613 381.711044 
L 686.531613 329.836677 
L 638.036129 329.836677 
z
" style="fill:#b3e2cd;"/>
   </g>
   <g id="patch_50">
    <path clip-path="url(#p4f90c0adf3)" d="M 698.655484 390.061945 
L 747.150968 390.061945 
L 747.150968 337.694118 
L 698.655484 337.694118 
z
" style="fill:#b3e2cd;"/>
   </g>
   <g id="patch_51">
    <path clip-path="url(#p4f90c0adf3)" d="M 577.416774 326.417415 
L 625.912258 326.417415 
L 625.912258 316.943673 
L 577.416774 316.943673 
z
" style="fill:#cbd5e8;"/>
   </g>
   <g id="patch_52">
    <path clip-path="url(#p4f90c0adf3)" d="M 638.036129 329.836677 
L 686.531613 329.836677 
L 686.531613 320.758663 
L 638.036129 320.758663 
z
" style="fill:#cbd5e8;"/>
   </g>
   <g id="patch_53">
    <path clip-path="url(#p4f90c0adf3)" d="M 698.655484 337.694118 
L 747.150968 337.694118 
L 747.150968 328.597359 
L 698.655484 328.597359 
z
" style="fill:#cbd5e8;"/>
   </g>
   <g id="patch_54">
    <path clip-path="url(#p4f90c0adf3)" d="M 577.416774 316.943673 
L 625.912258 316.943673 
L 625.912258 307.748571 
L 577.416774 307.748571 
z
" style="fill:#e6f5c9;"/>
   </g>
   <g id="patch_55">
    <path clip-path="url(#p4f90c0adf3)" d="M 638.036129 320.758663 
L 686.531613 320.758663 
L 686.531613 306.752584 
L 638.036129 306.752584 
z
" style="fill:#e6f5c9;"/>
   </g>
   <g id="patch_56">
    <path clip-path="url(#p4f90c0adf3)" d="M 698.655484 328.597359 
L 747.150968 328.597359 
L 747.150968 310.157983 
L 698.655484 310.157983 
z
" style="fill:#e6f5c9;"/>
   </g>
   <g id="patch_57">
    <path clip-path="url(#p4f90c0adf3)" d="M 577.416774 307.748571 
L 625.912258 307.748571 
L 625.912258 258.708027 
L 577.416774 258.708027 
z
"/>
   </g>
   <g id="patch_58">
    <path clip-path="url(#p4f90c0adf3)" d="M 638.036129 306.752584 
L 686.531613 306.752584 
L 686.531613 258.250051 
L 638.036129 258.250051 
z
"/>
   </g>
   <g id="patch_59">
    <path clip-path="url(#p4f90c0adf3)" d="M 698.655484 310.157983 
L 747.150968 310.157983 
L 747.150968 260.986315 
L 698.655484 260.986315 
z
"/>
   </g>
   <g id="patch_60">
    <path clip-path="url(#p4f90c0adf3)" d="M 577.416774 258.708027 
L 625.912258 258.708027 
L 625.912258 247.562449 
L 577.416774 247.562449 
z
" style="fill:#fff2ae;"/>
   </g>
   <g id="patch_61">
    <path clip-path="url(#p4f90c0adf3)" d="M 638.036129 258.250051 
L 686.531613 258.250051 
L 686.531613 246.578318 
L 638.036129 246.578318 
z
" style="fill:#fff2ae;"/>
   </g>
   <g id="patch_62">
    <path clip-path="url(#p4f90c0adf3)" d="M 698.655484 260.986315 
L 747.150968 260.986315 
L 747.150968 248.693397 
L 698.655484 248.693397 
z
" style="fill:#fff2ae;"/>
   </g>
   <g id="patch_63">
    <path clip-path="url(#p4f90c0adf3)" d="M 577.416774 247.562449 
L 625.912258 247.562449 
L 625.912258 225.549932 
L 577.416774 225.549932 
z
" style="fill:#f1e2cc;"/>
   </g>
   <g id="patch_64">
    <path clip-path="url(#p4f90c0adf3)" d="M 638.036129 246.578318 
L 686.531613 246.578318 
L 686.531613 227.125431 
L 638.036129 227.125431 
z
" style="fill:#f1e2cc;"/>
   </g>
   <g id="patch_65">
    <path clip-path="url(#p4f90c0adf3)" d="M 698.655484 248.693397 
L 747.150968 248.693397 
L 747.150968 231.237455 
L 698.655484 231.237455 
z
" style="fill:#f1e2cc;"/>
   </g>
   <g id="patch_66">
    <path clip-path="url(#p4f90c0adf3)" d="M 577.416774 225.549932 
L 625.912258 225.549932 
L 625.912258 212.175238 
L 577.416774 212.175238 
z
" style="fill:#ff7f00;"/>
   </g>
   <g id="patch_67">
    <path clip-path="url(#p4f90c0adf3)" d="M 638.036129 227.125431 
L 686.531613 227.125431 
L 686.531613 213.897467 
L 638.036129 213.897467 
z
" style="fill:#ff7f00;"/>
   </g>
   <g id="patch_68">
    <path clip-path="url(#p4f90c0adf3)" d="M 698.655484 231.237455 
L 747.150968 231.237455 
L 747.150968 217.961104 
L 698.655484 217.961104 
z
" style="fill:#ff7f00;"/>
   </g>
   <g id="patch_69">
    <path clip-path="url(#p4f90c0adf3)" d="M 577.416774 212.175238 
L 625.912258 212.175238 
L 625.912258 131.648435 
L 577.416774 131.648435 
z
" style="fill:#e41a1c;"/>
   </g>
   <g id="patch_70">
    <path clip-path="url(#p4f90c0adf3)" d="M 638.036129 213.897467 
L 686.531613 213.897467 
L 686.531613 134.529686 
L 638.036129 134.529686 
z
" style="fill:#e41a1c;"/>
   </g>
   <g id="patch_71">
    <path clip-path="url(#p4f90c0adf3)" d="M 698.655484 217.961104 
L 747.150968 217.961104 
L 747.150968 137.319568 
L 698.655484 137.319568 
z
" style="fill:#e41a1c;"/>
   </g>
   <g id="patch_72">
    <path clip-path="url(#p4f90c0adf3)" d="M 577.416774 131.648435 
L 625.912258 131.648435 
L 625.912258 79.542857 
L 577.416774 79.542857 
z
" style="fill:#377eb8;"/>
   </g>
   <g id="patch_73">
    <path clip-path="url(#p4f90c0adf3)" d="M 638.036129 134.529686 
L 686.531613 134.529686 
L 686.531613 79.542857 
L 638.036129 79.542857 
z
" style="fill:#377eb8;"/>
   </g>
   <g id="patch_74">
    <path clip-path="url(#p4f90c0adf3)" d="M 698.655484 137.319568 
L 747.150968 137.319568 
L 747.150968 79.542857 
L 698.655484 79.542857 
z
" style="fill:#377eb8;"/>
   </g>
   <g id="matplotlib.axis_3">
    <g id="xtick_5">
     <g id="line2d_5">
      <g>
       <use style="stroke:#000000;stroke-width:0.8;" x="541.045161" xlink:href="#m6a57e034b2" y="518.4"/>
      </g>
     </g>
     <g id="text_8">
      <!-- 1990 -->
      <g transform="translate(528.320161 532.998438)scale(0.1 -0.1)">
       <use xlink:href="#DejaVuSans-49"/>
       <use x="63.623047" xlink:href="#DejaVuSans-57"/>
       <use x="127.246094" xlink:href="#DejaVuSans-57"/>
       <use x="190.869141" xlink:href="#DejaVuSans-48"/>
      </g>
     </g>
    </g>
    <g id="xtick_6">
     <g id="line2d_6">
      <g>
       <use style="stroke:#000000;stroke-width:0.8;" x="601.664516" xlink:href="#m6a57e034b2" y="518.4"/>
      </g>
     </g>
     <g id="text_9">
      <!-- 2000 -->
      <g transform="translate(588.939516 532.998438)scale(0.1 -0.1)">
       <use xlink:href="#DejaVuSans-50"/>
       <use x="63.623047" xlink:href="#DejaVuSans-48"/>
       <use x="127.246094" xlink:href="#DejaVuSans-48"/>
       <use x="190.869141" xlink:href="#DejaVuSans-48"/>
      </g>
     </g>
    </g>
    <g id="xtick_7">
     <g id="line2d_7">
      <g>
       <use style="stroke:#000000;stroke-width:0.8;" x="662.283871" xlink:href="#m6a57e034b2" y="518.4"/>
      </g>
     </g>
     <g id="text_10">
      <!-- 2005 -->
      <g transform="translate(649.558871 532.998438)scale(0.1 -0.1)">
       <use xlink:href="#DejaVuSans-50"/>
       <use x="63.623047" xlink:href="#DejaVuSans-48"/>
       <use x="127.246094" xlink:href="#DejaVuSans-48"/>
       <use x="190.869141" xlink:href="#DejaVuSans-53"/>
      </g>
     </g>
    </g>
    <g id="xtick_8">
     <g id="line2d_8">
      <g>
       <use style="stroke:#000000;stroke-width:0.8;" x="722.903226" xlink:href="#m6a57e034b2" y="518.4"/>
      </g>
     </g>
     <g id="text_11">
      <!-- 2010 -->
      <g transform="translate(710.178226 532.998438)scale(0.1 -0.1)">
       <use xlink:href="#DejaVuSans-50"/>
       <use x="63.623047" xlink:href="#DejaVuSans-48"/>
       <use x="127.246094" xlink:href="#DejaVuSans-49"/>
       <use x="190.869141" xlink:href="#DejaVuSans-48"/>
      </g>
     </g>
    </g>
    <g id="text_12">
     <!-- Year -->
     <g transform="translate(621.386694 546.676563)scale(0.1 -0.1)">
      <use xlink:href="#DejaVuSans-89"/>
      <use x="47.833984" xlink:href="#DejaVuSans-101"/>
      <use x="109.357422" xlink:href="#DejaVuSans-97"/>
      <use x="170.636719" xlink:href="#DejaVuSans-114"/>
     </g>
    </g>
   </g>
   <g id="matplotlib.axis_4"/>
   <g id="patch_75">
    <path d="M 480.425806 518.4 
L 783.522581 518.4 
" style="fill:none;stroke:#000000;stroke-linecap:square;stroke-linejoin:miter;stroke-width:0.8;"/>
   </g>
   <g id="text_13">
    <!-- Belgium -->
    <defs>
     <path d="M 19.671875 34.8125 
L 19.671875 8.109375 
L 35.5 8.109375 
Q 43.453125 8.109375 47.28125 11.40625 
Q 51.125 14.703125 51.125 21.484375 
Q 51.125 28.328125 47.28125 31.5625 
Q 43.453125 34.8125 35.5 34.8125 
z
M 19.671875 64.796875 
L 19.671875 42.828125 
L 34.28125 42.828125 
Q 41.5 42.828125 45.03125 45.53125 
Q 48.578125 48.25 48.578125 53.8125 
Q 48.578125 59.328125 45.03125 62.0625 
Q 41.5 64.796875 34.28125 64.796875 
z
M 9.8125 72.90625 
L 35.015625 72.90625 
Q 46.296875 72.90625 52.390625 68.21875 
Q 58.5 63.53125 58.5 54.890625 
Q 58.5 48.1875 55.375 44.234375 
Q 52.25 40.28125 46.1875 39.3125 
Q 53.46875 37.75 57.5 32.78125 
Q 61.53125 27.828125 61.53125 20.40625 
Q 61.53125 10.640625 54.890625 5.3125 
Q 48.25 0 35.984375 0 
L 9.8125 0 
z
" id="DejaVuSans-66"/>
    </defs>
    <g transform="translate(495.580645 34.56)scale(0.22 -0.22)">
     <use xlink:href="#DejaVuSans-66"/>
     <use x="68.603516" xlink:href="#DejaVuSans-101"/>
     <use x="130.126953" xlink:href="#DejaVuSans-108"/>
     <use x="157.910156" xlink:href="#DejaVuSans-103"/>
     <use x="221.386719" xlink:href="#DejaVuSans-105"/>
     <use x="249.169922" xlink:href="#DejaVuSans-117"/>
     <use x="312.548828" xlink:href="#DejaVuSans-109"/>
    </g>
   </g>
  </g>
  <g id="axes_3">
   <g id="patch_76">
    <path d="M 874.451613 518.4 
L 1177.548387 518.4 
L 1177.548387 57.6 
L 874.451613 57.6 
z
" style="fill:#ffffff;"/>
   </g>
   <g id="patch_77">
    <path clip-path="url(#pf4811bd864)" d="M 910.823226 518.4 
L 959.31871 518.4 
L 959.31871 480.365714 
L 910.823226 480.365714 
z
" style="fill:#b3de69;"/>
   </g>
   <g id="patch_78">
    <path clip-path="url(#pf4811bd864)" d="M 971.442581 518.4 
L 1019.938065 518.4 
L 1019.938065 482.857577 
L 971.442581 482.857577 
z
" style="fill:#b3de69;"/>
   </g>
   <g id="patch_79">
    <path clip-path="url(#pf4811bd864)" d="M 1032.061935 518.4 
L 1080.557419 518.4 
L 1080.557419 482.385497 
L 1032.061935 482.385497 
z
" style="fill:#b3de69;"/>
   </g>
   <g id="patch_80">
    <path clip-path="url(#pf4811bd864)" d="M 1092.68129 518.4 
L 1141.176774 518.4 
L 1141.176774 480.773953 
L 1092.68129 480.773953 
z
" style="fill:#b3de69;"/>
   </g>
   <g id="patch_81">
    <path clip-path="url(#pf4811bd864)" d="M 910.823226 480.365714 
L 959.31871 480.365714 
L 959.31871 364.204021 
L 910.823226 364.204021 
z
" style="fill:#b3e2cd;"/>
   </g>
   <g id="patch_82">
    <path clip-path="url(#pf4811bd864)" d="M 971.442581 482.857577 
L 1019.938065 482.857577 
L 1019.938065 342.690277 
L 971.442581 342.690277 
z
" style="fill:#b3e2cd;"/>
   </g>
   <g id="patch_83">
    <path clip-path="url(#pf4811bd864)" d="M 1032.061935 482.385497 
L 1080.557419 482.385497 
L 1080.557419 342.9314 
L 1032.061935 342.9314 
z
" style="fill:#b3e2cd;"/>
   </g>
   <g id="patch_84">
    <path clip-path="url(#pf4811bd864)" d="M 1092.68129 480.773953 
L 1141.176774 480.773953 
L 1141.176774 339.11495 
L 1092.68129 339.11495 
z
" style="fill:#b3e2cd;"/>
   </g>
   <g id="patch_85">
    <path clip-path="url(#pf4811bd864)" d="M 910.823226 364.204021 
L 959.31871 364.204021 
L 959.31871 352.934603 
L 910.823226 352.934603 
z
" style="fill:#4daf4a;"/>
   </g>
   <g id="patch_86">
    <path clip-path="url(#pf4811bd864)" d="M 971.442581 342.690277 
L 1019.938065 342.690277 
L 1019.938065 333.679522 
L 971.442581 333.679522 
z
" style="fill:#4daf4a;"/>
   </g>
   <g id="patch_87">
    <path clip-path="url(#pf4811bd864)" d="M 1032.061935 342.9314 
L 1080.557419 342.9314 
L 1080.557419 334.169108 
L 1032.061935 334.169108 
z
" style="fill:#4daf4a;"/>
   </g>
   <g id="patch_88">
    <path clip-path="url(#pf4811bd864)" d="M 1092.68129 339.11495 
L 1141.176774 339.11495 
L 1141.176774 330.133688 
L 1092.68129 330.133688 
z
" style="fill:#4daf4a;"/>
   </g>
   <g id="patch_89">
    <path clip-path="url(#pf4811bd864)" d="M 910.823226 352.934603 
L 959.31871 352.934603 
L 959.31871 327.903492 
L 910.823226 327.903492 
z
"/>
   </g>
   <g id="patch_90">
    <path clip-path="url(#pf4811bd864)" d="M 971.442581 333.679522 
L 1019.938065 333.679522 
L 1019.938065 304.811733 
L 971.442581 304.811733 
z
"/>
   </g>
   <g id="patch_91">
    <path clip-path="url(#pf4811bd864)" d="M 1032.061935 334.169108 
L 1080.557419 334.169108 
L 1080.557419 308.624801 
L 1032.061935 308.624801 
z
"/>
   </g>
   <g id="patch_92">
    <path clip-path="url(#pf4811bd864)" d="M 1092.68129 330.133688 
L 1141.176774 330.133688 
L 1141.176774 305.026977 
L 1092.68129 305.026977 
z
"/>
   </g>
   <g id="patch_93">
    <path clip-path="url(#pf4811bd864)" d="M 910.823226 327.903492 
L 959.31871 327.903492 
L 959.31871 321.076825 
L 910.823226 321.076825 
z
" style="fill:#fdcdac;"/>
   </g>
   <g id="patch_94">
    <path clip-path="url(#pf4811bd864)" d="M 971.442581 304.811733 
L 1019.938065 304.811733 
L 1019.938065 297.970234 
L 971.442581 297.970234 
z
" style="fill:#fdcdac;"/>
   </g>
   <g id="patch_95">
    <path clip-path="url(#pf4811bd864)" d="M 1032.061935 308.624801 
L 1080.557419 308.624801 
L 1080.557419 300.382306 
L 1032.061935 300.382306 
z
" style="fill:#fdcdac;"/>
   </g>
   <g id="patch_96">
    <path clip-path="url(#pf4811bd864)" d="M 1092.68129 305.026977 
L 1141.176774 305.026977 
L 1141.176774 297.406512 
L 1092.68129 297.406512 
z
" style="fill:#fdcdac;"/>
   </g>
   <g id="patch_97">
    <path clip-path="url(#pf4811bd864)" d="M 910.823226 321.076825 
L 959.31871 321.076825 
L 959.31871 318.90963 
L 910.823226 318.90963 
z
" style="fill:#f1e2cc;"/>
   </g>
   <g id="patch_98">
    <path clip-path="url(#pf4811bd864)" d="M 971.442581 297.970234 
L 1019.938065 297.970234 
L 1019.938065 296.468441 
L 971.442581 296.468441 
z
" style="fill:#f1e2cc;"/>
   </g>
   <g id="patch_99">
    <path clip-path="url(#pf4811bd864)" d="M 1032.061935 300.382306 
L 1080.557419 300.382306 
L 1080.557419 298.525888 
L 1032.061935 298.525888 
z
" style="fill:#f1e2cc;"/>
   </g>
   <g id="patch_100">
    <path clip-path="url(#pf4811bd864)" d="M 1092.68129 297.406512 
L 1141.176774 297.406512 
L 1141.176774 295.501395 
L 1092.68129 295.501395 
z
" style="fill:#f1e2cc;"/>
   </g>
   <g id="patch_101">
    <path clip-path="url(#pf4811bd864)" d="M 910.823226 318.90963 
L 959.31871 318.90963 
L 959.31871 293.01164 
L 910.823226 293.01164 
z
" style="fill:#984ea3;"/>
   </g>
   <g id="patch_102">
    <path clip-path="url(#pf4811bd864)" d="M 971.442581 296.468441 
L 1019.938065 296.468441 
L 1019.938065 279.364693 
L 971.442581 279.364693 
z
" style="fill:#984ea3;"/>
   </g>
   <g id="patch_103">
    <path clip-path="url(#pf4811bd864)" d="M 1032.061935 298.525888 
L 1080.557419 298.525888 
L 1080.557419 281.446846 
L 1032.061935 281.446846 
z
" style="fill:#984ea3;"/>
   </g>
   <g id="patch_104">
    <path clip-path="url(#pf4811bd864)" d="M 1092.68129 295.501395 
L 1141.176774 295.501395 
L 1141.176774 278.627508 
L 1092.68129 278.627508 
z
" style="fill:#984ea3;"/>
   </g>
   <g id="patch_105">
    <path clip-path="url(#pf4811bd864)" d="M 910.823226 293.01164 
L 959.31871 293.01164 
L 959.31871 195.81291 
L 910.823226 195.81291 
z
" style="fill:#e41a1c;"/>
   </g>
   <g id="patch_106">
    <path clip-path="url(#pf4811bd864)" d="M 971.442581 279.364693 
L 1019.938065 279.364693 
L 1019.938065 188.089082 
L 971.442581 188.089082 
z
" style="fill:#e41a1c;"/>
   </g>
   <g id="patch_107">
    <path clip-path="url(#pf4811bd864)" d="M 1032.061935 281.446846 
L 1080.557419 281.446846 
L 1080.557419 185.432922 
L 1032.061935 185.432922 
z
" style="fill:#e41a1c;"/>
   </g>
   <g id="patch_108">
    <path clip-path="url(#pf4811bd864)" d="M 1092.68129 278.627508 
L 1141.176774 278.627508 
L 1141.176774 184.732492 
L 1092.68129 184.732492 
z
" style="fill:#e41a1c;"/>
   </g>
   <g id="patch_109">
    <path clip-path="url(#pf4811bd864)" d="M 910.823226 195.81291 
L 959.31871 195.81291 
L 959.31871 79.542857 
L 910.823226 79.542857 
z
" style="fill:#377eb8;"/>
   </g>
   <g id="patch_110">
    <path clip-path="url(#pf4811bd864)" d="M 971.442581 188.089082 
L 1019.938065 188.089082 
L 1019.938065 79.542857 
L 971.442581 79.542857 
z
" style="fill:#377eb8;"/>
   </g>
   <g id="patch_111">
    <path clip-path="url(#pf4811bd864)" d="M 1032.061935 185.432922 
L 1080.557419 185.432922 
L 1080.557419 79.542857 
L 1032.061935 79.542857 
z
" style="fill:#377eb8;"/>
   </g>
   <g id="patch_112">
    <path clip-path="url(#pf4811bd864)" d="M 1092.68129 184.732492 
L 1141.176774 184.732492 
L 1141.176774 79.542857 
L 1092.68129 79.542857 
z
" style="fill:#377eb8;"/>
   </g>
   <g id="matplotlib.axis_5">
    <g id="xtick_9">
     <g id="line2d_9">
      <g>
       <use style="stroke:#000000;stroke-width:0.8;" x="935.070968" xlink:href="#m6a57e034b2" y="518.4"/>
      </g>
     </g>
     <g id="text_14">
      <!-- 1990 -->
      <g transform="translate(922.345968 532.998438)scale(0.1 -0.1)">
       <use xlink:href="#DejaVuSans-49"/>
       <use x="63.623047" xlink:href="#DejaVuSans-57"/>
       <use x="127.246094" xlink:href="#DejaVuSans-57"/>
       <use x="190.869141" xlink:href="#DejaVuSans-48"/>
      </g>
     </g>
    </g>
    <g id="xtick_10">
     <g id="line2d_10">
      <g>
       <use style="stroke:#000000;stroke-width:0.8;" x="995.690323" xlink:href="#m6a57e034b2" y="518.4"/>
      </g>
     </g>
     <g id="text_15">
      <!-- 2000 -->
      <g transform="translate(982.965323 532.998438)scale(0.1 -0.1)">
       <use xlink:href="#DejaVuSans-50"/>
       <use x="63.623047" xlink:href="#DejaVuSans-48"/>
       <use x="127.246094" xlink:href="#DejaVuSans-48"/>
       <use x="190.869141" xlink:href="#DejaVuSans-48"/>
      </g>
     </g>
    </g>
    <g id="xtick_11">
     <g id="line2d_11">
      <g>
       <use style="stroke:#000000;stroke-width:0.8;" x="1056.309677" xlink:href="#m6a57e034b2" y="518.4"/>
      </g>
     </g>
     <g id="text_16">
      <!-- 2005 -->
      <g transform="translate(1043.584677 532.998438)scale(0.1 -0.1)">
       <use xlink:href="#DejaVuSans-50"/>
       <use x="63.623047" xlink:href="#DejaVuSans-48"/>
       <use x="127.246094" xlink:href="#DejaVuSans-48"/>
       <use x="190.869141" xlink:href="#DejaVuSans-53"/>
      </g>
     </g>
    </g>
    <g id="xtick_12">
     <g id="line2d_12">
      <g>
       <use style="stroke:#000000;stroke-width:0.8;" x="1116.929032" xlink:href="#m6a57e034b2" y="518.4"/>
      </g>
     </g>
     <g id="text_17">
      <!-- 2010 -->
      <g transform="translate(1104.204032 532.998438)scale(0.1 -0.1)">
       <use xlink:href="#DejaVuSans-50"/>
       <use x="63.623047" xlink:href="#DejaVuSans-48"/>
       <use x="127.246094" xlink:href="#DejaVuSans-49"/>
       <use x="190.869141" xlink:href="#DejaVuSans-48"/>
      </g>
     </g>
    </g>
    <g id="text_18">
     <!-- Year -->
     <g transform="translate(1015.4125 546.676563)scale(0.1 -0.1)">
      <use xlink:href="#DejaVuSans-89"/>
      <use x="47.833984" xlink:href="#DejaVuSans-101"/>
      <use x="109.357422" xlink:href="#DejaVuSans-97"/>
      <use x="170.636719" xlink:href="#DejaVuSans-114"/>
     </g>
    </g>
   </g>
   <g id="matplotlib.axis_6"/>
   <g id="patch_113">
    <path d="M 874.451613 518.4 
L 1177.548387 518.4 
" style="fill:none;stroke:#000000;stroke-linecap:square;stroke-linejoin:miter;stroke-width:0.8;"/>
   </g>
   <g id="text_19">
    <!-- Bulgaria -->
    <g transform="translate(889.606452 34.56)scale(0.22 -0.22)">
     <use xlink:href="#DejaVuSans-66"/>
     <use x="68.603516" xlink:href="#DejaVuSans-117"/>
     <use x="131.982422" xlink:href="#DejaVuSans-108"/>
     <use x="159.765625" xlink:href="#DejaVuSans-103"/>
     <use x="223.242188" xlink:href="#DejaVuSans-97"/>
     <use x="284.521484" xlink:href="#DejaVuSans-114"/>
     <use x="325.634766" xlink:href="#DejaVuSans-105"/>
     <use x="353.417969" xlink:href="#DejaVuSans-97"/>
    </g>
   </g>
  </g>
  <g id="axes_4">
   <g id="patch_114">
    <path d="M 1268.477419 518.4 
L 1571.574194 518.4 
L 1571.574194 57.6 
L 1268.477419 57.6 
z
" style="fill:#ffffff;"/>
   </g>
   <g id="patch_115">
    <path clip-path="url(#p84fc55dc52)" d="M 1304.849032 518.4 
L 1353.344516 518.4 
L 1353.344516 510.509226 
L 1304.849032 510.509226 
z
" style="fill:#b3de69;"/>
   </g>
   <g id="patch_116">
    <path clip-path="url(#p84fc55dc52)" d="M 1365.468387 518.4 
L 1413.963871 518.4 
L 1413.963871 509.39424 
L 1365.468387 509.39424 
z
" style="fill:#b3de69;"/>
   </g>
   <g id="patch_117">
    <path clip-path="url(#p84fc55dc52)" d="M 1426.087742 518.4 
L 1474.583226 518.4 
L 1474.583226 508.93917 
L 1426.087742 508.93917 
z
" style="fill:#b3de69;"/>
   </g>
   <g id="patch_118">
    <path clip-path="url(#p84fc55dc52)" d="M 1486.707097 518.4 
L 1535.202581 518.4 
L 1535.202581 508.819004 
L 1486.707097 508.819004 
z
" style="fill:#b3de69;"/>
   </g>
   <g id="patch_119">
    <path clip-path="url(#p84fc55dc52)" d="M 1304.849032 510.509226 
L 1353.344516 510.509226 
L 1353.344516 463.885781 
L 1304.849032 463.885781 
z
" style="fill:#4daf4a;"/>
   </g>
   <g id="patch_120">
    <path clip-path="url(#p84fc55dc52)" d="M 1365.468387 509.39424 
L 1413.963871 509.39424 
L 1413.963871 471.019222 
L 1365.468387 471.019222 
z
" style="fill:#4daf4a;"/>
   </g>
   <g id="patch_121">
    <path clip-path="url(#p84fc55dc52)" d="M 1426.087742 508.93917 
L 1474.583226 508.93917 
L 1474.583226 473.888503 
L 1426.087742 473.888503 
z
" style="fill:#4daf4a;"/>
   </g>
   <g id="patch_122">
    <path clip-path="url(#p84fc55dc52)" d="M 1486.707097 508.819004 
L 1535.202581 508.819004 
L 1535.202581 474.469999 
L 1486.707097 474.469999 
z
" style="fill:#4daf4a;"/>
   </g>
   <g id="patch_123">
    <path clip-path="url(#p84fc55dc52)" d="M 1304.849032 463.885781 
L 1353.344516 463.885781 
L 1353.344516 399.684858 
L 1304.849032 399.684858 
z
"/>
   </g>
   <g id="patch_124">
    <path clip-path="url(#p84fc55dc52)" d="M 1365.468387 471.019222 
L 1413.963871 471.019222 
L 1413.963871 407.881411 
L 1365.468387 407.881411 
z
"/>
   </g>
   <g id="patch_125">
    <path clip-path="url(#p84fc55dc52)" d="M 1426.087742 473.888503 
L 1474.583226 473.888503 
L 1474.583226 411.173457 
L 1426.087742 411.173457 
z
"/>
   </g>
   <g id="patch_126">
    <path clip-path="url(#p84fc55dc52)" d="M 1486.707097 474.469999 
L 1535.202581 474.469999 
L 1535.202581 411.410411 
L 1486.707097 411.410411 
z
"/>
   </g>
   <g id="patch_127">
    <path clip-path="url(#p84fc55dc52)" d="M 1304.849032 399.684858 
L 1353.344516 399.684858 
L 1353.344516 396.531377 
L 1304.849032 396.531377 
z
" style="fill:#80b1d3;"/>
   </g>
   <g id="patch_128">
    <path clip-path="url(#p84fc55dc52)" d="M 1365.468387 407.881411 
L 1413.963871 407.881411 
L 1413.963871 401.593221 
L 1365.468387 401.593221 
z
" style="fill:#80b1d3;"/>
   </g>
   <g id="patch_129">
    <path clip-path="url(#p84fc55dc52)" d="M 1426.087742 411.173457 
L 1474.583226 411.173457 
L 1474.583226 403.62759 
L 1426.087742 403.62759 
z
" style="fill:#80b1d3;"/>
   </g>
   <g id="patch_130">
    <path clip-path="url(#p84fc55dc52)" d="M 1486.707097 411.410411 
L 1535.202581 411.410411 
L 1535.202581 402.466708 
L 1486.707097 402.466708 
z
" style="fill:#80b1d3;"/>
   </g>
   <g id="patch_131">
    <path clip-path="url(#p84fc55dc52)" d="M 1304.849032 396.531377 
L 1353.344516 396.531377 
L 1353.344516 382.715451 
L 1304.849032 382.715451 
z
" style="fill:#fff2ae;"/>
   </g>
   <g id="patch_132">
    <path clip-path="url(#p84fc55dc52)" d="M 1365.468387 401.593221 
L 1413.963871 401.593221 
L 1413.963871 387.603218 
L 1365.468387 387.603218 
z
" style="fill:#fff2ae;"/>
   </g>
   <g id="patch_133">
    <path clip-path="url(#p84fc55dc52)" d="M 1426.087742 403.62759 
L 1474.583226 403.62759 
L 1474.583226 389.573127 
L 1426.087742 389.573127 
z
" style="fill:#fff2ae;"/>
   </g>
   <g id="patch_134">
    <path clip-path="url(#p84fc55dc52)" d="M 1486.707097 402.466708 
L 1535.202581 402.466708 
L 1535.202581 388.413861 
L 1486.707097 388.413861 
z
" style="fill:#fff2ae;"/>
   </g>
   <g id="patch_135">
    <path clip-path="url(#p84fc55dc52)" d="M 1304.849032 382.715451 
L 1353.344516 382.715451 
L 1353.344516 348.635226 
L 1304.849032 348.635226 
z
" style="fill:#984ea3;"/>
   </g>
   <g id="patch_136">
    <path clip-path="url(#p84fc55dc52)" d="M 1365.468387 387.603218 
L 1413.963871 387.603218 
L 1413.963871 350.129995 
L 1365.468387 350.129995 
z
" style="fill:#984ea3;"/>
   </g>
   <g id="patch_137">
    <path clip-path="url(#p84fc55dc52)" d="M 1426.087742 389.573127 
L 1474.583226 389.573127 
L 1474.583226 350.72673 
L 1426.087742 350.72673 
z
" style="fill:#984ea3;"/>
   </g>
   <g id="patch_138">
    <path clip-path="url(#p84fc55dc52)" d="M 1486.707097 388.413861 
L 1535.202581 388.413861 
L 1535.202581 348.437236 
L 1486.707097 348.437236 
z
" style="fill:#984ea3;"/>
   </g>
   <g id="patch_139">
    <path clip-path="url(#p84fc55dc52)" d="M 1304.849032 348.635226 
L 1353.344516 348.635226 
L 1353.344516 343.61511 
L 1304.849032 343.61511 
z
" style="fill:#f4cae4;"/>
   </g>
   <g id="patch_140">
    <path clip-path="url(#p84fc55dc52)" d="M 1365.468387 350.129995 
L 1413.963871 350.129995 
L 1413.963871 343.061875 
L 1365.468387 343.061875 
z
" style="fill:#f4cae4;"/>
   </g>
   <g id="patch_141">
    <path clip-path="url(#p84fc55dc52)" d="M 1426.087742 350.72673 
L 1474.583226 350.72673 
L 1474.583226 342.838905 
L 1426.087742 342.838905 
z
" style="fill:#f4cae4;"/>
   </g>
   <g id="patch_142">
    <path clip-path="url(#p84fc55dc52)" d="M 1486.707097 348.437236 
L 1535.202581 348.437236 
L 1535.202581 339.828382 
L 1486.707097 339.828382 
z
" style="fill:#f4cae4;"/>
   </g>
   <g id="patch_143">
    <path clip-path="url(#p84fc55dc52)" d="M 1304.849032 343.61511 
L 1353.344516 343.61511 
L 1353.344516 236.326035 
L 1304.849032 236.326035 
z
" style="fill:#e41a1c;"/>
   </g>
   <g id="patch_144">
    <path clip-path="url(#p84fc55dc52)" d="M 1365.468387 343.061875 
L 1413.963871 343.061875 
L 1413.963871 237.832189 
L 1365.468387 237.832189 
z
" style="fill:#e41a1c;"/>
   </g>
   <g id="patch_145">
    <path clip-path="url(#p84fc55dc52)" d="M 1426.087742 342.838905 
L 1474.583226 342.838905 
L 1474.583226 238.439212 
L 1426.087742 238.439212 
z
" style="fill:#e41a1c;"/>
   </g>
   <g id="patch_146">
    <path clip-path="url(#p84fc55dc52)" d="M 1486.707097 339.828382 
L 1535.202581 339.828382 
L 1535.202581 238.153167 
L 1486.707097 238.153167 
z
" style="fill:#e41a1c;"/>
   </g>
   <g id="patch_147">
    <path clip-path="url(#p84fc55dc52)" d="M 1304.849032 236.326035 
L 1353.344516 236.326035 
L 1353.344516 79.542857 
L 1304.849032 79.542857 
z
" style="fill:#377eb8;"/>
   </g>
   <g id="patch_148">
    <path clip-path="url(#p84fc55dc52)" d="M 1365.468387 237.832189 
L 1413.963871 237.832189 
L 1413.963871 79.542857 
L 1365.468387 79.542857 
z
" style="fill:#377eb8;"/>
   </g>
   <g id="patch_149">
    <path clip-path="url(#p84fc55dc52)" d="M 1426.087742 238.439212 
L 1474.583226 238.439212 
L 1474.583226 79.542857 
L 1426.087742 79.542857 
z
" style="fill:#377eb8;"/>
   </g>
   <g id="patch_150">
    <path clip-path="url(#p84fc55dc52)" d="M 1486.707097 238.153167 
L 1535.202581 238.153167 
L 1535.202581 79.542857 
L 1486.707097 79.542857 
z
" style="fill:#377eb8;"/>
   </g>
   <g id="matplotlib.axis_7">
    <g id="xtick_13">
     <g id="line2d_13">
      <g>
       <use style="stroke:#000000;stroke-width:0.8;" x="1329.096774" xlink:href="#m6a57e034b2" y="518.4"/>
      </g>
     </g>
     <g id="text_20">
      <!-- 1990 -->
      <g transform="translate(1316.371774 532.998438)scale(0.1 -0.1)">
       <use xlink:href="#DejaVuSans-49"/>
       <use x="63.623047" xlink:href="#DejaVuSans-57"/>
       <use x="127.246094" xlink:href="#DejaVuSans-57"/>
       <use x="190.869141" xlink:href="#DejaVuSans-48"/>
      </g>
     </g>
    </g>
    <g id="xtick_14">
     <g id="line2d_14">
      <g>
       <use style="stroke:#000000;stroke-width:0.8;" x="1389.716129" xlink:href="#m6a57e034b2" y="518.4"/>
      </g>
     </g>
     <g id="text_21">
      <!-- 2000 -->
      <g transform="translate(1376.991129 532.998438)scale(0.1 -0.1)">
       <use xlink:href="#DejaVuSans-50"/>
       <use x="63.623047" xlink:href="#DejaVuSans-48"/>
       <use x="127.246094" xlink:href="#DejaVuSans-48"/>
       <use x="190.869141" xlink:href="#DejaVuSans-48"/>
      </g>
     </g>
    </g>
    <g id="xtick_15">
     <g id="line2d_15">
      <g>
       <use style="stroke:#000000;stroke-width:0.8;" x="1450.335484" xlink:href="#m6a57e034b2" y="518.4"/>
      </g>
     </g>
     <g id="text_22">
      <!-- 2005 -->
      <g transform="translate(1437.610484 532.998438)scale(0.1 -0.1)">
       <use xlink:href="#DejaVuSans-50"/>
       <use x="63.623047" xlink:href="#DejaVuSans-48"/>
       <use x="127.246094" xlink:href="#DejaVuSans-48"/>
       <use x="190.869141" xlink:href="#DejaVuSans-53"/>
      </g>
     </g>
    </g>
    <g id="xtick_16">
     <g id="line2d_16">
      <g>
       <use style="stroke:#000000;stroke-width:0.8;" x="1510.954839" xlink:href="#m6a57e034b2" y="518.4"/>
      </g>
     </g>
     <g id="text_23">
      <!-- 2010 -->
      <g transform="translate(1498.229839 532.998438)scale(0.1 -0.1)">
       <use xlink:href="#DejaVuSans-50"/>
       <use x="63.623047" xlink:href="#DejaVuSans-48"/>
       <use x="127.246094" xlink:href="#DejaVuSans-49"/>
       <use x="190.869141" xlink:href="#DejaVuSans-48"/>
      </g>
     </g>
    </g>
    <g id="text_24">
     <!-- Year -->
     <g transform="translate(1409.438306 546.676563)scale(0.1 -0.1)">
      <use xlink:href="#DejaVuSans-89"/>
      <use x="47.833984" xlink:href="#DejaVuSans-101"/>
      <use x="109.357422" xlink:href="#DejaVuSans-97"/>
      <use x="170.636719" xlink:href="#DejaVuSans-114"/>
     </g>
    </g>
   </g>
   <g id="matplotlib.axis_8"/>
   <g id="patch_151">
    <path d="M 1268.477419 518.4 
L 1571.574194 518.4 
" style="fill:none;stroke:#000000;stroke-linecap:square;stroke-linejoin:miter;stroke-width:0.8;"/>
   </g>
   <g id="text_25">
    <!-- Croatia -->
    <defs>
     <path d="M 64.40625 67.28125 
L 64.40625 56.890625 
Q 59.421875 61.53125 53.78125 63.8125 
Q 48.140625 66.109375 41.796875 66.109375 
Q 29.296875 66.109375 22.65625 58.46875 
Q 16.015625 50.828125 16.015625 36.375 
Q 16.015625 21.96875 22.65625 14.328125 
Q 29.296875 6.6875 41.796875 6.6875 
Q 48.140625 6.6875 53.78125 8.984375 
Q 59.421875 11.28125 64.40625 15.921875 
L 64.40625 5.609375 
Q 59.234375 2.09375 53.4375 0.328125 
Q 47.65625 -1.421875 41.21875 -1.421875 
Q 24.65625 -1.421875 15.125 8.703125 
Q 5.609375 18.84375 5.609375 36.375 
Q 5.609375 53.953125 15.125 64.078125 
Q 24.65625 74.21875 41.21875 74.21875 
Q 47.75 74.21875 53.53125 72.484375 
Q 59.328125 70.75 64.40625 67.28125 
z
" id="DejaVuSans-67"/>
    </defs>
    <g transform="translate(1283.632258 34.56)scale(0.22 -0.22)">
     <use xlink:href="#DejaVuSans-67"/>
     <use x="69.824219" xlink:href="#DejaVuSans-114"/>
     <use x="108.6875" xlink:href="#DejaVuSans-111"/>
     <use x="169.869141" xlink:href="#DejaVuSans-97"/>
     <use x="231.148438" xlink:href="#DejaVuSans-116"/>
     <use x="270.357422" xlink:href="#DejaVuSans-105"/>
     <use x="298.140625" xlink:href="#DejaVuSans-97"/>
    </g>
   </g>
  </g>
  <g id="axes_5">
   <g id="patch_152">
    <path d="M 1662.503226 518.4 
L 1965.6 518.4 
L 1965.6 57.6 
L 1662.503226 57.6 
z
" style="fill:#ffffff;"/>
   </g>
   <g id="patch_153">
    <path clip-path="url(#p99d076bf86)" d="M 1820.113548 518.4 
L 1868.609032 518.4 
L 1868.609032 130.218476 
L 1820.113548 130.218476 
z
" style="fill:#b3e2cd;"/>
   </g>
   <g id="patch_154">
    <path clip-path="url(#p99d076bf86)" d="M 1880.732903 518.4 
L 1929.228387 518.4 
L 1929.228387 164.314536 
L 1880.732903 164.314536 
z
" style="fill:#b3e2cd;"/>
   </g>
   <g id="patch_155">
    <path clip-path="url(#p99d076bf86)" d="M 1820.113548 130.218476 
L 1868.609032 130.218476 
L 1868.609032 79.542857 
L 1820.113548 79.542857 
z
"/>
   </g>
   <g id="patch_156">
    <path clip-path="url(#p99d076bf86)" d="M 1880.732903 164.314536 
L 1929.228387 164.314536 
L 1929.228387 79.542857 
L 1880.732903 79.542857 
z
"/>
   </g>
   <g id="matplotlib.axis_9">
    <g id="xtick_17">
     <g id="line2d_17">
      <g>
       <use style="stroke:#000000;stroke-width:0.8;" x="1723.122581" xlink:href="#m6a57e034b2" y="518.4"/>
      </g>
     </g>
     <g id="text_26">
      <!-- 1990 -->
      <g transform="translate(1710.397581 532.998438)scale(0.1 -0.1)">
       <use xlink:href="#DejaVuSans-49"/>
       <use x="63.623047" xlink:href="#DejaVuSans-57"/>
       <use x="127.246094" xlink:href="#DejaVuSans-57"/>
       <use x="190.869141" xlink:href="#DejaVuSans-48"/>
      </g>
     </g>
    </g>
    <g id="xtick_18">
     <g id="line2d_18">
      <g>
       <use style="stroke:#000000;stroke-width:0.8;" x="1783.741935" xlink:href="#m6a57e034b2" y="518.4"/>
      </g>
     </g>
     <g id="text_27">
      <!-- 2000 -->
      <g transform="translate(1771.016935 532.998438)scale(0.1 -0.1)">
       <use xlink:href="#DejaVuSans-50"/>
       <use x="63.623047" xlink:href="#DejaVuSans-48"/>
       <use x="127.246094" xlink:href="#DejaVuSans-48"/>
       <use x="190.869141" xlink:href="#DejaVuSans-48"/>
      </g>
     </g>
    </g>
    <g id="xtick_19">
     <g id="line2d_19">
      <g>
       <use style="stroke:#000000;stroke-width:0.8;" x="1844.36129" xlink:href="#m6a57e034b2" y="518.4"/>
      </g>
     </g>
     <g id="text_28">
      <!-- 2005 -->
      <g transform="translate(1831.63629 532.998438)scale(0.1 -0.1)">
       <use xlink:href="#DejaVuSans-50"/>
       <use x="63.623047" xlink:href="#DejaVuSans-48"/>
       <use x="127.246094" xlink:href="#DejaVuSans-48"/>
       <use x="190.869141" xlink:href="#DejaVuSans-53"/>
      </g>
     </g>
    </g>
    <g id="xtick_20">
     <g id="line2d_20">
      <g>
       <use style="stroke:#000000;stroke-width:0.8;" x="1904.980645" xlink:href="#m6a57e034b2" y="518.4"/>
      </g>
     </g>
     <g id="text_29">
      <!-- 2010 -->
      <g transform="translate(1892.255645 532.998438)scale(0.1 -0.1)">
       <use xlink:href="#DejaVuSans-50"/>
       <use x="63.623047" xlink:href="#DejaVuSans-48"/>
       <use x="127.246094" xlink:href="#DejaVuSans-49"/>
       <use x="190.869141" xlink:href="#DejaVuSans-48"/>
      </g>
     </g>
    </g>
    <g id="text_30">
     <!-- Year -->
     <g transform="translate(1803.464113 546.676563)scale(0.1 -0.1)">
      <use xlink:href="#DejaVuSans-89"/>
      <use x="47.833984" xlink:href="#DejaVuSans-101"/>
      <use x="109.357422" xlink:href="#DejaVuSans-97"/>
      <use x="170.636719" xlink:href="#DejaVuSans-114"/>
     </g>
    </g>
   </g>
   <g id="matplotlib.axis_10"/>
   <g id="patch_157">
    <path d="M 1662.503226 518.4 
L 1965.6 518.4 
" style="fill:none;stroke:#000000;stroke-linecap:square;stroke-linejoin:miter;stroke-width:0.8;"/>
   </g>
   <g id="text_31">
    <!-- Cyprus -->
    <defs>
     <path d="M 32.171875 -5.078125 
Q 28.375 -14.84375 24.75 -17.8125 
Q 21.140625 -20.796875 15.09375 -20.796875 
L 7.90625 -20.796875 
L 7.90625 -13.28125 
L 13.1875 -13.28125 
Q 16.890625 -13.28125 18.9375 -11.515625 
Q 21 -9.765625 23.484375 -3.21875 
L 25.09375 0.875 
L 2.984375 54.6875 
L 12.5 54.6875 
L 29.59375 11.921875 
L 46.6875 54.6875 
L 56.203125 54.6875 
z
" id="DejaVuSans-121"/>
     <path d="M 18.109375 8.203125 
L 18.109375 -20.796875 
L 9.078125 -20.796875 
L 9.078125 54.6875 
L 18.109375 54.6875 
L 18.109375 46.390625 
Q 20.953125 51.265625 25.265625 53.625 
Q 29.59375 56 35.59375 56 
Q 45.5625 56 51.78125 48.09375 
Q 58.015625 40.1875 58.015625 27.296875 
Q 58.015625 14.40625 51.78125 6.484375 
Q 45.5625 -1.421875 35.59375 -1.421875 
Q 29.59375 -1.421875 25.265625 0.953125 
Q 20.953125 3.328125 18.109375 8.203125 
z
M 48.6875 27.296875 
Q 48.6875 37.203125 44.609375 42.84375 
Q 40.53125 48.484375 33.40625 48.484375 
Q 26.265625 48.484375 22.1875 42.84375 
Q 18.109375 37.203125 18.109375 27.296875 
Q 18.109375 17.390625 22.1875 11.75 
Q 26.265625 6.109375 33.40625 6.109375 
Q 40.53125 6.109375 44.609375 11.75 
Q 48.6875 17.390625 48.6875 27.296875 
z
" id="DejaVuSans-112"/>
    </defs>
    <g transform="translate(1677.658065 34.56)scale(0.22 -0.22)">
     <use xlink:href="#DejaVuSans-67"/>
     <use x="69.824219" xlink:href="#DejaVuSans-121"/>
     <use x="129.003906" xlink:href="#DejaVuSans-112"/>
     <use x="192.480469" xlink:href="#DejaVuSans-114"/>
     <use x="233.59375" xlink:href="#DejaVuSans-117"/>
     <use x="296.972656" xlink:href="#DejaVuSans-115"/>
    </g>
   </g>
  </g>
 </g>
 <defs>
  <clipPath id="p9f1f3464ae">
   <rect height="460.8" width="303.096774" x="86.4" y="57.6"/>
  </clipPath>
  <clipPath id="p4f90c0adf3">
   <rect height="460.8" width="303.096774" x="480.425806" y="57.6"/>
  </clipPath>
  <clipPath id="pf4811bd864">
   <rect height="460.8" width="303.096774" x="874.451613" y="57.6"/>
  </clipPath>
  <clipPath id="p84fc55dc52">
   <rect height="460.8" width="303.096774" x="1268.477419" y="57.6"/>
  </clipPath>
  <clipPath id="p99d076bf86">
   <rect height="460.8" width="303.096774" x="1662.503226" y="57.6"/>
  </clipPath>
 </defs>
</svg>
