<?xml version="1.0" encoding="utf-8" standalone="no"?>
<!DOCTYPE svg PUBLIC "-//W3C//DTD SVG 1.1//EN"
  "http://www.w3.org/Graphics/SVG/1.1/DTD/svg11.dtd">
<!-- Created with matplotlib (https://matplotlib.org/) -->
<svg height="576pt" version="1.1" viewBox="0 0 2160 576" width="2160pt" xmlns="http://www.w3.org/2000/svg" xmlns:xlink="http://www.w3.org/1999/xlink">
 <defs>
  <style type="text/css">
*{stroke-linecap:butt;stroke-linejoin:round;}
  </style>
 </defs>
 <g id="figure_1">
  <g id="patch_1">
   <path d="M 0 576 
L 2160 576 
L 2160 0 
L 0 0 
z
" style="fill:#ffffff;"/>
  </g>
  <g id="axes_1">
   <g id="patch_2">
    <path d="M 86.4 518.4 
L 389.496774 518.4 
L 389.496774 57.6 
L 86.4 57.6 
z
" style="fill:#ffffff;"/>
   </g>
   <g id="patch_3">
    <path clip-path="url(#p0e129109a1)" d="M 122.771613 518.4 
L 171.267097 518.4 
L 171.267097 220.8103 
L 122.771613 220.8103 
z
" style="fill:#b3de69;"/>
   </g>
   <g id="patch_4">
    <path clip-path="url(#p0e129109a1)" d="M 183.390968 518.4 
L 231.886452 518.4 
L 231.886452 228.604144 
L 183.390968 228.604144 
z
" style="fill:#b3de69;"/>
   </g>
   <g id="patch_5">
    <path clip-path="url(#p0e129109a1)" d="M 244.010323 518.4 
L 292.505806 518.4 
L 292.505806 232.325371 
L 244.010323 232.325371 
z
" style="fill:#b3de69;"/>
   </g>
   <g id="patch_6">
    <path clip-path="url(#p0e129109a1)" d="M 304.629677 518.4 
L 353.125161 518.4 
L 353.125161 236.17185 
L 304.629677 236.17185 
z
" style="fill:#b3de69;"/>
   </g>
   <g id="patch_7">
    <path clip-path="url(#p0e129109a1)" d="M 122.771613 220.8103 
L 171.267097 220.8103 
L 171.267097 146.164298 
L 122.771613 146.164298 
z
" style="fill:#b3e2cd;"/>
   </g>
   <g id="patch_8">
    <path clip-path="url(#p0e129109a1)" d="M 183.390968 228.604144 
L 231.886452 228.604144 
L 231.886452 159.828487 
L 183.390968 159.828487 
z
" style="fill:#b3e2cd;"/>
   </g>
   <g id="patch_9">
    <path clip-path="url(#p0e129109a1)" d="M 244.010323 232.325371 
L 292.505806 232.325371 
L 292.505806 164.25641 
L 244.010323 164.25641 
z
" style="fill:#b3e2cd;"/>
   </g>
   <g id="patch_10">
    <path clip-path="url(#p0e129109a1)" d="M 304.629677 236.17185 
L 353.125161 236.17185 
L 353.125161 168.705463 
L 304.629677 168.705463 
z
" style="fill:#b3e2cd;"/>
   </g>
   <g id="patch_11">
    <path clip-path="url(#p0e129109a1)" d="M 122.771613 146.164298 
L 171.267097 146.164298 
L 171.267097 138.237415 
L 122.771613 138.237415 
z
" style="fill:#4daf4a;"/>
   </g>
   <g id="patch_12">
    <path clip-path="url(#p0e129109a1)" d="M 183.390968 159.828487 
L 231.886452 159.828487 
L 231.886452 154.233751 
L 183.390968 154.233751 
z
" style="fill:#4daf4a;"/>
   </g>
   <g id="patch_13">
    <path clip-path="url(#p0e129109a1)" d="M 244.010323 164.25641 
L 292.505806 164.25641 
L 292.505806 158.830498 
L 244.010323 158.830498 
z
" style="fill:#4daf4a;"/>
   </g>
   <g id="patch_14">
    <path clip-path="url(#p0e129109a1)" d="M 304.629677 168.705463 
L 353.125161 168.705463 
L 353.125161 163.32532 
L 304.629677 163.32532 
z
" style="fill:#4daf4a;"/>
   </g>
   <g id="patch_15">
    <path clip-path="url(#p0e129109a1)" d="M 122.771613 138.237415 
L 171.267097 138.237415 
L 171.267097 124.40677 
L 122.771613 124.40677 
z
" style="fill:#cbd5e8;"/>
   </g>
   <g id="patch_16">
    <path clip-path="url(#p0e129109a1)" d="M 183.390968 154.233751 
L 231.886452 154.233751 
L 231.886452 137.582345 
L 183.390968 137.582345 
z
" style="fill:#cbd5e8;"/>
   </g>
   <g id="patch_17">
    <path clip-path="url(#p0e129109a1)" d="M 244.010323 158.830498 
L 292.505806 158.830498 
L 292.505806 140.336629 
L 244.010323 140.336629 
z
" style="fill:#cbd5e8;"/>
   </g>
   <g id="patch_18">
    <path clip-path="url(#p0e129109a1)" d="M 304.629677 163.32532 
L 353.125161 163.32532 
L 353.125161 143.666747 
L 304.629677 143.666747 
z
" style="fill:#cbd5e8;"/>
   </g>
   <g id="patch_19">
    <path clip-path="url(#p0e129109a1)" d="M 122.771613 124.40677 
L 171.267097 124.40677 
L 171.267097 116.563099 
L 122.771613 116.563099 
z
"/>
   </g>
   <g id="patch_20">
    <path clip-path="url(#p0e129109a1)" d="M 183.390968 137.582345 
L 231.886452 137.582345 
L 231.886452 123.875635 
L 183.390968 123.875635 
z
"/>
   </g>
   <g id="patch_21">
    <path clip-path="url(#p0e129109a1)" d="M 244.010323 140.336629 
L 292.505806 140.336629 
L 292.505806 123.732775 
L 244.010323 123.732775 
z
"/>
   </g>
   <g id="patch_22">
    <path clip-path="url(#p0e129109a1)" d="M 304.629677 143.666747 
L 353.125161 143.666747 
L 353.125161 122.528636 
L 304.629677 122.528636 
z
"/>
   </g>
   <g id="patch_23">
    <path clip-path="url(#p0e129109a1)" d="M 122.771613 116.563099 
L 171.267097 116.563099 
L 171.267097 114.059327 
L 122.771613 114.059327 
z
" style="fill:#fdcdac;"/>
   </g>
   <g id="patch_24">
    <path clip-path="url(#p0e129109a1)" d="M 183.390968 123.875635 
L 231.886452 123.875635 
L 231.886452 120.250812 
L 183.390968 120.250812 
z
" style="fill:#fdcdac;"/>
   </g>
   <g id="patch_25">
    <path clip-path="url(#p0e129109a1)" d="M 244.010323 123.732775 
L 292.505806 123.732775 
L 292.505806 119.892369 
L 244.010323 119.892369 
z
" style="fill:#fdcdac;"/>
   </g>
   <g id="patch_26">
    <path clip-path="url(#p0e129109a1)" d="M 304.629677 122.528636 
L 353.125161 122.528636 
L 353.125161 118.445887 
L 304.629677 118.445887 
z
" style="fill:#fdcdac;"/>
   </g>
   <g id="patch_27">
    <path clip-path="url(#p0e129109a1)" d="M 122.771613 114.059327 
L 171.267097 114.059327 
L 171.267097 110.699776 
L 122.771613 110.699776 
z
" style="fill:#fff2ae;"/>
   </g>
   <g id="patch_28">
    <path clip-path="url(#p0e129109a1)" d="M 183.390968 120.250812 
L 231.886452 120.250812 
L 231.886452 116.809262 
L 183.390968 116.809262 
z
" style="fill:#fff2ae;"/>
   </g>
   <g id="patch_29">
    <path clip-path="url(#p0e129109a1)" d="M 244.010323 119.892369 
L 292.505806 119.892369 
L 292.505806 116.168627 
L 244.010323 116.168627 
z
" style="fill:#fff2ae;"/>
   </g>
   <g id="patch_30">
    <path clip-path="url(#p0e129109a1)" d="M 304.629677 118.445887 
L 353.125161 118.445887 
L 353.125161 114.427449 
L 304.629677 114.427449 
z
" style="fill:#fff2ae;"/>
   </g>
   <g id="patch_31">
    <path clip-path="url(#p0e129109a1)" d="M 122.771613 110.699776 
L 171.267097 110.699776 
L 171.267097 107.920617 
L 122.771613 107.920617 
z
" style="fill:#984ea3;"/>
   </g>
   <g id="patch_32">
    <path clip-path="url(#p0e129109a1)" d="M 183.390968 116.809262 
L 231.886452 116.809262 
L 231.886452 113.384315 
L 183.390968 113.384315 
z
" style="fill:#984ea3;"/>
   </g>
   <g id="patch_33">
    <path clip-path="url(#p0e129109a1)" d="M 244.010323 116.168627 
L 292.505806 116.168627 
L 292.505806 112.744871 
L 244.010323 112.744871 
z
" style="fill:#984ea3;"/>
   </g>
   <g id="patch_34">
    <path clip-path="url(#p0e129109a1)" d="M 304.629677 114.427449 
L 353.125161 114.427449 
L 353.125161 110.952037 
L 304.629677 110.952037 
z
" style="fill:#984ea3;"/>
   </g>
   <g id="patch_35">
    <path clip-path="url(#p0e129109a1)" d="M 122.771613 107.920617 
L 171.267097 107.920617 
L 171.267097 103.55932 
L 122.771613 103.55932 
z
" style="fill:#ff7f00;"/>
   </g>
   <g id="patch_36">
    <path clip-path="url(#p0e129109a1)" d="M 183.390968 113.384315 
L 231.886452 113.384315 
L 231.886452 107.106303 
L 183.390968 107.106303 
z
" style="fill:#ff7f00;"/>
   </g>
   <g id="patch_37">
    <path clip-path="url(#p0e129109a1)" d="M 244.010323 112.744871 
L 292.505806 112.744871 
L 292.505806 106.662492 
L 244.010323 106.662492 
z
" style="fill:#ff7f00;"/>
   </g>
   <g id="patch_38">
    <path clip-path="url(#p0e129109a1)" d="M 304.629677 110.952037 
L 353.125161 110.952037 
L 353.125161 104.877201 
L 304.629677 104.877201 
z
" style="fill:#ff7f00;"/>
   </g>
   <g id="patch_39">
    <path clip-path="url(#p0e129109a1)" d="M 122.771613 103.55932 
L 171.267097 103.55932 
L 171.267097 82.941113 
L 122.771613 82.941113 
z
" style="fill:#e41a1c;"/>
   </g>
   <g id="patch_40">
    <path clip-path="url(#p0e129109a1)" d="M 183.390968 107.106303 
L 231.886452 107.106303 
L 231.886452 85.920768 
L 183.390968 85.920768 
z
" style="fill:#e41a1c;"/>
   </g>
   <g id="patch_41">
    <path clip-path="url(#p0e129109a1)" d="M 244.010323 106.662492 
L 292.505806 106.662492 
L 292.505806 86.99558 
L 244.010323 86.99558 
z
" style="fill:#e41a1c;"/>
   </g>
   <g id="patch_42">
    <path clip-path="url(#p0e129109a1)" d="M 304.629677 104.877201 
L 353.125161 104.877201 
L 353.125161 87.948742 
L 304.629677 87.948742 
z
" style="fill:#e41a1c;"/>
   </g>
   <g id="patch_43">
    <path clip-path="url(#p0e129109a1)" d="M 122.771613 82.941113 
L 171.267097 82.941113 
L 171.267097 57.6 
L 122.771613 57.6 
z
" style="fill:#377eb8;"/>
   </g>
   <g id="patch_44">
    <path clip-path="url(#p0e129109a1)" d="M 183.390968 85.920768 
L 231.886452 85.920768 
L 231.886452 57.6 
L 183.390968 57.6 
z
" style="fill:#377eb8;"/>
   </g>
   <g id="patch_45">
    <path clip-path="url(#p0e129109a1)" d="M 244.010323 86.99558 
L 292.505806 86.99558 
L 292.505806 57.6 
L 244.010323 57.6 
z
" style="fill:#377eb8;"/>
   </g>
   <g id="patch_46">
    <path clip-path="url(#p0e129109a1)" d="M 304.629677 87.948742 
L 353.125161 87.948742 
L 353.125161 57.6 
L 304.629677 57.6 
z
" style="fill:#377eb8;"/>
   </g>
   <g id="matplotlib.axis_1">
    <g id="xtick_1">
     <g id="line2d_1">
      <defs>
       <path d="M 0 0 
L 0 3.5 
" id="me9a742ba42" style="stroke:#000000;stroke-width:0.8;"/>
      </defs>
      <g>
       <use style="stroke:#000000;stroke-width:0.8;" x="147.019355" xlink:href="#me9a742ba42" y="518.4"/>
      </g>
     </g>
     <g id="text_1">
      <!-- 1990 -->
      <defs>
       <path d="M 12.40625 8.296875 
L 28.515625 8.296875 
L 28.515625 63.921875 
L 10.984375 60.40625 
L 10.984375 69.390625 
L 28.421875 72.90625 
L 38.28125 72.90625 
L 38.28125 8.296875 
L 54.390625 8.296875 
L 54.390625 0 
L 12.40625 0 
z
" id="DejaVuSans-49"/>
       <path d="M 10.984375 1.515625 
L 10.984375 10.5 
Q 14.703125 8.734375 18.5 7.8125 
Q 22.3125 6.890625 25.984375 6.890625 
Q 35.75 6.890625 40.890625 13.453125 
Q 46.046875 20.015625 46.78125 33.40625 
Q 43.953125 29.203125 39.59375 26.953125 
Q 35.25 24.703125 29.984375 24.703125 
Q 19.046875 24.703125 12.671875 31.3125 
Q 6.296875 37.9375 6.296875 49.421875 
Q 6.296875 60.640625 12.9375 67.421875 
Q 19.578125 74.21875 30.609375 74.21875 
Q 43.265625 74.21875 49.921875 64.515625 
Q 56.59375 54.828125 56.59375 36.375 
Q 56.59375 19.140625 48.40625 8.859375 
Q 40.234375 -1.421875 26.421875 -1.421875 
Q 22.703125 -1.421875 18.890625 -0.6875 
Q 15.09375 0.046875 10.984375 1.515625 
z
M 30.609375 32.421875 
Q 37.25 32.421875 41.125 36.953125 
Q 45.015625 41.5 45.015625 49.421875 
Q 45.015625 57.28125 41.125 61.84375 
Q 37.25 66.40625 30.609375 66.40625 
Q 23.96875 66.40625 20.09375 61.84375 
Q 16.21875 57.28125 16.21875 49.421875 
Q 16.21875 41.5 20.09375 36.953125 
Q 23.96875 32.421875 30.609375 32.421875 
z
" id="DejaVuSans-57"/>
       <path d="M 31.78125 66.40625 
Q 24.171875 66.40625 20.328125 58.90625 
Q 16.5 51.421875 16.5 36.375 
Q 16.5 21.390625 20.328125 13.890625 
Q 24.171875 6.390625 31.78125 6.390625 
Q 39.453125 6.390625 43.28125 13.890625 
Q 47.125 21.390625 47.125 36.375 
Q 47.125 51.421875 43.28125 58.90625 
Q 39.453125 66.40625 31.78125 66.40625 
z
M 31.78125 74.21875 
Q 44.046875 74.21875 50.515625 64.515625 
Q 56.984375 54.828125 56.984375 36.375 
Q 56.984375 17.96875 50.515625 8.265625 
Q 44.046875 -1.421875 31.78125 -1.421875 
Q 19.53125 -1.421875 13.0625 8.265625 
Q 6.59375 17.96875 6.59375 36.375 
Q 6.59375 54.828125 13.0625 64.515625 
Q 19.53125 74.21875 31.78125 74.21875 
z
" id="DejaVuSans-48"/>
      </defs>
      <g transform="translate(134.294355 532.998438)scale(0.1 -0.1)">
       <use xlink:href="#DejaVuSans-49"/>
       <use x="63.623047" xlink:href="#DejaVuSans-57"/>
       <use x="127.246094" xlink:href="#DejaVuSans-57"/>
       <use x="190.869141" xlink:href="#DejaVuSans-48"/>
      </g>
     </g>
    </g>
    <g id="xtick_2">
     <g id="line2d_2">
      <g>
       <use style="stroke:#000000;stroke-width:0.8;" x="207.63871" xlink:href="#me9a742ba42" y="518.4"/>
      </g>
     </g>
     <g id="text_2">
      <!-- 2000 -->
      <defs>
       <path d="M 19.1875 8.296875 
L 53.609375 8.296875 
L 53.609375 0 
L 7.328125 0 
L 7.328125 8.296875 
Q 12.9375 14.109375 22.625 23.890625 
Q 32.328125 33.6875 34.8125 36.53125 
Q 39.546875 41.84375 41.421875 45.53125 
Q 43.3125 49.21875 43.3125 52.78125 
Q 43.3125 58.59375 39.234375 62.25 
Q 35.15625 65.921875 28.609375 65.921875 
Q 23.96875 65.921875 18.8125 64.3125 
Q 13.671875 62.703125 7.8125 59.421875 
L 7.8125 69.390625 
Q 13.765625 71.78125 18.9375 73 
Q 24.125 74.21875 28.421875 74.21875 
Q 39.75 74.21875 46.484375 68.546875 
Q 53.21875 62.890625 53.21875 53.421875 
Q 53.21875 48.921875 51.53125 44.890625 
Q 49.859375 40.875 45.40625 35.40625 
Q 44.1875 33.984375 37.640625 27.21875 
Q 31.109375 20.453125 19.1875 8.296875 
z
" id="DejaVuSans-50"/>
      </defs>
      <g transform="translate(194.91371 532.998438)scale(0.1 -0.1)">
       <use xlink:href="#DejaVuSans-50"/>
       <use x="63.623047" xlink:href="#DejaVuSans-48"/>
       <use x="127.246094" xlink:href="#DejaVuSans-48"/>
       <use x="190.869141" xlink:href="#DejaVuSans-48"/>
      </g>
     </g>
    </g>
    <g id="xtick_3">
     <g id="line2d_3">
      <g>
       <use style="stroke:#000000;stroke-width:0.8;" x="268.258065" xlink:href="#me9a742ba42" y="518.4"/>
      </g>
     </g>
     <g id="text_3">
      <!-- 2005 -->
      <defs>
       <path d="M 10.796875 72.90625 
L 49.515625 72.90625 
L 49.515625 64.59375 
L 19.828125 64.59375 
L 19.828125 46.734375 
Q 21.96875 47.46875 24.109375 47.828125 
Q 26.265625 48.1875 28.421875 48.1875 
Q 40.625 48.1875 47.75 41.5 
Q 54.890625 34.8125 54.890625 23.390625 
Q 54.890625 11.625 47.5625 5.09375 
Q 40.234375 -1.421875 26.90625 -1.421875 
Q 22.3125 -1.421875 17.546875 -0.640625 
Q 12.796875 0.140625 7.71875 1.703125 
L 7.71875 11.625 
Q 12.109375 9.234375 16.796875 8.0625 
Q 21.484375 6.890625 26.703125 6.890625 
Q 35.15625 6.890625 40.078125 11.328125 
Q 45.015625 15.765625 45.015625 23.390625 
Q 45.015625 31 40.078125 35.4375 
Q 35.15625 39.890625 26.703125 39.890625 
Q 22.75 39.890625 18.8125 39.015625 
Q 14.890625 38.140625 10.796875 36.28125 
z
" id="DejaVuSans-53"/>
      </defs>
      <g transform="translate(255.533065 532.998438)scale(0.1 -0.1)">
       <use xlink:href="#DejaVuSans-50"/>
       <use x="63.623047" xlink:href="#DejaVuSans-48"/>
       <use x="127.246094" xlink:href="#DejaVuSans-48"/>
       <use x="190.869141" xlink:href="#DejaVuSans-53"/>
      </g>
     </g>
    </g>
    <g id="xtick_4">
     <g id="line2d_4">
      <g>
       <use style="stroke:#000000;stroke-width:0.8;" x="328.877419" xlink:href="#me9a742ba42" y="518.4"/>
      </g>
     </g>
     <g id="text_4">
      <!-- 2010 -->
      <g transform="translate(316.152419 532.998438)scale(0.1 -0.1)">
       <use xlink:href="#DejaVuSans-50"/>
       <use x="63.623047" xlink:href="#DejaVuSans-48"/>
       <use x="127.246094" xlink:href="#DejaVuSans-49"/>
       <use x="190.869141" xlink:href="#DejaVuSans-48"/>
      </g>
     </g>
    </g>
    <g id="text_5">
     <!-- Year -->
     <defs>
      <path d="M -0.203125 72.90625 
L 10.40625 72.90625 
L 30.609375 42.921875 
L 50.6875 72.90625 
L 61.28125 72.90625 
L 35.5 34.71875 
L 35.5 0 
L 25.59375 0 
L 25.59375 34.71875 
z
" id="DejaVuSans-89"/>
      <path d="M 56.203125 29.59375 
L 56.203125 25.203125 
L 14.890625 25.203125 
Q 15.484375 15.921875 20.484375 11.0625 
Q 25.484375 6.203125 34.421875 6.203125 
Q 39.59375 6.203125 44.453125 7.46875 
Q 49.3125 8.734375 54.109375 11.28125 
L 54.109375 2.78125 
Q 49.265625 0.734375 44.1875 -0.34375 
Q 39.109375 -1.421875 33.890625 -1.421875 
Q 20.796875 -1.421875 13.15625 6.1875 
Q 5.515625 13.8125 5.515625 26.8125 
Q 5.515625 40.234375 12.765625 48.109375 
Q 20.015625 56 32.328125 56 
Q 43.359375 56 49.78125 48.890625 
Q 56.203125 41.796875 56.203125 29.59375 
z
M 47.21875 32.234375 
Q 47.125 39.59375 43.09375 43.984375 
Q 39.0625 48.390625 32.421875 48.390625 
Q 24.90625 48.390625 20.390625 44.140625 
Q 15.875 39.890625 15.1875 32.171875 
z
" id="DejaVuSans-101"/>
      <path d="M 34.28125 27.484375 
Q 23.390625 27.484375 19.1875 25 
Q 14.984375 22.515625 14.984375 16.5 
Q 14.984375 11.71875 18.140625 8.90625 
Q 21.296875 6.109375 26.703125 6.109375 
Q 34.1875 6.109375 38.703125 11.40625 
Q 43.21875 16.703125 43.21875 25.484375 
L 43.21875 27.484375 
z
M 52.203125 31.203125 
L 52.203125 0 
L 43.21875 0 
L 43.21875 8.296875 
Q 40.140625 3.328125 35.546875 0.953125 
Q 30.953125 -1.421875 24.3125 -1.421875 
Q 15.921875 -1.421875 10.953125 3.296875 
Q 6 8.015625 6 15.921875 
Q 6 25.140625 12.171875 29.828125 
Q 18.359375 34.515625 30.609375 34.515625 
L 43.21875 34.515625 
L 43.21875 35.40625 
Q 43.21875 41.609375 39.140625 45 
Q 35.0625 48.390625 27.6875 48.390625 
Q 23 48.390625 18.546875 47.265625 
Q 14.109375 46.140625 10.015625 43.890625 
L 10.015625 52.203125 
Q 14.9375 54.109375 19.578125 55.046875 
Q 24.21875 56 28.609375 56 
Q 40.484375 56 46.34375 49.84375 
Q 52.203125 43.703125 52.203125 31.203125 
z
" id="DejaVuSans-97"/>
      <path d="M 41.109375 46.296875 
Q 39.59375 47.171875 37.8125 47.578125 
Q 36.03125 48 33.890625 48 
Q 26.265625 48 22.1875 43.046875 
Q 18.109375 38.09375 18.109375 28.8125 
L 18.109375 0 
L 9.078125 0 
L 9.078125 54.6875 
L 18.109375 54.6875 
L 18.109375 46.1875 
Q 20.953125 51.171875 25.484375 53.578125 
Q 30.03125 56 36.53125 56 
Q 37.453125 56 38.578125 55.875 
Q 39.703125 55.765625 41.0625 55.515625 
z
" id="DejaVuSans-114"/>
     </defs>
     <g transform="translate(227.360887 546.676563)scale(0.1 -0.1)">
      <use xlink:href="#DejaVuSans-89"/>
      <use x="47.833984" xlink:href="#DejaVuSans-101"/>
      <use x="109.357422" xlink:href="#DejaVuSans-97"/>
      <use x="170.636719" xlink:href="#DejaVuSans-114"/>
     </g>
    </g>
   </g>
   <g id="matplotlib.axis_2">
    <g id="text_6">
     <!-- Fraction of growing stock volume -->
     <defs>
      <path d="M 9.8125 72.90625 
L 51.703125 72.90625 
L 51.703125 64.59375 
L 19.671875 64.59375 
L 19.671875 43.109375 
L 48.578125 43.109375 
L 48.578125 34.8125 
L 19.671875 34.8125 
L 19.671875 0 
L 9.8125 0 
z
" id="DejaVuSans-70"/>
      <path d="M 48.78125 52.59375 
L 48.78125 44.1875 
Q 44.96875 46.296875 41.140625 47.34375 
Q 37.3125 48.390625 33.40625 48.390625 
Q 24.65625 48.390625 19.8125 42.84375 
Q 14.984375 37.3125 14.984375 27.296875 
Q 14.984375 17.28125 19.8125 11.734375 
Q 24.65625 6.203125 33.40625 6.203125 
Q 37.3125 6.203125 41.140625 7.25 
Q 44.96875 8.296875 48.78125 10.40625 
L 48.78125 2.09375 
Q 45.015625 0.34375 40.984375 -0.53125 
Q 36.96875 -1.421875 32.421875 -1.421875 
Q 20.0625 -1.421875 12.78125 6.34375 
Q 5.515625 14.109375 5.515625 27.296875 
Q 5.515625 40.671875 12.859375 48.328125 
Q 20.21875 56 33.015625 56 
Q 37.15625 56 41.109375 55.140625 
Q 45.0625 54.296875 48.78125 52.59375 
z
" id="DejaVuSans-99"/>
      <path d="M 18.3125 70.21875 
L 18.3125 54.6875 
L 36.8125 54.6875 
L 36.8125 47.703125 
L 18.3125 47.703125 
L 18.3125 18.015625 
Q 18.3125 11.328125 20.140625 9.421875 
Q 21.96875 7.515625 27.59375 7.515625 
L 36.8125 7.515625 
L 36.8125 0 
L 27.59375 0 
Q 17.1875 0 13.234375 3.875 
Q 9.28125 7.765625 9.28125 18.015625 
L 9.28125 47.703125 
L 2.6875 47.703125 
L 2.6875 54.6875 
L 9.28125 54.6875 
L 9.28125 70.21875 
z
" id="DejaVuSans-116"/>
      <path d="M 9.421875 54.6875 
L 18.40625 54.6875 
L 18.40625 0 
L 9.421875 0 
z
M 9.421875 75.984375 
L 18.40625 75.984375 
L 18.40625 64.59375 
L 9.421875 64.59375 
z
" id="DejaVuSans-105"/>
      <path d="M 30.609375 48.390625 
Q 23.390625 48.390625 19.1875 42.75 
Q 14.984375 37.109375 14.984375 27.296875 
Q 14.984375 17.484375 19.15625 11.84375 
Q 23.34375 6.203125 30.609375 6.203125 
Q 37.796875 6.203125 41.984375 11.859375 
Q 46.1875 17.53125 46.1875 27.296875 
Q 46.1875 37.015625 41.984375 42.703125 
Q 37.796875 48.390625 30.609375 48.390625 
z
M 30.609375 56 
Q 42.328125 56 49.015625 48.375 
Q 55.71875 40.765625 55.71875 27.296875 
Q 55.71875 13.875 49.015625 6.21875 
Q 42.328125 -1.421875 30.609375 -1.421875 
Q 18.84375 -1.421875 12.171875 6.21875 
Q 5.515625 13.875 5.515625 27.296875 
Q 5.515625 40.765625 12.171875 48.375 
Q 18.84375 56 30.609375 56 
z
" id="DejaVuSans-111"/>
      <path d="M 54.890625 33.015625 
L 54.890625 0 
L 45.90625 0 
L 45.90625 32.71875 
Q 45.90625 40.484375 42.875 44.328125 
Q 39.84375 48.1875 33.796875 48.1875 
Q 26.515625 48.1875 22.3125 43.546875 
Q 18.109375 38.921875 18.109375 30.90625 
L 18.109375 0 
L 9.078125 0 
L 9.078125 54.6875 
L 18.109375 54.6875 
L 18.109375 46.1875 
Q 21.34375 51.125 25.703125 53.5625 
Q 30.078125 56 35.796875 56 
Q 45.21875 56 50.046875 50.171875 
Q 54.890625 44.34375 54.890625 33.015625 
z
" id="DejaVuSans-110"/>
      <path id="DejaVuSans-32"/>
      <path d="M 37.109375 75.984375 
L 37.109375 68.5 
L 28.515625 68.5 
Q 23.6875 68.5 21.796875 66.546875 
Q 19.921875 64.59375 19.921875 59.515625 
L 19.921875 54.6875 
L 34.71875 54.6875 
L 34.71875 47.703125 
L 19.921875 47.703125 
L 19.921875 0 
L 10.890625 0 
L 10.890625 47.703125 
L 2.296875 47.703125 
L 2.296875 54.6875 
L 10.890625 54.6875 
L 10.890625 58.5 
Q 10.890625 67.625 15.140625 71.796875 
Q 19.390625 75.984375 28.609375 75.984375 
z
" id="DejaVuSans-102"/>
      <path d="M 45.40625 27.984375 
Q 45.40625 37.75 41.375 43.109375 
Q 37.359375 48.484375 30.078125 48.484375 
Q 22.859375 48.484375 18.828125 43.109375 
Q 14.796875 37.75 14.796875 27.984375 
Q 14.796875 18.265625 18.828125 12.890625 
Q 22.859375 7.515625 30.078125 7.515625 
Q 37.359375 7.515625 41.375 12.890625 
Q 45.40625 18.265625 45.40625 27.984375 
z
M 54.390625 6.78125 
Q 54.390625 -7.171875 48.1875 -13.984375 
Q 42 -20.796875 29.203125 -20.796875 
Q 24.46875 -20.796875 20.265625 -20.09375 
Q 16.0625 -19.390625 12.109375 -17.921875 
L 12.109375 -9.1875 
Q 16.0625 -11.328125 19.921875 -12.34375 
Q 23.78125 -13.375 27.78125 -13.375 
Q 36.625 -13.375 41.015625 -8.765625 
Q 45.40625 -4.15625 45.40625 5.171875 
L 45.40625 9.625 
Q 42.625 4.78125 38.28125 2.390625 
Q 33.9375 0 27.875 0 
Q 17.828125 0 11.671875 7.65625 
Q 5.515625 15.328125 5.515625 27.984375 
Q 5.515625 40.671875 11.671875 48.328125 
Q 17.828125 56 27.875 56 
Q 33.9375 56 38.28125 53.609375 
Q 42.625 51.21875 45.40625 46.390625 
L 45.40625 54.6875 
L 54.390625 54.6875 
z
" id="DejaVuSans-103"/>
      <path d="M 4.203125 54.6875 
L 13.1875 54.6875 
L 24.421875 12.015625 
L 35.59375 54.6875 
L 46.1875 54.6875 
L 57.421875 12.015625 
L 68.609375 54.6875 
L 77.59375 54.6875 
L 63.28125 0 
L 52.6875 0 
L 40.921875 44.828125 
L 29.109375 0 
L 18.5 0 
z
" id="DejaVuSans-119"/>
      <path d="M 44.28125 53.078125 
L 44.28125 44.578125 
Q 40.484375 46.53125 36.375 47.5 
Q 32.28125 48.484375 27.875 48.484375 
Q 21.1875 48.484375 17.84375 46.4375 
Q 14.5 44.390625 14.5 40.28125 
Q 14.5 37.15625 16.890625 35.375 
Q 19.28125 33.59375 26.515625 31.984375 
L 29.59375 31.296875 
Q 39.15625 29.25 43.1875 25.515625 
Q 47.21875 21.78125 47.21875 15.09375 
Q 47.21875 7.46875 41.1875 3.015625 
Q 35.15625 -1.421875 24.609375 -1.421875 
Q 20.21875 -1.421875 15.453125 -0.5625 
Q 10.6875 0.296875 5.421875 2 
L 5.421875 11.28125 
Q 10.40625 8.6875 15.234375 7.390625 
Q 20.0625 6.109375 24.8125 6.109375 
Q 31.15625 6.109375 34.5625 8.28125 
Q 37.984375 10.453125 37.984375 14.40625 
Q 37.984375 18.0625 35.515625 20.015625 
Q 33.0625 21.96875 24.703125 23.78125 
L 21.578125 24.515625 
Q 13.234375 26.265625 9.515625 29.90625 
Q 5.8125 33.546875 5.8125 39.890625 
Q 5.8125 47.609375 11.28125 51.796875 
Q 16.75 56 26.8125 56 
Q 31.78125 56 36.171875 55.265625 
Q 40.578125 54.546875 44.28125 53.078125 
z
" id="DejaVuSans-115"/>
      <path d="M 9.078125 75.984375 
L 18.109375 75.984375 
L 18.109375 31.109375 
L 44.921875 54.6875 
L 56.390625 54.6875 
L 27.390625 29.109375 
L 57.625 0 
L 45.90625 0 
L 18.109375 26.703125 
L 18.109375 0 
L 9.078125 0 
z
" id="DejaVuSans-107"/>
      <path d="M 2.984375 54.6875 
L 12.5 54.6875 
L 29.59375 8.796875 
L 46.6875 54.6875 
L 56.203125 54.6875 
L 35.6875 0 
L 23.484375 0 
z
" id="DejaVuSans-118"/>
      <path d="M 9.421875 75.984375 
L 18.40625 75.984375 
L 18.40625 0 
L 9.421875 0 
z
" id="DejaVuSans-108"/>
      <path d="M 8.5 21.578125 
L 8.5 54.6875 
L 17.484375 54.6875 
L 17.484375 21.921875 
Q 17.484375 14.15625 20.5 10.265625 
Q 23.53125 6.390625 29.59375 6.390625 
Q 36.859375 6.390625 41.078125 11.03125 
Q 45.3125 15.671875 45.3125 23.6875 
L 45.3125 54.6875 
L 54.296875 54.6875 
L 54.296875 0 
L 45.3125 0 
L 45.3125 8.40625 
Q 42.046875 3.421875 37.71875 1 
Q 33.40625 -1.421875 27.6875 -1.421875 
Q 18.265625 -1.421875 13.375 4.4375 
Q 8.5 10.296875 8.5 21.578125 
z
M 31.109375 56 
z
" id="DejaVuSans-117"/>
      <path d="M 52 44.1875 
Q 55.375 50.25 60.0625 53.125 
Q 64.75 56 71.09375 56 
Q 79.640625 56 84.28125 50.015625 
Q 88.921875 44.046875 88.921875 33.015625 
L 88.921875 0 
L 79.890625 0 
L 79.890625 32.71875 
Q 79.890625 40.578125 77.09375 44.375 
Q 74.3125 48.1875 68.609375 48.1875 
Q 61.625 48.1875 57.5625 43.546875 
Q 53.515625 38.921875 53.515625 30.90625 
L 53.515625 0 
L 44.484375 0 
L 44.484375 32.71875 
Q 44.484375 40.625 41.703125 44.40625 
Q 38.921875 48.1875 33.109375 48.1875 
Q 26.21875 48.1875 22.15625 43.53125 
Q 18.109375 38.875 18.109375 30.90625 
L 18.109375 0 
L 9.078125 0 
L 9.078125 54.6875 
L 18.109375 54.6875 
L 18.109375 46.1875 
Q 21.1875 51.21875 25.484375 53.609375 
Q 29.78125 56 35.6875 56 
Q 41.65625 56 45.828125 52.96875 
Q 50 49.953125 52 44.1875 
z
" id="DejaVuSans-109"/>
     </defs>
     <g transform="translate(79.904375 387.51)rotate(-90)scale(0.12 -0.12)">
      <use xlink:href="#DejaVuSans-70"/>
      <use x="50.269531" xlink:href="#DejaVuSans-114"/>
      <use x="91.382812" xlink:href="#DejaVuSans-97"/>
      <use x="152.662109" xlink:href="#DejaVuSans-99"/>
      <use x="207.642578" xlink:href="#DejaVuSans-116"/>
      <use x="246.851562" xlink:href="#DejaVuSans-105"/>
      <use x="274.634766" xlink:href="#DejaVuSans-111"/>
      <use x="335.816406" xlink:href="#DejaVuSans-110"/>
      <use x="399.195312" xlink:href="#DejaVuSans-32"/>
      <use x="430.982422" xlink:href="#DejaVuSans-111"/>
      <use x="492.164062" xlink:href="#DejaVuSans-102"/>
      <use x="527.369141" xlink:href="#DejaVuSans-32"/>
      <use x="559.15625" xlink:href="#DejaVuSans-103"/>
      <use x="622.632812" xlink:href="#DejaVuSans-114"/>
      <use x="661.496094" xlink:href="#DejaVuSans-111"/>
      <use x="722.677734" xlink:href="#DejaVuSans-119"/>
      <use x="804.464844" xlink:href="#DejaVuSans-105"/>
      <use x="832.248047" xlink:href="#DejaVuSans-110"/>
      <use x="895.626953" xlink:href="#DejaVuSans-103"/>
      <use x="959.103516" xlink:href="#DejaVuSans-32"/>
      <use x="990.890625" xlink:href="#DejaVuSans-115"/>
      <use x="1042.990234" xlink:href="#DejaVuSans-116"/>
      <use x="1082.199219" xlink:href="#DejaVuSans-111"/>
      <use x="1143.380859" xlink:href="#DejaVuSans-99"/>
      <use x="1198.361328" xlink:href="#DejaVuSans-107"/>
      <use x="1256.271484" xlink:href="#DejaVuSans-32"/>
      <use x="1288.058594" xlink:href="#DejaVuSans-118"/>
      <use x="1347.238281" xlink:href="#DejaVuSans-111"/>
      <use x="1408.419922" xlink:href="#DejaVuSans-108"/>
      <use x="1436.203125" xlink:href="#DejaVuSans-117"/>
      <use x="1499.582031" xlink:href="#DejaVuSans-109"/>
      <use x="1596.994141" xlink:href="#DejaVuSans-101"/>
     </g>
    </g>
   </g>
   <g id="patch_47">
    <path d="M 86.4 518.4 
L 389.496774 518.4 
" style="fill:none;stroke:#000000;stroke-linecap:square;stroke-linejoin:miter;stroke-width:0.8;"/>
   </g>
   <g id="text_7">
    <!-- Czech Republic -->
    <defs>
     <path d="M 64.40625 67.28125 
L 64.40625 56.890625 
Q 59.421875 61.53125 53.78125 63.8125 
Q 48.140625 66.109375 41.796875 66.109375 
Q 29.296875 66.109375 22.65625 58.46875 
Q 16.015625 50.828125 16.015625 36.375 
Q 16.015625 21.96875 22.65625 14.328125 
Q 29.296875 6.6875 41.796875 6.6875 
Q 48.140625 6.6875 53.78125 8.984375 
Q 59.421875 11.28125 64.40625 15.921875 
L 64.40625 5.609375 
Q 59.234375 2.09375 53.4375 0.328125 
Q 47.65625 -1.421875 41.21875 -1.421875 
Q 24.65625 -1.421875 15.125 8.703125 
Q 5.609375 18.84375 5.609375 36.375 
Q 5.609375 53.953125 15.125 64.078125 
Q 24.65625 74.21875 41.21875 74.21875 
Q 47.75 74.21875 53.53125 72.484375 
Q 59.328125 70.75 64.40625 67.28125 
z
" id="DejaVuSans-67"/>
     <path d="M 5.515625 54.6875 
L 48.1875 54.6875 
L 48.1875 46.484375 
L 14.40625 7.171875 
L 48.1875 7.171875 
L 48.1875 0 
L 4.296875 0 
L 4.296875 8.203125 
L 38.09375 47.515625 
L 5.515625 47.515625 
z
" id="DejaVuSans-122"/>
     <path d="M 54.890625 33.015625 
L 54.890625 0 
L 45.90625 0 
L 45.90625 32.71875 
Q 45.90625 40.484375 42.875 44.328125 
Q 39.84375 48.1875 33.796875 48.1875 
Q 26.515625 48.1875 22.3125 43.546875 
Q 18.109375 38.921875 18.109375 30.90625 
L 18.109375 0 
L 9.078125 0 
L 9.078125 75.984375 
L 18.109375 75.984375 
L 18.109375 46.1875 
Q 21.34375 51.125 25.703125 53.5625 
Q 30.078125 56 35.796875 56 
Q 45.21875 56 50.046875 50.171875 
Q 54.890625 44.34375 54.890625 33.015625 
z
" id="DejaVuSans-104"/>
     <path d="M 44.390625 34.1875 
Q 47.5625 33.109375 50.5625 29.59375 
Q 53.5625 26.078125 56.59375 19.921875 
L 66.609375 0 
L 56 0 
L 46.6875 18.703125 
Q 43.0625 26.03125 39.671875 28.421875 
Q 36.28125 30.8125 30.421875 30.8125 
L 19.671875 30.8125 
L 19.671875 0 
L 9.8125 0 
L 9.8125 72.90625 
L 32.078125 72.90625 
Q 44.578125 72.90625 50.734375 67.671875 
Q 56.890625 62.453125 56.890625 51.90625 
Q 56.890625 45.015625 53.6875 40.46875 
Q 50.484375 35.9375 44.390625 34.1875 
z
M 19.671875 64.796875 
L 19.671875 38.921875 
L 32.078125 38.921875 
Q 39.203125 38.921875 42.84375 42.21875 
Q 46.484375 45.515625 46.484375 51.90625 
Q 46.484375 58.296875 42.84375 61.546875 
Q 39.203125 64.796875 32.078125 64.796875 
z
" id="DejaVuSans-82"/>
     <path d="M 18.109375 8.203125 
L 18.109375 -20.796875 
L 9.078125 -20.796875 
L 9.078125 54.6875 
L 18.109375 54.6875 
L 18.109375 46.390625 
Q 20.953125 51.265625 25.265625 53.625 
Q 29.59375 56 35.59375 56 
Q 45.5625 56 51.78125 48.09375 
Q 58.015625 40.1875 58.015625 27.296875 
Q 58.015625 14.40625 51.78125 6.484375 
Q 45.5625 -1.421875 35.59375 -1.421875 
Q 29.59375 -1.421875 25.265625 0.953125 
Q 20.953125 3.328125 18.109375 8.203125 
z
M 48.6875 27.296875 
Q 48.6875 37.203125 44.609375 42.84375 
Q 40.53125 48.484375 33.40625 48.484375 
Q 26.265625 48.484375 22.1875 42.84375 
Q 18.109375 37.203125 18.109375 27.296875 
Q 18.109375 17.390625 22.1875 11.75 
Q 26.265625 6.109375 33.40625 6.109375 
Q 40.53125 6.109375 44.609375 11.75 
Q 48.6875 17.390625 48.6875 27.296875 
z
" id="DejaVuSans-112"/>
     <path d="M 48.6875 27.296875 
Q 48.6875 37.203125 44.609375 42.84375 
Q 40.53125 48.484375 33.40625 48.484375 
Q 26.265625 48.484375 22.1875 42.84375 
Q 18.109375 37.203125 18.109375 27.296875 
Q 18.109375 17.390625 22.1875 11.75 
Q 26.265625 6.109375 33.40625 6.109375 
Q 40.53125 6.109375 44.609375 11.75 
Q 48.6875 17.390625 48.6875 27.296875 
z
M 18.109375 46.390625 
Q 20.953125 51.265625 25.265625 53.625 
Q 29.59375 56 35.59375 56 
Q 45.5625 56 51.78125 48.09375 
Q 58.015625 40.1875 58.015625 27.296875 
Q 58.015625 14.40625 51.78125 6.484375 
Q 45.5625 -1.421875 35.59375 -1.421875 
Q 29.59375 -1.421875 25.265625 0.953125 
Q 20.953125 3.328125 18.109375 8.203125 
L 18.109375 0 
L 9.078125 0 
L 9.078125 75.984375 
L 18.109375 75.984375 
z
" id="DejaVuSans-98"/>
    </defs>
    <g transform="translate(101.554839 34.56)scale(0.22 -0.22)">
     <use xlink:href="#DejaVuSans-67"/>
     <use x="69.824219" xlink:href="#DejaVuSans-122"/>
     <use x="122.314453" xlink:href="#DejaVuSans-101"/>
     <use x="183.837891" xlink:href="#DejaVuSans-99"/>
     <use x="238.818359" xlink:href="#DejaVuSans-104"/>
     <use x="302.197266" xlink:href="#DejaVuSans-32"/>
     <use x="333.984375" xlink:href="#DejaVuSans-82"/>
     <use x="398.966797" xlink:href="#DejaVuSans-101"/>
     <use x="460.490234" xlink:href="#DejaVuSans-112"/>
     <use x="523.966797" xlink:href="#DejaVuSans-117"/>
     <use x="587.345703" xlink:href="#DejaVuSans-98"/>
     <use x="650.822266" xlink:href="#DejaVuSans-108"/>
     <use x="678.605469" xlink:href="#DejaVuSans-105"/>
     <use x="706.388672" xlink:href="#DejaVuSans-99"/>
    </g>
   </g>
  </g>
  <g id="axes_2">
   <g id="patch_48">
    <path d="M 480.425806 518.4 
L 783.522581 518.4 
L 783.522581 57.6 
L 480.425806 57.6 
z
" style="fill:#ffffff;"/>
   </g>
   <g id="patch_49">
    <path clip-path="url(#p954062eb6e)" d="M 516.797419 518.4 
L 565.292903 518.4 
L 565.292903 355.358222 
L 516.797419 355.358222 
z
" style="fill:#b3de69;"/>
   </g>
   <g id="patch_50">
    <path clip-path="url(#p954062eb6e)" d="M 577.416774 518.4 
L 625.912258 518.4 
L 625.912258 362.564352 
L 577.416774 362.564352 
z
" style="fill:#b3de69;"/>
   </g>
   <g id="patch_51">
    <path clip-path="url(#p954062eb6e)" d="M 638.036129 518.4 
L 686.531613 518.4 
L 686.531613 395.26188 
L 638.036129 395.26188 
z
" style="fill:#b3de69;"/>
   </g>
   <g id="patch_52">
    <path clip-path="url(#p954062eb6e)" d="M 698.655484 518.4 
L 747.150968 518.4 
L 747.150968 404.912724 
L 698.655484 404.912724 
z
" style="fill:#b3de69;"/>
   </g>
   <g id="patch_53">
    <path clip-path="url(#p954062eb6e)" d="M 516.797419 355.358222 
L 565.292903 355.358222 
L 565.292903 355.358222 
L 516.797419 355.358222 
z
" style="fill:#b3e2cd;"/>
   </g>
   <g id="patch_54">
    <path clip-path="url(#p954062eb6e)" d="M 577.416774 362.564352 
L 625.912258 362.564352 
L 625.912258 334.268551 
L 577.416774 334.268551 
z
" style="fill:#b3e2cd;"/>
   </g>
   <g id="patch_55">
    <path clip-path="url(#p954062eb6e)" d="M 638.036129 395.26188 
L 686.531613 395.26188 
L 686.531613 375.647751 
L 638.036129 375.647751 
z
" style="fill:#b3e2cd;"/>
   </g>
   <g id="patch_56">
    <path clip-path="url(#p954062eb6e)" d="M 698.655484 404.912724 
L 747.150968 404.912724 
L 747.150968 386.049274 
L 698.655484 386.049274 
z
" style="fill:#b3e2cd;"/>
   </g>
   <g id="patch_57">
    <path clip-path="url(#p954062eb6e)" d="M 516.797419 355.358222 
L 565.292903 355.358222 
L 565.292903 334.121687 
L 516.797419 334.121687 
z
" style="fill:#4daf4a;"/>
   </g>
   <g id="patch_58">
    <path clip-path="url(#p954062eb6e)" d="M 577.416774 334.268551 
L 625.912258 334.268551 
L 625.912258 312.632897 
L 577.416774 312.632897 
z
" style="fill:#4daf4a;"/>
   </g>
   <g id="patch_59">
    <path clip-path="url(#p954062eb6e)" d="M 638.036129 375.647751 
L 686.531613 375.647751 
L 686.531613 365.726829 
L 638.036129 365.726829 
z
" style="fill:#4daf4a;"/>
   </g>
   <g id="patch_60">
    <path clip-path="url(#p954062eb6e)" d="M 698.655484 386.049274 
L 747.150968 386.049274 
L 747.150968 371.455492 
L 698.655484 371.455492 
z
" style="fill:#4daf4a;"/>
   </g>
   <g id="patch_61">
    <path clip-path="url(#p954062eb6e)" d="M 516.797419 334.121687 
L 565.292903 334.121687 
L 565.292903 334.121687 
L 516.797419 334.121687 
z
" style="fill:#cbd5e8;"/>
   </g>
   <g id="patch_62">
    <path clip-path="url(#p954062eb6e)" d="M 577.416774 312.632897 
L 625.912258 312.632897 
L 625.912258 294.725157 
L 577.416774 294.725157 
z
" style="fill:#cbd5e8;"/>
   </g>
   <g id="patch_63">
    <path clip-path="url(#p954062eb6e)" d="M 638.036129 365.726829 
L 686.531613 365.726829 
L 686.531613 350.613315 
L 638.036129 350.613315 
z
" style="fill:#cbd5e8;"/>
   </g>
   <g id="patch_64">
    <path clip-path="url(#p954062eb6e)" d="M 698.655484 371.455492 
L 747.150968 371.455492 
L 747.150968 355.451548 
L 698.655484 355.451548 
z
" style="fill:#cbd5e8;"/>
   </g>
   <g id="patch_65">
    <path clip-path="url(#p954062eb6e)" d="M 516.797419 334.121687 
L 565.292903 334.121687 
L 565.292903 221.326828 
L 516.797419 221.326828 
z
"/>
   </g>
   <g id="patch_66">
    <path clip-path="url(#p954062eb6e)" d="M 577.416774 294.725157 
L 625.912258 294.725157 
L 625.912258 200.464079 
L 577.416774 200.464079 
z
"/>
   </g>
   <g id="patch_67">
    <path clip-path="url(#p954062eb6e)" d="M 638.036129 350.613315 
L 686.531613 350.613315 
L 686.531613 273.427759 
L 638.036129 273.427759 
z
"/>
   </g>
   <g id="patch_68">
    <path clip-path="url(#p954062eb6e)" d="M 698.655484 355.451548 
L 747.150968 355.451548 
L 747.150968 274.235849 
L 698.655484 274.235849 
z
"/>
   </g>
   <g id="patch_69">
    <path clip-path="url(#p954062eb6e)" d="M 516.797419 221.326828 
L 565.292903 221.326828 
L 565.292903 215.846432 
L 516.797419 215.846432 
z
" style="fill:#a65628;"/>
   </g>
   <g id="patch_70">
    <path clip-path="url(#p954062eb6e)" d="M 577.416774 200.464079 
L 625.912258 200.464079 
L 625.912258 194.521028 
L 577.416774 194.521028 
z
" style="fill:#a65628;"/>
   </g>
   <g id="patch_71">
    <path clip-path="url(#p954062eb6e)" d="M 638.036129 273.427759 
L 686.531613 273.427759 
L 686.531613 253.770614 
L 638.036129 253.770614 
z
" style="fill:#a65628;"/>
   </g>
   <g id="patch_72">
    <path clip-path="url(#p954062eb6e)" d="M 698.655484 274.235849 
L 747.150968 274.235849 
L 747.150968 254.299589 
L 698.655484 254.299589 
z
" style="fill:#a65628;"/>
   </g>
   <g id="patch_73">
    <path clip-path="url(#p954062eb6e)" d="M 516.797419 215.846432 
L 565.292903 215.846432 
L 565.292903 208.995937 
L 516.797419 208.995937 
z
" style="fill:#fff2ae;"/>
   </g>
   <g id="patch_74">
    <path clip-path="url(#p954062eb6e)" d="M 577.416774 194.521028 
L 625.912258 194.521028 
L 625.912258 188.175224 
L 577.416774 188.175224 
z
" style="fill:#fff2ae;"/>
   </g>
   <g id="patch_75">
    <path clip-path="url(#p954062eb6e)" d="M 638.036129 253.770614 
L 686.531613 253.770614 
L 686.531613 231.633245 
L 638.036129 231.633245 
z
" style="fill:#fff2ae;"/>
   </g>
   <g id="patch_76">
    <path clip-path="url(#p954062eb6e)" d="M 698.655484 254.299589 
L 747.150968 254.299589 
L 747.150968 233.177248 
L 698.655484 233.177248 
z
" style="fill:#fff2ae;"/>
   </g>
   <g id="patch_77">
    <path clip-path="url(#p954062eb6e)" d="M 516.797419 208.995937 
L 565.292903 208.995937 
L 565.292903 200.775343 
L 516.797419 200.775343 
z
" style="fill:#ff7f00;"/>
   </g>
   <g id="patch_78">
    <path clip-path="url(#p954062eb6e)" d="M 577.416774 188.175224 
L 625.912258 188.175224 
L 625.912258 171.068077 
L 577.416774 171.068077 
z
" style="fill:#ff7f00;"/>
   </g>
   <g id="patch_79">
    <path clip-path="url(#p954062eb6e)" d="M 638.036129 231.633245 
L 686.531613 231.633245 
L 686.531613 214.06926 
L 638.036129 214.06926 
z
" style="fill:#ff7f00;"/>
   </g>
   <g id="patch_80">
    <path clip-path="url(#p954062eb6e)" d="M 698.655484 233.177248 
L 747.150968 233.177248 
L 747.150968 216.470491 
L 698.655484 216.470491 
z
" style="fill:#ff7f00;"/>
   </g>
   <g id="patch_81">
    <path clip-path="url(#p954062eb6e)" d="M 516.797419 200.775343 
L 565.292903 200.775343 
L 565.292903 176.113562 
L 516.797419 176.113562 
z
" style="fill:#e41a1c;"/>
   </g>
   <g id="patch_82">
    <path clip-path="url(#p954062eb6e)" d="M 577.416774 171.068077 
L 625.912258 171.068077 
L 625.912258 147.32043 
L 577.416774 147.32043 
z
" style="fill:#e41a1c;"/>
   </g>
   <g id="patch_83">
    <path clip-path="url(#p954062eb6e)" d="M 638.036129 214.06926 
L 686.531613 214.06926 
L 686.531613 175.11024 
L 638.036129 175.11024 
z
" style="fill:#e41a1c;"/>
   </g>
   <g id="patch_84">
    <path clip-path="url(#p954062eb6e)" d="M 698.655484 216.470491 
L 747.150968 216.470491 
L 747.150968 171.074954 
L 698.655484 171.074954 
z
" style="fill:#e41a1c;"/>
   </g>
   <g id="patch_85">
    <path clip-path="url(#p954062eb6e)" d="M 516.797419 176.113562 
L 565.292903 176.113562 
L 565.292903 57.6 
L 516.797419 57.6 
z
" style="fill:#377eb8;"/>
   </g>
   <g id="patch_86">
    <path clip-path="url(#p954062eb6e)" d="M 577.416774 147.32043 
L 625.912258 147.32043 
L 625.912258 57.6 
L 577.416774 57.6 
z
" style="fill:#377eb8;"/>
   </g>
   <g id="patch_87">
    <path clip-path="url(#p954062eb6e)" d="M 638.036129 175.11024 
L 686.531613 175.11024 
L 686.531613 57.6 
L 638.036129 57.6 
z
" style="fill:#377eb8;"/>
   </g>
   <g id="patch_88">
    <path clip-path="url(#p954062eb6e)" d="M 698.655484 171.074954 
L 747.150968 171.074954 
L 747.150968 57.6 
L 698.655484 57.6 
z
" style="fill:#377eb8;"/>
   </g>
   <g id="matplotlib.axis_3">
    <g id="xtick_5">
     <g id="line2d_5">
      <g>
       <use style="stroke:#000000;stroke-width:0.8;" x="541.045161" xlink:href="#me9a742ba42" y="518.4"/>
      </g>
     </g>
     <g id="text_8">
      <!-- 1990 -->
      <g transform="translate(528.320161 532.998438)scale(0.1 -0.1)">
       <use xlink:href="#DejaVuSans-49"/>
       <use x="63.623047" xlink:href="#DejaVuSans-57"/>
       <use x="127.246094" xlink:href="#DejaVuSans-57"/>
       <use x="190.869141" xlink:href="#DejaVuSans-48"/>
      </g>
     </g>
    </g>
    <g id="xtick_6">
     <g id="line2d_6">
      <g>
       <use style="stroke:#000000;stroke-width:0.8;" x="601.664516" xlink:href="#me9a742ba42" y="518.4"/>
      </g>
     </g>
     <g id="text_9">
      <!-- 2000 -->
      <g transform="translate(588.939516 532.998438)scale(0.1 -0.1)">
       <use xlink:href="#DejaVuSans-50"/>
       <use x="63.623047" xlink:href="#DejaVuSans-48"/>
       <use x="127.246094" xlink:href="#DejaVuSans-48"/>
       <use x="190.869141" xlink:href="#DejaVuSans-48"/>
      </g>
     </g>
    </g>
    <g id="xtick_7">
     <g id="line2d_7">
      <g>
       <use style="stroke:#000000;stroke-width:0.8;" x="662.283871" xlink:href="#me9a742ba42" y="518.4"/>
      </g>
     </g>
     <g id="text_10">
      <!-- 2005 -->
      <g transform="translate(649.558871 532.998438)scale(0.1 -0.1)">
       <use xlink:href="#DejaVuSans-50"/>
       <use x="63.623047" xlink:href="#DejaVuSans-48"/>
       <use x="127.246094" xlink:href="#DejaVuSans-48"/>
       <use x="190.869141" xlink:href="#DejaVuSans-53"/>
      </g>
     </g>
    </g>
    <g id="xtick_8">
     <g id="line2d_8">
      <g>
       <use style="stroke:#000000;stroke-width:0.8;" x="722.903226" xlink:href="#me9a742ba42" y="518.4"/>
      </g>
     </g>
     <g id="text_11">
      <!-- 2010 -->
      <g transform="translate(710.178226 532.998438)scale(0.1 -0.1)">
       <use xlink:href="#DejaVuSans-50"/>
       <use x="63.623047" xlink:href="#DejaVuSans-48"/>
       <use x="127.246094" xlink:href="#DejaVuSans-49"/>
       <use x="190.869141" xlink:href="#DejaVuSans-48"/>
      </g>
     </g>
    </g>
    <g id="text_12">
     <!-- Year -->
     <g transform="translate(621.386694 546.676563)scale(0.1 -0.1)">
      <use xlink:href="#DejaVuSans-89"/>
      <use x="47.833984" xlink:href="#DejaVuSans-101"/>
      <use x="109.357422" xlink:href="#DejaVuSans-97"/>
      <use x="170.636719" xlink:href="#DejaVuSans-114"/>
     </g>
    </g>
   </g>
   <g id="matplotlib.axis_4"/>
   <g id="patch_89">
    <path d="M 480.425806 518.4 
L 783.522581 518.4 
" style="fill:none;stroke:#000000;stroke-linecap:square;stroke-linejoin:miter;stroke-width:0.8;"/>
   </g>
   <g id="text_13">
    <!-- Denmark -->
    <defs>
     <path d="M 19.671875 64.796875 
L 19.671875 8.109375 
L 31.59375 8.109375 
Q 46.6875 8.109375 53.6875 14.9375 
Q 60.6875 21.78125 60.6875 36.53125 
Q 60.6875 51.171875 53.6875 57.984375 
Q 46.6875 64.796875 31.59375 64.796875 
z
M 9.8125 72.90625 
L 30.078125 72.90625 
Q 51.265625 72.90625 61.171875 64.09375 
Q 71.09375 55.28125 71.09375 36.53125 
Q 71.09375 17.671875 61.125 8.828125 
Q 51.171875 0 30.078125 0 
L 9.8125 0 
z
" id="DejaVuSans-68"/>
    </defs>
    <g transform="translate(495.580645 34.56)scale(0.22 -0.22)">
     <use xlink:href="#DejaVuSans-68"/>
     <use x="77.001953" xlink:href="#DejaVuSans-101"/>
     <use x="138.525391" xlink:href="#DejaVuSans-110"/>
     <use x="201.904297" xlink:href="#DejaVuSans-109"/>
     <use x="299.316406" xlink:href="#DejaVuSans-97"/>
     <use x="360.595703" xlink:href="#DejaVuSans-114"/>
     <use x="401.708984" xlink:href="#DejaVuSans-107"/>
    </g>
   </g>
  </g>
  <g id="axes_3">
   <g id="patch_90">
    <path d="M 874.451613 518.4 
L 1177.548387 518.4 
L 1177.548387 57.6 
L 874.451613 57.6 
z
" style="fill:#ffffff;"/>
   </g>
   <g id="patch_91">
    <path clip-path="url(#p01f0c21ca2)" d="M 910.823226 518.4 
L 959.31871 518.4 
L 959.31871 404.957884 
L 910.823226 404.957884 
z
" style="fill:#b3de69;"/>
   </g>
   <g id="patch_92">
    <path clip-path="url(#p01f0c21ca2)" d="M 971.442581 518.4 
L 1019.938065 518.4 
L 1019.938065 403.665045 
L 971.442581 403.665045 
z
" style="fill:#b3de69;"/>
   </g>
   <g id="patch_93">
    <path clip-path="url(#p01f0c21ca2)" d="M 1032.061935 518.4 
L 1080.557419 518.4 
L 1080.557419 408.775852 
L 1032.061935 408.775852 
z
" style="fill:#b3de69;"/>
   </g>
   <g id="patch_94">
    <path clip-path="url(#p01f0c21ca2)" d="M 1092.68129 518.4 
L 1141.176774 518.4 
L 1141.176774 407.930354 
L 1092.68129 407.930354 
z
" style="fill:#b3de69;"/>
   </g>
   <g id="patch_95">
    <path clip-path="url(#p01f0c21ca2)" d="M 910.823226 404.957884 
L 959.31871 404.957884 
L 959.31871 274.405697 
L 910.823226 274.405697 
z
" style="fill:#b3e2cd;"/>
   </g>
   <g id="patch_96">
    <path clip-path="url(#p01f0c21ca2)" d="M 971.442581 403.665045 
L 1019.938065 403.665045 
L 1019.938065 275.242175 
L 971.442581 275.242175 
z
" style="fill:#b3e2cd;"/>
   </g>
   <g id="patch_97">
    <path clip-path="url(#p01f0c21ca2)" d="M 1032.061935 408.775852 
L 1080.557419 408.775852 
L 1080.557419 268.570859 
L 1032.061935 268.570859 
z
" style="fill:#b3e2cd;"/>
   </g>
   <g id="patch_98">
    <path clip-path="url(#p01f0c21ca2)" d="M 1092.68129 407.930354 
L 1141.176774 407.930354 
L 1141.176774 271.508425 
L 1092.68129 271.508425 
z
" style="fill:#b3e2cd;"/>
   </g>
   <g id="patch_99">
    <path clip-path="url(#p01f0c21ca2)" d="M 910.823226 274.405697 
L 959.31871 274.405697 
L 959.31871 269.600814 
L 910.823226 269.600814 
z
"/>
   </g>
   <g id="patch_100">
    <path clip-path="url(#p01f0c21ca2)" d="M 971.442581 275.242175 
L 1019.938065 275.242175 
L 1019.938065 270.263929 
L 971.442581 270.263929 
z
"/>
   </g>
   <g id="patch_101">
    <path clip-path="url(#p01f0c21ca2)" d="M 1032.061935 268.570859 
L 1080.557419 268.570859 
L 1080.557419 263.368216 
L 1032.061935 263.368216 
z
"/>
   </g>
   <g id="patch_102">
    <path clip-path="url(#p01f0c21ca2)" d="M 1092.68129 271.508425 
L 1141.176774 271.508425 
L 1141.176774 265.632714 
L 1092.68129 265.632714 
z
"/>
   </g>
   <g id="patch_103">
    <path clip-path="url(#p01f0c21ca2)" d="M 910.823226 269.600814 
L 959.31871 269.600814 
L 959.31871 264.795931 
L 910.823226 264.795931 
z
" style="fill:#fdb462;"/>
   </g>
   <g id="patch_104">
    <path clip-path="url(#p01f0c21ca2)" d="M 971.442581 270.263929 
L 1019.938065 270.263929 
L 1019.938065 265.771341 
L 971.442581 265.771341 
z
" style="fill:#fdb462;"/>
   </g>
   <g id="patch_105">
    <path clip-path="url(#p01f0c21ca2)" d="M 1032.061935 263.368216 
L 1080.557419 263.368216 
L 1080.557419 258.557519 
L 1032.061935 258.557519 
z
" style="fill:#fdb462;"/>
   </g>
   <g id="patch_106">
    <path clip-path="url(#p01f0c21ca2)" d="M 1092.68129 265.632714 
L 1141.176774 265.632714 
L 1141.176774 261.090476 
L 1092.68129 261.090476 
z
" style="fill:#fdb462;"/>
   </g>
   <g id="patch_107">
    <path clip-path="url(#p01f0c21ca2)" d="M 910.823226 264.795931 
L 959.31871 264.795931 
L 959.31871 258.584741 
L 910.823226 258.584741 
z
" style="fill:#fff2ae;"/>
   </g>
   <g id="patch_108">
    <path clip-path="url(#p01f0c21ca2)" d="M 971.442581 265.771341 
L 1019.938065 265.771341 
L 1019.938065 259.832839 
L 971.442581 259.832839 
z
" style="fill:#fff2ae;"/>
   </g>
   <g id="patch_109">
    <path clip-path="url(#p01f0c21ca2)" d="M 1032.061935 258.557519 
L 1080.557419 258.557519 
L 1080.557419 252.595292 
L 1032.061935 252.595292 
z
" style="fill:#fff2ae;"/>
   </g>
   <g id="patch_110">
    <path clip-path="url(#p01f0c21ca2)" d="M 1092.68129 261.090476 
L 1141.176774 261.090476 
L 1141.176774 255.765398 
L 1092.68129 255.765398 
z
" style="fill:#fff2ae;"/>
   </g>
   <g id="patch_111">
    <path clip-path="url(#p01f0c21ca2)" d="M 910.823226 258.584741 
L 959.31871 258.584741 
L 959.31871 220.84883 
L 910.823226 220.84883 
z
" style="fill:#f1e2cc;"/>
   </g>
   <g id="patch_112">
    <path clip-path="url(#p01f0c21ca2)" d="M 971.442581 259.832839 
L 1019.938065 259.832839 
L 1019.938065 222.045022 
L 971.442581 222.045022 
z
" style="fill:#f1e2cc;"/>
   </g>
   <g id="patch_113">
    <path clip-path="url(#p01f0c21ca2)" d="M 1032.061935 252.595292 
L 1080.557419 252.595292 
L 1080.557419 217.212865 
L 1032.061935 217.212865 
z
" style="fill:#f1e2cc;"/>
   </g>
   <g id="patch_114">
    <path clip-path="url(#p01f0c21ca2)" d="M 1092.68129 255.765398 
L 1141.176774 255.765398 
L 1141.176774 220.680631 
L 1092.68129 220.680631 
z
" style="fill:#f1e2cc;"/>
   </g>
   <g id="patch_115">
    <path clip-path="url(#p01f0c21ca2)" d="M 910.823226 220.84883 
L 959.31871 220.84883 
L 959.31871 162.955849 
L 910.823226 162.955849 
z
" style="fill:#f4cae4;"/>
   </g>
   <g id="patch_116">
    <path clip-path="url(#p01f0c21ca2)" d="M 971.442581 222.045022 
L 1019.938065 222.045022 
L 1019.938065 163.578027 
L 971.442581 163.578027 
z
" style="fill:#f4cae4;"/>
   </g>
   <g id="patch_117">
    <path clip-path="url(#p01f0c21ca2)" d="M 1032.061935 217.212865 
L 1080.557419 217.212865 
L 1080.557419 162.090375 
L 1032.061935 162.090375 
z
" style="fill:#f4cae4;"/>
   </g>
   <g id="patch_118">
    <path clip-path="url(#p01f0c21ca2)" d="M 1092.68129 220.680631 
L 1141.176774 220.680631 
L 1141.176774 164.500325 
L 1092.68129 164.500325 
z
" style="fill:#f4cae4;"/>
   </g>
   <g id="patch_119">
    <path clip-path="url(#p01f0c21ca2)" d="M 910.823226 162.955849 
L 959.31871 162.955849 
L 959.31871 60.412614 
L 910.823226 60.412614 
z
" style="fill:#ff7f00;"/>
   </g>
   <g id="patch_120">
    <path clip-path="url(#p01f0c21ca2)" d="M 971.442581 163.578027 
L 1019.938065 163.578027 
L 1019.938065 60.339996 
L 971.442581 60.339996 
z
" style="fill:#ff7f00;"/>
   </g>
   <g id="patch_121">
    <path clip-path="url(#p01f0c21ca2)" d="M 1032.061935 162.090375 
L 1080.557419 162.090375 
L 1080.557419 60.459073 
L 1032.061935 60.459073 
z
" style="fill:#ff7f00;"/>
   </g>
   <g id="patch_122">
    <path clip-path="url(#p01f0c21ca2)" d="M 1092.68129 164.500325 
L 1141.176774 164.500325 
L 1141.176774 60.210121 
L 1092.68129 60.210121 
z
" style="fill:#ff7f00;"/>
   </g>
   <g id="patch_123">
    <path clip-path="url(#p01f0c21ca2)" d="M 910.823226 60.412614 
L 959.31871 60.412614 
L 959.31871 57.6 
L 910.823226 57.6 
z
" style="fill:#e41a1c;"/>
   </g>
   <g id="patch_124">
    <path clip-path="url(#p01f0c21ca2)" d="M 971.442581 60.339996 
L 1019.938065 60.339996 
L 1019.938065 57.6 
L 971.442581 57.6 
z
" style="fill:#e41a1c;"/>
   </g>
   <g id="patch_125">
    <path clip-path="url(#p01f0c21ca2)" d="M 1032.061935 60.459073 
L 1080.557419 60.459073 
L 1080.557419 57.6 
L 1032.061935 57.6 
z
" style="fill:#e41a1c;"/>
   </g>
   <g id="patch_126">
    <path clip-path="url(#p01f0c21ca2)" d="M 1092.68129 60.210121 
L 1141.176774 60.210121 
L 1141.176774 57.6 
L 1092.68129 57.6 
z
" style="fill:#e41a1c;"/>
   </g>
   <g id="matplotlib.axis_5">
    <g id="xtick_9">
     <g id="line2d_9">
      <g>
       <use style="stroke:#000000;stroke-width:0.8;" x="935.070968" xlink:href="#me9a742ba42" y="518.4"/>
      </g>
     </g>
     <g id="text_14">
      <!-- 1990 -->
      <g transform="translate(922.345968 532.998438)scale(0.1 -0.1)">
       <use xlink:href="#DejaVuSans-49"/>
       <use x="63.623047" xlink:href="#DejaVuSans-57"/>
       <use x="127.246094" xlink:href="#DejaVuSans-57"/>
       <use x="190.869141" xlink:href="#DejaVuSans-48"/>
      </g>
     </g>
    </g>
    <g id="xtick_10">
     <g id="line2d_10">
      <g>
       <use style="stroke:#000000;stroke-width:0.8;" x="995.690323" xlink:href="#me9a742ba42" y="518.4"/>
      </g>
     </g>
     <g id="text_15">
      <!-- 2000 -->
      <g transform="translate(982.965323 532.998438)scale(0.1 -0.1)">
       <use xlink:href="#DejaVuSans-50"/>
       <use x="63.623047" xlink:href="#DejaVuSans-48"/>
       <use x="127.246094" xlink:href="#DejaVuSans-48"/>
       <use x="190.869141" xlink:href="#DejaVuSans-48"/>
      </g>
     </g>
    </g>
    <g id="xtick_11">
     <g id="line2d_11">
      <g>
       <use style="stroke:#000000;stroke-width:0.8;" x="1056.309677" xlink:href="#me9a742ba42" y="518.4"/>
      </g>
     </g>
     <g id="text_16">
      <!-- 2005 -->
      <g transform="translate(1043.584677 532.998438)scale(0.1 -0.1)">
       <use xlink:href="#DejaVuSans-50"/>
       <use x="63.623047" xlink:href="#DejaVuSans-48"/>
       <use x="127.246094" xlink:href="#DejaVuSans-48"/>
       <use x="190.869141" xlink:href="#DejaVuSans-53"/>
      </g>
     </g>
    </g>
    <g id="xtick_12">
     <g id="line2d_12">
      <g>
       <use style="stroke:#000000;stroke-width:0.8;" x="1116.929032" xlink:href="#me9a742ba42" y="518.4"/>
      </g>
     </g>
     <g id="text_17">
      <!-- 2010 -->
      <g transform="translate(1104.204032 532.998438)scale(0.1 -0.1)">
       <use xlink:href="#DejaVuSans-50"/>
       <use x="63.623047" xlink:href="#DejaVuSans-48"/>
       <use x="127.246094" xlink:href="#DejaVuSans-49"/>
       <use x="190.869141" xlink:href="#DejaVuSans-48"/>
      </g>
     </g>
    </g>
    <g id="text_18">
     <!-- Year -->
     <g transform="translate(1015.4125 546.676563)scale(0.1 -0.1)">
      <use xlink:href="#DejaVuSans-89"/>
      <use x="47.833984" xlink:href="#DejaVuSans-101"/>
      <use x="109.357422" xlink:href="#DejaVuSans-97"/>
      <use x="170.636719" xlink:href="#DejaVuSans-114"/>
     </g>
    </g>
   </g>
   <g id="matplotlib.axis_6"/>
   <g id="patch_127">
    <path d="M 874.451613 518.4 
L 1177.548387 518.4 
" style="fill:none;stroke:#000000;stroke-linecap:square;stroke-linejoin:miter;stroke-width:0.8;"/>
   </g>
   <g id="text_19">
    <!-- Estonia -->
    <defs>
     <path d="M 9.8125 72.90625 
L 55.90625 72.90625 
L 55.90625 64.59375 
L 19.671875 64.59375 
L 19.671875 43.015625 
L 54.390625 43.015625 
L 54.390625 34.71875 
L 19.671875 34.71875 
L 19.671875 8.296875 
L 56.78125 8.296875 
L 56.78125 0 
L 9.8125 0 
z
" id="DejaVuSans-69"/>
    </defs>
    <g transform="translate(889.606452 34.56)scale(0.22 -0.22)">
     <use xlink:href="#DejaVuSans-69"/>
     <use x="63.183594" xlink:href="#DejaVuSans-115"/>
     <use x="115.283203" xlink:href="#DejaVuSans-116"/>
     <use x="154.492188" xlink:href="#DejaVuSans-111"/>
     <use x="215.673828" xlink:href="#DejaVuSans-110"/>
     <use x="279.052734" xlink:href="#DejaVuSans-105"/>
     <use x="306.835938" xlink:href="#DejaVuSans-97"/>
    </g>
   </g>
  </g>
  <g id="axes_4">
   <g id="patch_128">
    <path d="M 1268.477419 518.4 
L 1571.574194 518.4 
L 1571.574194 57.6 
L 1268.477419 57.6 
z
" style="fill:#ffffff;"/>
   </g>
   <g id="patch_129">
    <path clip-path="url(#pcbf56080b6)" d="M 1304.849032 518.4 
L 1353.344516 518.4 
L 1353.344516 349.459685 
L 1304.849032 349.459685 
z
" style="fill:#b3de69;"/>
   </g>
   <g id="patch_130">
    <path clip-path="url(#pcbf56080b6)" d="M 1365.468387 518.4 
L 1413.963871 518.4 
L 1413.963871 364.979185 
L 1365.468387 364.979185 
z
" style="fill:#b3de69;"/>
   </g>
   <g id="patch_131">
    <path clip-path="url(#pcbf56080b6)" d="M 1426.087742 518.4 
L 1474.583226 518.4 
L 1474.583226 377.642365 
L 1426.087742 377.642365 
z
" style="fill:#b3de69;"/>
   </g>
   <g id="patch_132">
    <path clip-path="url(#pcbf56080b6)" d="M 1486.707097 518.4 
L 1535.202581 518.4 
L 1535.202581 378.971238 
L 1486.707097 378.971238 
z
" style="fill:#b3de69;"/>
   </g>
   <g id="patch_133">
    <path clip-path="url(#pcbf56080b6)" d="M 1304.849032 349.459685 
L 1353.344516 349.459685 
L 1353.344516 139.485094 
L 1304.849032 139.485094 
z
" style="fill:#b3e2cd;"/>
   </g>
   <g id="patch_134">
    <path clip-path="url(#pcbf56080b6)" d="M 1365.468387 364.979185 
L 1413.963871 364.979185 
L 1413.963871 145.252018 
L 1365.468387 145.252018 
z
" style="fill:#b3e2cd;"/>
   </g>
   <g id="patch_135">
    <path clip-path="url(#pcbf56080b6)" d="M 1426.087742 377.642365 
L 1474.583226 377.642365 
L 1474.583226 149.143045 
L 1426.087742 149.143045 
z
" style="fill:#b3e2cd;"/>
   </g>
   <g id="patch_136">
    <path clip-path="url(#pcbf56080b6)" d="M 1486.707097 378.971238 
L 1535.202581 378.971238 
L 1535.202581 151.232629 
L 1486.707097 151.232629 
z
" style="fill:#b3e2cd;"/>
   </g>
   <g id="patch_137">
    <path clip-path="url(#pcbf56080b6)" d="M 1304.849032 139.485094 
L 1353.344516 139.485094 
L 1353.344516 136.000132 
L 1304.849032 136.000132 
z
"/>
   </g>
   <g id="patch_138">
    <path clip-path="url(#pcbf56080b6)" d="M 1365.468387 145.252018 
L 1413.963871 145.252018 
L 1413.963871 143.823035 
L 1365.468387 143.823035 
z
"/>
   </g>
   <g id="patch_139">
    <path clip-path="url(#pcbf56080b6)" d="M 1426.087742 149.143045 
L 1474.583226 149.143045 
L 1474.583226 147.27509 
L 1426.087742 147.27509 
z
"/>
   </g>
   <g id="patch_140">
    <path clip-path="url(#pcbf56080b6)" d="M 1486.707097 151.232629 
L 1535.202581 151.232629 
L 1535.202581 149.23378 
L 1486.707097 149.23378 
z
"/>
   </g>
   <g id="patch_141">
    <path clip-path="url(#pcbf56080b6)" d="M 1304.849032 136.000132 
L 1353.344516 136.000132 
L 1353.344516 136.000132 
L 1304.849032 136.000132 
z
" style="fill:#fdb462;"/>
   </g>
   <g id="patch_142">
    <path clip-path="url(#pcbf56080b6)" d="M 1365.468387 143.823035 
L 1413.963871 143.823035 
L 1413.963871 142.698636 
L 1365.468387 142.698636 
z
" style="fill:#fdb462;"/>
   </g>
   <g id="patch_143">
    <path clip-path="url(#pcbf56080b6)" d="M 1426.087742 147.27509 
L 1474.583226 147.27509 
L 1474.583226 146.083311 
L 1426.087742 146.083311 
z
" style="fill:#fdb462;"/>
   </g>
   <g id="patch_144">
    <path clip-path="url(#pcbf56080b6)" d="M 1486.707097 149.23378 
L 1535.202581 149.23378 
L 1535.202581 147.995499 
L 1486.707097 147.995499 
z
" style="fill:#fdb462;"/>
   </g>
   <g id="patch_145">
    <path clip-path="url(#pcbf56080b6)" d="M 1304.849032 136.000132 
L 1353.344516 136.000132 
L 1353.344516 130.170634 
L 1304.849032 130.170634 
z
" style="fill:#f1e2cc;"/>
   </g>
   <g id="patch_146">
    <path clip-path="url(#pcbf56080b6)" d="M 1365.468387 142.698636 
L 1413.963871 142.698636 
L 1413.963871 135.518578 
L 1365.468387 135.518578 
z
" style="fill:#f1e2cc;"/>
   </g>
   <g id="patch_147">
    <path clip-path="url(#pcbf56080b6)" d="M 1426.087742 146.083311 
L 1474.583226 146.083311 
L 1474.583226 139.071746 
L 1426.087742 139.071746 
z
" style="fill:#f1e2cc;"/>
   </g>
   <g id="patch_148">
    <path clip-path="url(#pcbf56080b6)" d="M 1486.707097 147.995499 
L 1535.202581 147.995499 
L 1535.202581 139.951838 
L 1486.707097 139.951838 
z
" style="fill:#f1e2cc;"/>
   </g>
   <g id="patch_149">
    <path clip-path="url(#pcbf56080b6)" d="M 1304.849032 130.170634 
L 1353.344516 130.170634 
L 1353.344516 125.124934 
L 1304.849032 125.124934 
z
" style="fill:#f4cae4;"/>
   </g>
   <g id="patch_150">
    <path clip-path="url(#pcbf56080b6)" d="M 1365.468387 135.518578 
L 1413.963871 135.518578 
L 1413.963871 129.310183 
L 1365.468387 129.310183 
z
" style="fill:#f4cae4;"/>
   </g>
   <g id="patch_151">
    <path clip-path="url(#pcbf56080b6)" d="M 1426.087742 139.071746 
L 1474.583226 139.071746 
L 1474.583226 133.645922 
L 1426.087742 133.645922 
z
" style="fill:#f4cae4;"/>
   </g>
   <g id="patch_152">
    <path clip-path="url(#pcbf56080b6)" d="M 1486.707097 139.951838 
L 1535.202581 139.951838 
L 1535.202581 134.745854 
L 1486.707097 134.745854 
z
" style="fill:#f4cae4;"/>
   </g>
   <g id="patch_153">
    <path clip-path="url(#pcbf56080b6)" d="M 1304.849032 125.124934 
L 1353.344516 125.124934 
L 1353.344516 57.6 
L 1304.849032 57.6 
z
" style="fill:#ff7f00;"/>
   </g>
   <g id="patch_154">
    <path clip-path="url(#pcbf56080b6)" d="M 1365.468387 129.310183 
L 1413.963871 129.310183 
L 1413.963871 57.695487 
L 1365.468387 57.695487 
z
" style="fill:#ff7f00;"/>
   </g>
   <g id="patch_155">
    <path clip-path="url(#pcbf56080b6)" d="M 1426.087742 133.645922 
L 1474.583226 133.645922 
L 1474.583226 57.706488 
L 1426.087742 57.706488 
z
" style="fill:#ff7f00;"/>
   </g>
   <g id="patch_156">
    <path clip-path="url(#pcbf56080b6)" d="M 1486.707097 134.745854 
L 1535.202581 134.745854 
L 1535.202581 57.717591 
L 1486.707097 57.717591 
z
" style="fill:#ff7f00;"/>
   </g>
   <g id="patch_157">
    <path clip-path="url(#pcbf56080b6)" d="M 1304.849032 57.6 
L 1353.344516 57.6 
L 1353.344516 57.6 
L 1304.849032 57.6 
z
" style="fill:#e41a1c;"/>
   </g>
   <g id="patch_158">
    <path clip-path="url(#pcbf56080b6)" d="M 1365.468387 57.695487 
L 1413.963871 57.695487 
L 1413.963871 57.6 
L 1365.468387 57.6 
z
" style="fill:#e41a1c;"/>
   </g>
   <g id="patch_159">
    <path clip-path="url(#pcbf56080b6)" d="M 1426.087742 57.706488 
L 1474.583226 57.706488 
L 1474.583226 57.6 
L 1426.087742 57.6 
z
" style="fill:#e41a1c;"/>
   </g>
   <g id="patch_160">
    <path clip-path="url(#pcbf56080b6)" d="M 1486.707097 57.717591 
L 1535.202581 57.717591 
L 1535.202581 57.6 
L 1486.707097 57.6 
z
" style="fill:#e41a1c;"/>
   </g>
   <g id="matplotlib.axis_7">
    <g id="xtick_13">
     <g id="line2d_13">
      <g>
       <use style="stroke:#000000;stroke-width:0.8;" x="1329.096774" xlink:href="#me9a742ba42" y="518.4"/>
      </g>
     </g>
     <g id="text_20">
      <!-- 1990 -->
      <g transform="translate(1316.371774 532.998438)scale(0.1 -0.1)">
       <use xlink:href="#DejaVuSans-49"/>
       <use x="63.623047" xlink:href="#DejaVuSans-57"/>
       <use x="127.246094" xlink:href="#DejaVuSans-57"/>
       <use x="190.869141" xlink:href="#DejaVuSans-48"/>
      </g>
     </g>
    </g>
    <g id="xtick_14">
     <g id="line2d_14">
      <g>
       <use style="stroke:#000000;stroke-width:0.8;" x="1389.716129" xlink:href="#me9a742ba42" y="518.4"/>
      </g>
     </g>
     <g id="text_21">
      <!-- 2000 -->
      <g transform="translate(1376.991129 532.998438)scale(0.1 -0.1)">
       <use xlink:href="#DejaVuSans-50"/>
       <use x="63.623047" xlink:href="#DejaVuSans-48"/>
       <use x="127.246094" xlink:href="#DejaVuSans-48"/>
       <use x="190.869141" xlink:href="#DejaVuSans-48"/>
      </g>
     </g>
    </g>
    <g id="xtick_15">
     <g id="line2d_15">
      <g>
       <use style="stroke:#000000;stroke-width:0.8;" x="1450.335484" xlink:href="#me9a742ba42" y="518.4"/>
      </g>
     </g>
     <g id="text_22">
      <!-- 2005 -->
      <g transform="translate(1437.610484 532.998438)scale(0.1 -0.1)">
       <use xlink:href="#DejaVuSans-50"/>
       <use x="63.623047" xlink:href="#DejaVuSans-48"/>
       <use x="127.246094" xlink:href="#DejaVuSans-48"/>
       <use x="190.869141" xlink:href="#DejaVuSans-53"/>
      </g>
     </g>
    </g>
    <g id="xtick_16">
     <g id="line2d_16">
      <g>
       <use style="stroke:#000000;stroke-width:0.8;" x="1510.954839" xlink:href="#me9a742ba42" y="518.4"/>
      </g>
     </g>
     <g id="text_23">
      <!-- 2010 -->
      <g transform="translate(1498.229839 532.998438)scale(0.1 -0.1)">
       <use xlink:href="#DejaVuSans-50"/>
       <use x="63.623047" xlink:href="#DejaVuSans-48"/>
       <use x="127.246094" xlink:href="#DejaVuSans-49"/>
       <use x="190.869141" xlink:href="#DejaVuSans-48"/>
      </g>
     </g>
    </g>
    <g id="text_24">
     <!-- Year -->
     <g transform="translate(1409.438306 546.676563)scale(0.1 -0.1)">
      <use xlink:href="#DejaVuSans-89"/>
      <use x="47.833984" xlink:href="#DejaVuSans-101"/>
      <use x="109.357422" xlink:href="#DejaVuSans-97"/>
      <use x="170.636719" xlink:href="#DejaVuSans-114"/>
     </g>
    </g>
   </g>
   <g id="matplotlib.axis_8"/>
   <g id="patch_161">
    <path d="M 1268.477419 518.4 
L 1571.574194 518.4 
" style="fill:none;stroke:#000000;stroke-linecap:square;stroke-linejoin:miter;stroke-width:0.8;"/>
   </g>
   <g id="text_25">
    <!-- Finland -->
    <defs>
     <path d="M 45.40625 46.390625 
L 45.40625 75.984375 
L 54.390625 75.984375 
L 54.390625 0 
L 45.40625 0 
L 45.40625 8.203125 
Q 42.578125 3.328125 38.25 0.953125 
Q 33.9375 -1.421875 27.875 -1.421875 
Q 17.96875 -1.421875 11.734375 6.484375 
Q 5.515625 14.40625 5.515625 27.296875 
Q 5.515625 40.1875 11.734375 48.09375 
Q 17.96875 56 27.875 56 
Q 33.9375 56 38.25 53.625 
Q 42.578125 51.265625 45.40625 46.390625 
z
M 14.796875 27.296875 
Q 14.796875 17.390625 18.875 11.75 
Q 22.953125 6.109375 30.078125 6.109375 
Q 37.203125 6.109375 41.296875 11.75 
Q 45.40625 17.390625 45.40625 27.296875 
Q 45.40625 37.203125 41.296875 42.84375 
Q 37.203125 48.484375 30.078125 48.484375 
Q 22.953125 48.484375 18.875 42.84375 
Q 14.796875 37.203125 14.796875 27.296875 
z
" id="DejaVuSans-100"/>
    </defs>
    <g transform="translate(1283.632258 34.56)scale(0.22 -0.22)">
     <use xlink:href="#DejaVuSans-70"/>
     <use x="50.269531" xlink:href="#DejaVuSans-105"/>
     <use x="78.052734" xlink:href="#DejaVuSans-110"/>
     <use x="141.431641" xlink:href="#DejaVuSans-108"/>
     <use x="169.214844" xlink:href="#DejaVuSans-97"/>
     <use x="230.494141" xlink:href="#DejaVuSans-110"/>
     <use x="293.873047" xlink:href="#DejaVuSans-100"/>
    </g>
   </g>
  </g>
  <g id="axes_5">
   <g id="patch_162">
    <path d="M 1662.503226 518.4 
L 1965.6 518.4 
L 1965.6 57.6 
L 1662.503226 57.6 
z
" style="fill:#ffffff;"/>
   </g>
   <g id="patch_163">
    <path clip-path="url(#pd036122b09)" d="M 1698.874839 518.4 
L 1747.370323 518.4 
L 1747.370323 483.790082 
L 1698.874839 483.790082 
z
" style="fill:#b3de69;"/>
   </g>
   <g id="patch_164">
    <path clip-path="url(#pd036122b09)" d="M 1759.494194 518.4 
L 1807.989677 518.4 
L 1807.989677 483.236912 
L 1759.494194 483.236912 
z
" style="fill:#b3de69;"/>
   </g>
   <g id="patch_165">
    <path clip-path="url(#pd036122b09)" d="M 1820.113548 518.4 
L 1868.609032 518.4 
L 1868.609032 482.078981 
L 1820.113548 482.078981 
z
" style="fill:#b3de69;"/>
   </g>
   <g id="patch_166">
    <path clip-path="url(#pd036122b09)" d="M 1880.732903 518.4 
L 1929.228387 518.4 
L 1929.228387 484.13137 
L 1880.732903 484.13137 
z
" style="fill:#b3de69;"/>
   </g>
   <g id="patch_167">
    <path clip-path="url(#pd036122b09)" d="M 1698.874839 483.790082 
L 1747.370323 483.790082 
L 1747.370323 408.801926 
L 1698.874839 408.801926 
z
" style="fill:#b3e2cd;"/>
   </g>
   <g id="patch_168">
    <path clip-path="url(#pd036122b09)" d="M 1759.494194 483.236912 
L 1807.989677 483.236912 
L 1807.989677 411.888554 
L 1759.494194 411.888554 
z
" style="fill:#b3e2cd;"/>
   </g>
   <g id="patch_169">
    <path clip-path="url(#pd036122b09)" d="M 1820.113548 482.078981 
L 1868.609032 482.078981 
L 1868.609032 420.443312 
L 1820.113548 420.443312 
z
" style="fill:#b3e2cd;"/>
   </g>
   <g id="patch_170">
    <path clip-path="url(#pd036122b09)" d="M 1880.732903 484.13137 
L 1929.228387 484.13137 
L 1929.228387 433.685164 
L 1880.732903 433.685164 
z
" style="fill:#b3e2cd;"/>
   </g>
   <g id="patch_171">
    <path clip-path="url(#pd036122b09)" d="M 1698.874839 408.801926 
L 1747.370323 408.801926 
L 1747.370323 373.082715 
L 1698.874839 373.082715 
z
" style="fill:#4daf4a;"/>
   </g>
   <g id="patch_172">
    <path clip-path="url(#pd036122b09)" d="M 1759.494194 411.888554 
L 1807.989677 411.888554 
L 1807.989677 376.929902 
L 1759.494194 376.929902 
z
" style="fill:#4daf4a;"/>
   </g>
   <g id="patch_173">
    <path clip-path="url(#pd036122b09)" d="M 1820.113548 420.443312 
L 1868.609032 420.443312 
L 1868.609032 386.323567 
L 1820.113548 386.323567 
z
" style="fill:#4daf4a;"/>
   </g>
   <g id="patch_174">
    <path clip-path="url(#pd036122b09)" d="M 1880.732903 433.685164 
L 1929.228387 433.685164 
L 1929.228387 398.894677 
L 1880.732903 398.894677 
z
" style="fill:#4daf4a;"/>
   </g>
   <g id="patch_175">
    <path clip-path="url(#pd036122b09)" d="M 1698.874839 373.082715 
L 1747.370323 373.082715 
L 1747.370323 363.986519 
L 1698.874839 363.986519 
z
" style="fill:#e6f5c9;"/>
   </g>
   <g id="patch_176">
    <path clip-path="url(#pd036122b09)" d="M 1759.494194 376.929902 
L 1807.989677 376.929902 
L 1807.989677 365.277019 
L 1759.494194 365.277019 
z
" style="fill:#e6f5c9;"/>
   </g>
   <g id="patch_177">
    <path clip-path="url(#pd036122b09)" d="M 1820.113548 386.323567 
L 1868.609032 386.323567 
L 1868.609032 369.447134 
L 1820.113548 369.447134 
z
" style="fill:#e6f5c9;"/>
   </g>
   <g id="patch_178">
    <path clip-path="url(#pd036122b09)" d="M 1880.732903 398.894677 
L 1929.228387 398.894677 
L 1929.228387 379.412005 
L 1880.732903 379.412005 
z
" style="fill:#e6f5c9;"/>
   </g>
   <g id="patch_179">
    <path clip-path="url(#pd036122b09)" d="M 1698.874839 363.986519 
L 1747.370323 363.986519 
L 1747.370323 276.796148 
L 1698.874839 276.796148 
z
"/>
   </g>
   <g id="patch_180">
    <path clip-path="url(#pd036122b09)" d="M 1759.494194 365.277019 
L 1807.989677 365.277019 
L 1807.989677 276.14268 
L 1759.494194 276.14268 
z
"/>
   </g>
   <g id="patch_181">
    <path clip-path="url(#pd036122b09)" d="M 1820.113548 369.447134 
L 1868.609032 369.447134 
L 1868.609032 273.324841 
L 1820.113548 273.324841 
z
"/>
   </g>
   <g id="patch_182">
    <path clip-path="url(#pd036122b09)" d="M 1880.732903 379.412005 
L 1929.228387 379.412005 
L 1929.228387 273.648924 
L 1880.732903 273.648924 
z
"/>
   </g>
   <g id="patch_183">
    <path clip-path="url(#pd036122b09)" d="M 1698.874839 276.796148 
L 1747.370323 276.796148 
L 1747.370323 259.491189 
L 1698.874839 259.491189 
z
" style="fill:#984ea3;"/>
   </g>
   <g id="patch_184">
    <path clip-path="url(#pd036122b09)" d="M 1759.494194 276.14268 
L 1807.989677 276.14268 
L 1807.989677 258.970009 
L 1759.494194 258.970009 
z
" style="fill:#984ea3;"/>
   </g>
   <g id="patch_185">
    <path clip-path="url(#pd036122b09)" d="M 1820.113548 273.324841 
L 1868.609032 273.324841 
L 1868.609032 256.081529 
L 1820.113548 256.081529 
z
" style="fill:#984ea3;"/>
   </g>
   <g id="patch_186">
    <path clip-path="url(#pd036122b09)" d="M 1880.732903 273.648924 
L 1929.228387 273.648924 
L 1929.228387 254.514156 
L 1880.732903 254.514156 
z
" style="fill:#984ea3;"/>
   </g>
   <g id="patch_187">
    <path clip-path="url(#pd036122b09)" d="M 1698.874839 259.491189 
L 1747.370323 259.491189 
L 1747.370323 237.305344 
L 1698.874839 237.305344 
z
" style="fill:#f781bf;"/>
   </g>
   <g id="patch_188">
    <path clip-path="url(#pd036122b09)" d="M 1759.494194 258.970009 
L 1807.989677 258.970009 
L 1807.989677 237.095297 
L 1759.494194 237.095297 
z
" style="fill:#f781bf;"/>
   </g>
   <g id="patch_189">
    <path clip-path="url(#pd036122b09)" d="M 1820.113548 256.081529 
L 1868.609032 256.081529 
L 1868.609032 233.335032 
L 1820.113548 233.335032 
z
" style="fill:#f781bf;"/>
   </g>
   <g id="patch_190">
    <path clip-path="url(#pd036122b09)" d="M 1880.732903 254.514156 
L 1929.228387 254.514156 
L 1929.228387 231.378482 
L 1880.732903 231.378482 
z
" style="fill:#f781bf;"/>
   </g>
   <g id="patch_191">
    <path clip-path="url(#pd036122b09)" d="M 1698.874839 237.305344 
L 1747.370323 237.305344 
L 1747.370323 111.067886 
L 1698.874839 111.067886 
z
" style="fill:#e41a1c;"/>
   </g>
   <g id="patch_192">
    <path clip-path="url(#pd036122b09)" d="M 1759.494194 237.095297 
L 1807.989677 237.095297 
L 1807.989677 109.322449 
L 1759.494194 109.322449 
z
" style="fill:#e41a1c;"/>
   </g>
   <g id="patch_193">
    <path clip-path="url(#pd036122b09)" d="M 1820.113548 233.335032 
L 1868.609032 233.335032 
L 1868.609032 107.495541 
L 1820.113548 107.495541 
z
" style="fill:#e41a1c;"/>
   </g>
   <g id="patch_194">
    <path clip-path="url(#pd036122b09)" d="M 1880.732903 231.378482 
L 1929.228387 231.378482 
L 1929.228387 106.132729 
L 1880.732903 106.132729 
z
" style="fill:#e41a1c;"/>
   </g>
   <g id="patch_195">
    <path clip-path="url(#pd036122b09)" d="M 1698.874839 111.067886 
L 1747.370323 111.067886 
L 1747.370323 57.6 
L 1698.874839 57.6 
z
" style="fill:#377eb8;"/>
   </g>
   <g id="patch_196">
    <path clip-path="url(#pd036122b09)" d="M 1759.494194 109.322449 
L 1807.989677 109.322449 
L 1807.989677 57.6 
L 1759.494194 57.6 
z
" style="fill:#377eb8;"/>
   </g>
   <g id="patch_197">
    <path clip-path="url(#pd036122b09)" d="M 1820.113548 107.495541 
L 1868.609032 107.495541 
L 1868.609032 57.6 
L 1820.113548 57.6 
z
" style="fill:#377eb8;"/>
   </g>
   <g id="patch_198">
    <path clip-path="url(#pd036122b09)" d="M 1880.732903 106.132729 
L 1929.228387 106.132729 
L 1929.228387 57.6 
L 1880.732903 57.6 
z
" style="fill:#377eb8;"/>
   </g>
   <g id="matplotlib.axis_9">
    <g id="xtick_17">
     <g id="line2d_17">
      <g>
       <use style="stroke:#000000;stroke-width:0.8;" x="1723.122581" xlink:href="#me9a742ba42" y="518.4"/>
      </g>
     </g>
     <g id="text_26">
      <!-- 1990 -->
      <g transform="translate(1710.397581 532.998438)scale(0.1 -0.1)">
       <use xlink:href="#DejaVuSans-49"/>
       <use x="63.623047" xlink:href="#DejaVuSans-57"/>
       <use x="127.246094" xlink:href="#DejaVuSans-57"/>
       <use x="190.869141" xlink:href="#DejaVuSans-48"/>
      </g>
     </g>
    </g>
    <g id="xtick_18">
     <g id="line2d_18">
      <g>
       <use style="stroke:#000000;stroke-width:0.8;" x="1783.741935" xlink:href="#me9a742ba42" y="518.4"/>
      </g>
     </g>
     <g id="text_27">
      <!-- 2000 -->
      <g transform="translate(1771.016935 532.998438)scale(0.1 -0.1)">
       <use xlink:href="#DejaVuSans-50"/>
       <use x="63.623047" xlink:href="#DejaVuSans-48"/>
       <use x="127.246094" xlink:href="#DejaVuSans-48"/>
       <use x="190.869141" xlink:href="#DejaVuSans-48"/>
      </g>
     </g>
    </g>
    <g id="xtick_19">
     <g id="line2d_19">
      <g>
       <use style="stroke:#000000;stroke-width:0.8;" x="1844.36129" xlink:href="#me9a742ba42" y="518.4"/>
      </g>
     </g>
     <g id="text_28">
      <!-- 2005 -->
      <g transform="translate(1831.63629 532.998438)scale(0.1 -0.1)">
       <use xlink:href="#DejaVuSans-50"/>
       <use x="63.623047" xlink:href="#DejaVuSans-48"/>
       <use x="127.246094" xlink:href="#DejaVuSans-48"/>
       <use x="190.869141" xlink:href="#DejaVuSans-53"/>
      </g>
     </g>
    </g>
    <g id="xtick_20">
     <g id="line2d_20">
      <g>
       <use style="stroke:#000000;stroke-width:0.8;" x="1904.980645" xlink:href="#me9a742ba42" y="518.4"/>
      </g>
     </g>
     <g id="text_29">
      <!-- 2010 -->
      <g transform="translate(1892.255645 532.998438)scale(0.1 -0.1)">
       <use xlink:href="#DejaVuSans-50"/>
       <use x="63.623047" xlink:href="#DejaVuSans-48"/>
       <use x="127.246094" xlink:href="#DejaVuSans-49"/>
       <use x="190.869141" xlink:href="#DejaVuSans-48"/>
      </g>
     </g>
    </g>
    <g id="text_30">
     <!-- Year -->
     <g transform="translate(1803.464113 546.676563)scale(0.1 -0.1)">
      <use xlink:href="#DejaVuSans-89"/>
      <use x="47.833984" xlink:href="#DejaVuSans-101"/>
      <use x="109.357422" xlink:href="#DejaVuSans-97"/>
      <use x="170.636719" xlink:href="#DejaVuSans-114"/>
     </g>
    </g>
   </g>
   <g id="matplotlib.axis_10"/>
   <g id="patch_199">
    <path d="M 1662.503226 518.4 
L 1965.6 518.4 
" style="fill:none;stroke:#000000;stroke-linecap:square;stroke-linejoin:miter;stroke-width:0.8;"/>
   </g>
   <g id="text_31">
    <!-- France -->
    <g transform="translate(1677.658065 34.56)scale(0.22 -0.22)">
     <use xlink:href="#DejaVuSans-70"/>
     <use x="50.269531" xlink:href="#DejaVuSans-114"/>
     <use x="91.382812" xlink:href="#DejaVuSans-97"/>
     <use x="152.662109" xlink:href="#DejaVuSans-110"/>
     <use x="216.041016" xlink:href="#DejaVuSans-99"/>
     <use x="271.021484" xlink:href="#DejaVuSans-101"/>
    </g>
   </g>
  </g>
 </g>
 <defs>
  <clipPath id="p0e129109a1">
   <rect height="460.8" width="303.096774" x="86.4" y="57.6"/>
  </clipPath>
  <clipPath id="p954062eb6e">
   <rect height="460.8" width="303.096774" x="480.425806" y="57.6"/>
  </clipPath>
  <clipPath id="p01f0c21ca2">
   <rect height="460.8" width="303.096774" x="874.451613" y="57.6"/>
  </clipPath>
  <clipPath id="pcbf56080b6">
   <rect height="460.8" width="303.096774" x="1268.477419" y="57.6"/>
  </clipPath>
  <clipPath id="pd036122b09">
   <rect height="460.8" width="303.096774" x="1662.503226" y="57.6"/>
  </clipPath>
 </defs>
</svg>
