<?xml version="1.0" encoding="utf-8" standalone="no"?>
<!DOCTYPE svg PUBLIC "-//W3C//DTD SVG 1.1//EN"
  "http://www.w3.org/Graphics/SVG/1.1/DTD/svg11.dtd">
<!-- Created with matplotlib (https://matplotlib.org/) -->
<svg height="576pt" version="1.1" viewBox="0 0 2160 576" width="2160pt" xmlns="http://www.w3.org/2000/svg" xmlns:xlink="http://www.w3.org/1999/xlink">
 <defs>
  <style type="text/css">
*{stroke-linecap:butt;stroke-linejoin:round;}
  </style>
 </defs>
 <g id="figure_1">
  <g id="patch_1">
   <path d="M 0 576 
L 2160 576 
L 2160 0 
L 0 0 
z
" style="fill:#ffffff;"/>
  </g>
  <g id="axes_1">
   <g id="patch_2">
    <path d="M 86.4 518.4 
L 389.496774 518.4 
L 389.496774 57.6 
L 86.4 57.6 
z
" style="fill:#ffffff;"/>
   </g>
   <g id="patch_3">
    <path clip-path="url(#pfea020e116)" d="M 122.771613 518.4 
L 171.267097 518.4 
L 171.267097 395.026067 
L 122.771613 395.026067 
z
" style="fill:#377eb8;"/>
   </g>
   <g id="patch_4">
    <path clip-path="url(#pfea020e116)" d="M 183.390968 518.4 
L 231.886452 518.4 
L 231.886452 386.51547 
L 183.390968 386.51547 
z
" style="fill:#377eb8;"/>
   </g>
   <g id="patch_5">
    <path clip-path="url(#pfea020e116)" d="M 244.010323 518.4 
L 292.505806 518.4 
L 292.505806 381.667518 
L 244.010323 381.667518 
z
" style="fill:#377eb8;"/>
   </g>
   <g id="patch_6">
    <path clip-path="url(#pfea020e116)" d="M 304.629677 518.4 
L 353.125161 518.4 
L 353.125161 376.610131 
L 304.629677 376.610131 
z
" style="fill:#377eb8;"/>
   </g>
   <g id="patch_7">
    <path clip-path="url(#pfea020e116)" d="M 122.771613 395.026067 
L 171.267097 395.026067 
L 171.267097 331.973136 
L 122.771613 331.973136 
z
" style="fill:#e41a1c;"/>
   </g>
   <g id="patch_8">
    <path clip-path="url(#pfea020e116)" d="M 183.390968 386.51547 
L 231.886452 386.51547 
L 231.886452 329.289711 
L 183.390968 329.289711 
z
" style="fill:#e41a1c;"/>
   </g>
   <g id="patch_9">
    <path clip-path="url(#pfea020e116)" d="M 244.010323 381.667518 
L 292.505806 381.667518 
L 292.505806 326.12272 
L 244.010323 326.12272 
z
" style="fill:#e41a1c;"/>
   </g>
   <g id="patch_10">
    <path clip-path="url(#pfea020e116)" d="M 304.629677 376.610131 
L 353.125161 376.610131 
L 353.125161 319.842966 
L 304.629677 319.842966 
z
" style="fill:#e41a1c;"/>
   </g>
   <g id="patch_11">
    <path clip-path="url(#pfea020e116)" d="M 122.771613 331.973136 
L 171.267097 331.973136 
L 171.267097 318.313489 
L 122.771613 318.313489 
z
" style="fill:#984ea3;"/>
   </g>
   <g id="patch_12">
    <path clip-path="url(#pfea020e116)" d="M 183.390968 329.289711 
L 231.886452 329.289711 
L 231.886452 312.046188 
L 183.390968 312.046188 
z
" style="fill:#984ea3;"/>
   </g>
   <g id="patch_13">
    <path clip-path="url(#pfea020e116)" d="M 244.010323 326.12272 
L 292.505806 326.12272 
L 292.505806 306.868373 
L 244.010323 306.868373 
z
" style="fill:#984ea3;"/>
   </g>
   <g id="patch_14">
    <path clip-path="url(#pfea020e116)" d="M 304.629677 319.842966 
L 353.125161 319.842966 
L 353.125161 300.294573 
L 304.629677 300.294573 
z
" style="fill:#984ea3;"/>
   </g>
   <g id="patch_15">
    <path clip-path="url(#pfea020e116)" d="M 122.771613 318.313489 
L 171.267097 318.313489 
L 171.267097 314.379511 
L 122.771613 314.379511 
z
" style="fill:#a65628;"/>
   </g>
   <g id="patch_16">
    <path clip-path="url(#pfea020e116)" d="M 183.390968 312.046188 
L 231.886452 312.046188 
L 231.886452 307.308956 
L 183.390968 307.308956 
z
" style="fill:#a65628;"/>
   </g>
   <g id="patch_17">
    <path clip-path="url(#pfea020e116)" d="M 244.010323 306.868373 
L 292.505806 306.868373 
L 292.505806 301.63332 
L 244.010323 301.63332 
z
" style="fill:#a65628;"/>
   </g>
   <g id="patch_18">
    <path clip-path="url(#pfea020e116)" d="M 304.629677 300.294573 
L 353.125161 300.294573 
L 353.125161 294.233718 
L 304.629677 294.233718 
z
" style="fill:#a65628;"/>
   </g>
   <g id="patch_19">
    <path clip-path="url(#pfea020e116)" d="M 122.771613 314.379511 
L 171.267097 314.379511 
L 171.267097 310.991918 
L 122.771613 310.991918 
z
" style="fill:#fff2ae;"/>
   </g>
   <g id="patch_20">
    <path clip-path="url(#pfea020e116)" d="M 183.390968 307.308956 
L 231.886452 307.308956 
L 231.886452 302.571725 
L 183.390968 302.571725 
z
" style="fill:#fff2ae;"/>
   </g>
   <g id="patch_21">
    <path clip-path="url(#pfea020e116)" d="M 244.010323 301.63332 
L 292.505806 301.63332 
L 292.505806 296.486997 
L 244.010323 296.486997 
z
" style="fill:#fff2ae;"/>
   </g>
   <g id="patch_22">
    <path clip-path="url(#pfea020e116)" d="M 304.629677 294.233718 
L 353.125161 294.233718 
L 353.125161 288.514319 
L 304.629677 288.514319 
z
" style="fill:#fff2ae;"/>
   </g>
   <g id="patch_23">
    <path clip-path="url(#pfea020e116)" d="M 122.771613 310.991918 
L 171.267097 310.991918 
L 171.267097 306.511554 
L 122.771613 306.511554 
z
" style="fill:#80b1d3;"/>
   </g>
   <g id="patch_24">
    <path clip-path="url(#pfea020e116)" d="M 183.390968 302.571725 
L 231.886452 302.571725 
L 231.886452 298.023982 
L 183.390968 298.023982 
z
" style="fill:#80b1d3;"/>
   </g>
   <g id="patch_25">
    <path clip-path="url(#pfea020e116)" d="M 244.010323 296.486997 
L 292.505806 296.486997 
L 292.505806 292.3167 
L 244.010323 292.3167 
z
" style="fill:#80b1d3;"/>
   </g>
   <g id="patch_26">
    <path clip-path="url(#pfea020e116)" d="M 304.629677 288.514319 
L 353.125161 288.514319 
L 353.125161 284.502204 
L 304.629677 284.502204 
z
" style="fill:#80b1d3;"/>
   </g>
   <g id="patch_27">
    <path clip-path="url(#pfea020e116)" d="M 122.771613 306.511554 
L 171.267097 306.511554 
L 171.267097 297.550825 
L 122.771613 297.550825 
z
"/>
   </g>
   <g id="patch_28">
    <path clip-path="url(#pfea020e116)" d="M 183.390968 298.023982 
L 231.886452 298.023982 
L 231.886452 288.454774 
L 183.390968 288.454774 
z
"/>
   </g>
   <g id="patch_29">
    <path clip-path="url(#pfea020e116)" d="M 244.010323 292.3167 
L 292.505806 292.3167 
L 292.505806 282.467703 
L 244.010323 282.467703 
z
"/>
   </g>
   <g id="patch_30">
    <path clip-path="url(#pfea020e116)" d="M 304.629677 284.502204 
L 353.125161 284.502204 
L 353.125161 279.29499 
L 304.629677 279.29499 
z
"/>
   </g>
   <g id="patch_31">
    <path clip-path="url(#pfea020e116)" d="M 122.771613 297.550825 
L 171.267097 297.550825 
L 171.267097 292.086966 
L 122.771613 292.086966 
z
" style="fill:#cbd5e8;"/>
   </g>
   <g id="patch_32">
    <path clip-path="url(#pfea020e116)" d="M 183.390968 288.454774 
L 231.886452 288.454774 
L 231.886452 281.633161 
L 183.390968 281.633161 
z
" style="fill:#cbd5e8;"/>
   </g>
   <g id="patch_33">
    <path clip-path="url(#pfea020e116)" d="M 244.010323 282.467703 
L 292.505806 282.467703 
L 292.505806 274.925677 
L 244.010323 274.925677 
z
" style="fill:#cbd5e8;"/>
   </g>
   <g id="patch_34">
    <path clip-path="url(#pfea020e116)" d="M 304.629677 279.29499 
L 353.125161 279.29499 
L 353.125161 271.014666 
L 304.629677 271.014666 
z
" style="fill:#cbd5e8;"/>
   </g>
   <g id="patch_35">
    <path clip-path="url(#pfea020e116)" d="M 122.771613 292.086966 
L 171.267097 292.086966 
L 171.267097 255.369835 
L 122.771613 255.369835 
z
" style="fill:#4daf4a;"/>
   </g>
   <g id="patch_36">
    <path clip-path="url(#pfea020e116)" d="M 183.390968 281.633161 
L 231.886452 281.633161 
L 231.886452 255.483642 
L 183.390968 255.483642 
z
" style="fill:#4daf4a;"/>
   </g>
   <g id="patch_37">
    <path clip-path="url(#pfea020e116)" d="M 244.010323 274.925677 
L 292.505806 274.925677 
L 292.505806 251.146115 
L 244.010323 251.146115 
z
" style="fill:#4daf4a;"/>
   </g>
   <g id="patch_38">
    <path clip-path="url(#pfea020e116)" d="M 304.629677 271.014666 
L 353.125161 271.014666 
L 353.125161 247.454158 
L 304.629677 247.454158 
z
" style="fill:#4daf4a;"/>
   </g>
   <g id="patch_39">
    <path clip-path="url(#pfea020e116)" d="M 122.771613 255.369835 
L 171.267097 255.369835 
L 171.267097 227.613432 
L 122.771613 227.613432 
z
" style="fill:#b3e2cd;"/>
   </g>
   <g id="patch_40">
    <path clip-path="url(#pfea020e116)" d="M 183.390968 255.483642 
L 231.886452 255.483642 
L 231.886452 227.628719 
L 183.390968 227.628719 
z
" style="fill:#b3e2cd;"/>
   </g>
   <g id="patch_41">
    <path clip-path="url(#pfea020e116)" d="M 244.010323 251.146115 
L 292.505806 251.146115 
L 292.505806 223.373716 
L 244.010323 223.373716 
z
" style="fill:#b3e2cd;"/>
   </g>
   <g id="patch_42">
    <path clip-path="url(#pfea020e116)" d="M 304.629677 247.454158 
L 353.125161 247.454158 
L 353.125161 219.283986 
L 304.629677 219.283986 
z
" style="fill:#b3e2cd;"/>
   </g>
   <g id="patch_43">
    <path clip-path="url(#pfea020e116)" d="M 122.771613 227.613432 
L 171.267097 227.613432 
L 171.267097 79.542857 
L 122.771613 79.542857 
z
" style="fill:#b3de69;"/>
   </g>
   <g id="patch_44">
    <path clip-path="url(#pfea020e116)" d="M 183.390968 227.628719 
L 231.886452 227.628719 
L 231.886452 79.542857 
L 183.390968 79.542857 
z
" style="fill:#b3de69;"/>
   </g>
   <g id="patch_45">
    <path clip-path="url(#pfea020e116)" d="M 244.010323 223.373716 
L 292.505806 223.373716 
L 292.505806 79.542857 
L 244.010323 79.542857 
z
" style="fill:#b3de69;"/>
   </g>
   <g id="patch_46">
    <path clip-path="url(#pfea020e116)" d="M 304.629677 219.283986 
L 353.125161 219.283986 
L 353.125161 79.542857 
L 304.629677 79.542857 
z
" style="fill:#b3de69;"/>
   </g>
   <g id="matplotlib.axis_1">
    <g id="xtick_1">
     <g id="line2d_1">
      <defs>
       <path d="M 0 0 
L 0 3.5 
" id="mc173803f70" style="stroke:#000000;stroke-width:0.8;"/>
      </defs>
      <g>
       <use style="stroke:#000000;stroke-width:0.8;" x="147.019355" xlink:href="#mc173803f70" y="518.4"/>
      </g>
     </g>
     <g id="text_1">
      <!-- 1990 -->
      <defs>
       <path d="M 12.40625 8.296875 
L 28.515625 8.296875 
L 28.515625 63.921875 
L 10.984375 60.40625 
L 10.984375 69.390625 
L 28.421875 72.90625 
L 38.28125 72.90625 
L 38.28125 8.296875 
L 54.390625 8.296875 
L 54.390625 0 
L 12.40625 0 
z
" id="DejaVuSans-49"/>
       <path d="M 10.984375 1.515625 
L 10.984375 10.5 
Q 14.703125 8.734375 18.5 7.8125 
Q 22.3125 6.890625 25.984375 6.890625 
Q 35.75 6.890625 40.890625 13.453125 
Q 46.046875 20.015625 46.78125 33.40625 
Q 43.953125 29.203125 39.59375 26.953125 
Q 35.25 24.703125 29.984375 24.703125 
Q 19.046875 24.703125 12.671875 31.3125 
Q 6.296875 37.9375 6.296875 49.421875 
Q 6.296875 60.640625 12.9375 67.421875 
Q 19.578125 74.21875 30.609375 74.21875 
Q 43.265625 74.21875 49.921875 64.515625 
Q 56.59375 54.828125 56.59375 36.375 
Q 56.59375 19.140625 48.40625 8.859375 
Q 40.234375 -1.421875 26.421875 -1.421875 
Q 22.703125 -1.421875 18.890625 -0.6875 
Q 15.09375 0.046875 10.984375 1.515625 
z
M 30.609375 32.421875 
Q 37.25 32.421875 41.125 36.953125 
Q 45.015625 41.5 45.015625 49.421875 
Q 45.015625 57.28125 41.125 61.84375 
Q 37.25 66.40625 30.609375 66.40625 
Q 23.96875 66.40625 20.09375 61.84375 
Q 16.21875 57.28125 16.21875 49.421875 
Q 16.21875 41.5 20.09375 36.953125 
Q 23.96875 32.421875 30.609375 32.421875 
z
" id="DejaVuSans-57"/>
       <path d="M 31.78125 66.40625 
Q 24.171875 66.40625 20.328125 58.90625 
Q 16.5 51.421875 16.5 36.375 
Q 16.5 21.390625 20.328125 13.890625 
Q 24.171875 6.390625 31.78125 6.390625 
Q 39.453125 6.390625 43.28125 13.890625 
Q 47.125 21.390625 47.125 36.375 
Q 47.125 51.421875 43.28125 58.90625 
Q 39.453125 66.40625 31.78125 66.40625 
z
M 31.78125 74.21875 
Q 44.046875 74.21875 50.515625 64.515625 
Q 56.984375 54.828125 56.984375 36.375 
Q 56.984375 17.96875 50.515625 8.265625 
Q 44.046875 -1.421875 31.78125 -1.421875 
Q 19.53125 -1.421875 13.0625 8.265625 
Q 6.59375 17.96875 6.59375 36.375 
Q 6.59375 54.828125 13.0625 64.515625 
Q 19.53125 74.21875 31.78125 74.21875 
z
" id="DejaVuSans-48"/>
      </defs>
      <g transform="translate(134.294355 532.998438)scale(0.1 -0.1)">
       <use xlink:href="#DejaVuSans-49"/>
       <use x="63.623047" xlink:href="#DejaVuSans-57"/>
       <use x="127.246094" xlink:href="#DejaVuSans-57"/>
       <use x="190.869141" xlink:href="#DejaVuSans-48"/>
      </g>
     </g>
    </g>
    <g id="xtick_2">
     <g id="line2d_2">
      <g>
       <use style="stroke:#000000;stroke-width:0.8;" x="207.63871" xlink:href="#mc173803f70" y="518.4"/>
      </g>
     </g>
     <g id="text_2">
      <!-- 2000 -->
      <defs>
       <path d="M 19.1875 8.296875 
L 53.609375 8.296875 
L 53.609375 0 
L 7.328125 0 
L 7.328125 8.296875 
Q 12.9375 14.109375 22.625 23.890625 
Q 32.328125 33.6875 34.8125 36.53125 
Q 39.546875 41.84375 41.421875 45.53125 
Q 43.3125 49.21875 43.3125 52.78125 
Q 43.3125 58.59375 39.234375 62.25 
Q 35.15625 65.921875 28.609375 65.921875 
Q 23.96875 65.921875 18.8125 64.3125 
Q 13.671875 62.703125 7.8125 59.421875 
L 7.8125 69.390625 
Q 13.765625 71.78125 18.9375 73 
Q 24.125 74.21875 28.421875 74.21875 
Q 39.75 74.21875 46.484375 68.546875 
Q 53.21875 62.890625 53.21875 53.421875 
Q 53.21875 48.921875 51.53125 44.890625 
Q 49.859375 40.875 45.40625 35.40625 
Q 44.1875 33.984375 37.640625 27.21875 
Q 31.109375 20.453125 19.1875 8.296875 
z
" id="DejaVuSans-50"/>
      </defs>
      <g transform="translate(194.91371 532.998438)scale(0.1 -0.1)">
       <use xlink:href="#DejaVuSans-50"/>
       <use x="63.623047" xlink:href="#DejaVuSans-48"/>
       <use x="127.246094" xlink:href="#DejaVuSans-48"/>
       <use x="190.869141" xlink:href="#DejaVuSans-48"/>
      </g>
     </g>
    </g>
    <g id="xtick_3">
     <g id="line2d_3">
      <g>
       <use style="stroke:#000000;stroke-width:0.8;" x="268.258065" xlink:href="#mc173803f70" y="518.4"/>
      </g>
     </g>
     <g id="text_3">
      <!-- 2005 -->
      <defs>
       <path d="M 10.796875 72.90625 
L 49.515625 72.90625 
L 49.515625 64.59375 
L 19.828125 64.59375 
L 19.828125 46.734375 
Q 21.96875 47.46875 24.109375 47.828125 
Q 26.265625 48.1875 28.421875 48.1875 
Q 40.625 48.1875 47.75 41.5 
Q 54.890625 34.8125 54.890625 23.390625 
Q 54.890625 11.625 47.5625 5.09375 
Q 40.234375 -1.421875 26.90625 -1.421875 
Q 22.3125 -1.421875 17.546875 -0.640625 
Q 12.796875 0.140625 7.71875 1.703125 
L 7.71875 11.625 
Q 12.109375 9.234375 16.796875 8.0625 
Q 21.484375 6.890625 26.703125 6.890625 
Q 35.15625 6.890625 40.078125 11.328125 
Q 45.015625 15.765625 45.015625 23.390625 
Q 45.015625 31 40.078125 35.4375 
Q 35.15625 39.890625 26.703125 39.890625 
Q 22.75 39.890625 18.8125 39.015625 
Q 14.890625 38.140625 10.796875 36.28125 
z
" id="DejaVuSans-53"/>
      </defs>
      <g transform="translate(255.533065 532.998438)scale(0.1 -0.1)">
       <use xlink:href="#DejaVuSans-50"/>
       <use x="63.623047" xlink:href="#DejaVuSans-48"/>
       <use x="127.246094" xlink:href="#DejaVuSans-48"/>
       <use x="190.869141" xlink:href="#DejaVuSans-53"/>
      </g>
     </g>
    </g>
    <g id="xtick_4">
     <g id="line2d_4">
      <g>
       <use style="stroke:#000000;stroke-width:0.8;" x="328.877419" xlink:href="#mc173803f70" y="518.4"/>
      </g>
     </g>
     <g id="text_4">
      <!-- 2010 -->
      <g transform="translate(316.152419 532.998438)scale(0.1 -0.1)">
       <use xlink:href="#DejaVuSans-50"/>
       <use x="63.623047" xlink:href="#DejaVuSans-48"/>
       <use x="127.246094" xlink:href="#DejaVuSans-49"/>
       <use x="190.869141" xlink:href="#DejaVuSans-48"/>
      </g>
     </g>
    </g>
    <g id="text_5">
     <!-- Year -->
     <defs>
      <path d="M -0.203125 72.90625 
L 10.40625 72.90625 
L 30.609375 42.921875 
L 50.6875 72.90625 
L 61.28125 72.90625 
L 35.5 34.71875 
L 35.5 0 
L 25.59375 0 
L 25.59375 34.71875 
z
" id="DejaVuSans-89"/>
      <path d="M 56.203125 29.59375 
L 56.203125 25.203125 
L 14.890625 25.203125 
Q 15.484375 15.921875 20.484375 11.0625 
Q 25.484375 6.203125 34.421875 6.203125 
Q 39.59375 6.203125 44.453125 7.46875 
Q 49.3125 8.734375 54.109375 11.28125 
L 54.109375 2.78125 
Q 49.265625 0.734375 44.1875 -0.34375 
Q 39.109375 -1.421875 33.890625 -1.421875 
Q 20.796875 -1.421875 13.15625 6.1875 
Q 5.515625 13.8125 5.515625 26.8125 
Q 5.515625 40.234375 12.765625 48.109375 
Q 20.015625 56 32.328125 56 
Q 43.359375 56 49.78125 48.890625 
Q 56.203125 41.796875 56.203125 29.59375 
z
M 47.21875 32.234375 
Q 47.125 39.59375 43.09375 43.984375 
Q 39.0625 48.390625 32.421875 48.390625 
Q 24.90625 48.390625 20.390625 44.140625 
Q 15.875 39.890625 15.1875 32.171875 
z
" id="DejaVuSans-101"/>
      <path d="M 34.28125 27.484375 
Q 23.390625 27.484375 19.1875 25 
Q 14.984375 22.515625 14.984375 16.5 
Q 14.984375 11.71875 18.140625 8.90625 
Q 21.296875 6.109375 26.703125 6.109375 
Q 34.1875 6.109375 38.703125 11.40625 
Q 43.21875 16.703125 43.21875 25.484375 
L 43.21875 27.484375 
z
M 52.203125 31.203125 
L 52.203125 0 
L 43.21875 0 
L 43.21875 8.296875 
Q 40.140625 3.328125 35.546875 0.953125 
Q 30.953125 -1.421875 24.3125 -1.421875 
Q 15.921875 -1.421875 10.953125 3.296875 
Q 6 8.015625 6 15.921875 
Q 6 25.140625 12.171875 29.828125 
Q 18.359375 34.515625 30.609375 34.515625 
L 43.21875 34.515625 
L 43.21875 35.40625 
Q 43.21875 41.609375 39.140625 45 
Q 35.0625 48.390625 27.6875 48.390625 
Q 23 48.390625 18.546875 47.265625 
Q 14.109375 46.140625 10.015625 43.890625 
L 10.015625 52.203125 
Q 14.9375 54.109375 19.578125 55.046875 
Q 24.21875 56 28.609375 56 
Q 40.484375 56 46.34375 49.84375 
Q 52.203125 43.703125 52.203125 31.203125 
z
" id="DejaVuSans-97"/>
      <path d="M 41.109375 46.296875 
Q 39.59375 47.171875 37.8125 47.578125 
Q 36.03125 48 33.890625 48 
Q 26.265625 48 22.1875 43.046875 
Q 18.109375 38.09375 18.109375 28.8125 
L 18.109375 0 
L 9.078125 0 
L 9.078125 54.6875 
L 18.109375 54.6875 
L 18.109375 46.1875 
Q 20.953125 51.171875 25.484375 53.578125 
Q 30.03125 56 36.53125 56 
Q 37.453125 56 38.578125 55.875 
Q 39.703125 55.765625 41.0625 55.515625 
z
" id="DejaVuSans-114"/>
     </defs>
     <g transform="translate(226.708543 546.676563)scale(0.1 -0.1)">
      <use xlink:href="#DejaVuSans-89"/>
      <use x="60.880859" xlink:href="#DejaVuSans-101"/>
      <use x="122.404297" xlink:href="#DejaVuSans-97"/>
      <use x="183.683594" xlink:href="#DejaVuSans-114"/>
     </g>
    </g>
   </g>
   <g id="matplotlib.axis_2">
    <g id="text_6">
     <!-- Fraction of growing stock volume -->
     <defs>
      <path d="M 9.8125 72.90625 
L 51.703125 72.90625 
L 51.703125 64.59375 
L 19.671875 64.59375 
L 19.671875 43.109375 
L 48.578125 43.109375 
L 48.578125 34.8125 
L 19.671875 34.8125 
L 19.671875 0 
L 9.8125 0 
z
" id="DejaVuSans-70"/>
      <path d="M 48.78125 52.59375 
L 48.78125 44.1875 
Q 44.96875 46.296875 41.140625 47.34375 
Q 37.3125 48.390625 33.40625 48.390625 
Q 24.65625 48.390625 19.8125 42.84375 
Q 14.984375 37.3125 14.984375 27.296875 
Q 14.984375 17.28125 19.8125 11.734375 
Q 24.65625 6.203125 33.40625 6.203125 
Q 37.3125 6.203125 41.140625 7.25 
Q 44.96875 8.296875 48.78125 10.40625 
L 48.78125 2.09375 
Q 45.015625 0.34375 40.984375 -0.53125 
Q 36.96875 -1.421875 32.421875 -1.421875 
Q 20.0625 -1.421875 12.78125 6.34375 
Q 5.515625 14.109375 5.515625 27.296875 
Q 5.515625 40.671875 12.859375 48.328125 
Q 20.21875 56 33.015625 56 
Q 37.15625 56 41.109375 55.140625 
Q 45.0625 54.296875 48.78125 52.59375 
z
" id="DejaVuSans-99"/>
      <path d="M 18.3125 70.21875 
L 18.3125 54.6875 
L 36.8125 54.6875 
L 36.8125 47.703125 
L 18.3125 47.703125 
L 18.3125 18.015625 
Q 18.3125 11.328125 20.140625 9.421875 
Q 21.96875 7.515625 27.59375 7.515625 
L 36.8125 7.515625 
L 36.8125 0 
L 27.59375 0 
Q 17.1875 0 13.234375 3.875 
Q 9.28125 7.765625 9.28125 18.015625 
L 9.28125 47.703125 
L 2.6875 47.703125 
L 2.6875 54.6875 
L 9.28125 54.6875 
L 9.28125 70.21875 
z
" id="DejaVuSans-116"/>
      <path d="M 9.421875 54.6875 
L 18.40625 54.6875 
L 18.40625 0 
L 9.421875 0 
z
M 9.421875 75.984375 
L 18.40625 75.984375 
L 18.40625 64.59375 
L 9.421875 64.59375 
z
" id="DejaVuSans-105"/>
      <path d="M 30.609375 48.390625 
Q 23.390625 48.390625 19.1875 42.75 
Q 14.984375 37.109375 14.984375 27.296875 
Q 14.984375 17.484375 19.15625 11.84375 
Q 23.34375 6.203125 30.609375 6.203125 
Q 37.796875 6.203125 41.984375 11.859375 
Q 46.1875 17.53125 46.1875 27.296875 
Q 46.1875 37.015625 41.984375 42.703125 
Q 37.796875 48.390625 30.609375 48.390625 
z
M 30.609375 56 
Q 42.328125 56 49.015625 48.375 
Q 55.71875 40.765625 55.71875 27.296875 
Q 55.71875 13.875 49.015625 6.21875 
Q 42.328125 -1.421875 30.609375 -1.421875 
Q 18.84375 -1.421875 12.171875 6.21875 
Q 5.515625 13.875 5.515625 27.296875 
Q 5.515625 40.765625 12.171875 48.375 
Q 18.84375 56 30.609375 56 
z
" id="DejaVuSans-111"/>
      <path d="M 54.890625 33.015625 
L 54.890625 0 
L 45.90625 0 
L 45.90625 32.71875 
Q 45.90625 40.484375 42.875 44.328125 
Q 39.84375 48.1875 33.796875 48.1875 
Q 26.515625 48.1875 22.3125 43.546875 
Q 18.109375 38.921875 18.109375 30.90625 
L 18.109375 0 
L 9.078125 0 
L 9.078125 54.6875 
L 18.109375 54.6875 
L 18.109375 46.1875 
Q 21.34375 51.125 25.703125 53.5625 
Q 30.078125 56 35.796875 56 
Q 45.21875 56 50.046875 50.171875 
Q 54.890625 44.34375 54.890625 33.015625 
z
" id="DejaVuSans-110"/>
      <path id="DejaVuSans-32"/>
      <path d="M 37.109375 75.984375 
L 37.109375 68.5 
L 28.515625 68.5 
Q 23.6875 68.5 21.796875 66.546875 
Q 19.921875 64.59375 19.921875 59.515625 
L 19.921875 54.6875 
L 34.71875 54.6875 
L 34.71875 47.703125 
L 19.921875 47.703125 
L 19.921875 0 
L 10.890625 0 
L 10.890625 47.703125 
L 2.296875 47.703125 
L 2.296875 54.6875 
L 10.890625 54.6875 
L 10.890625 58.5 
Q 10.890625 67.625 15.140625 71.796875 
Q 19.390625 75.984375 28.609375 75.984375 
z
" id="DejaVuSans-102"/>
      <path d="M 45.40625 27.984375 
Q 45.40625 37.75 41.375 43.109375 
Q 37.359375 48.484375 30.078125 48.484375 
Q 22.859375 48.484375 18.828125 43.109375 
Q 14.796875 37.75 14.796875 27.984375 
Q 14.796875 18.265625 18.828125 12.890625 
Q 22.859375 7.515625 30.078125 7.515625 
Q 37.359375 7.515625 41.375 12.890625 
Q 45.40625 18.265625 45.40625 27.984375 
z
M 54.390625 6.78125 
Q 54.390625 -7.171875 48.1875 -13.984375 
Q 42 -20.796875 29.203125 -20.796875 
Q 24.46875 -20.796875 20.265625 -20.09375 
Q 16.0625 -19.390625 12.109375 -17.921875 
L 12.109375 -9.1875 
Q 16.0625 -11.328125 19.921875 -12.34375 
Q 23.78125 -13.375 27.78125 -13.375 
Q 36.625 -13.375 41.015625 -8.765625 
Q 45.40625 -4.15625 45.40625 5.171875 
L 45.40625 9.625 
Q 42.625 4.78125 38.28125 2.390625 
Q 33.9375 0 27.875 0 
Q 17.828125 0 11.671875 7.65625 
Q 5.515625 15.328125 5.515625 27.984375 
Q 5.515625 40.671875 11.671875 48.328125 
Q 17.828125 56 27.875 56 
Q 33.9375 56 38.28125 53.609375 
Q 42.625 51.21875 45.40625 46.390625 
L 45.40625 54.6875 
L 54.390625 54.6875 
z
" id="DejaVuSans-103"/>
      <path d="M 4.203125 54.6875 
L 13.1875 54.6875 
L 24.421875 12.015625 
L 35.59375 54.6875 
L 46.1875 54.6875 
L 57.421875 12.015625 
L 68.609375 54.6875 
L 77.59375 54.6875 
L 63.28125 0 
L 52.6875 0 
L 40.921875 44.828125 
L 29.109375 0 
L 18.5 0 
z
" id="DejaVuSans-119"/>
      <path d="M 44.28125 53.078125 
L 44.28125 44.578125 
Q 40.484375 46.53125 36.375 47.5 
Q 32.28125 48.484375 27.875 48.484375 
Q 21.1875 48.484375 17.84375 46.4375 
Q 14.5 44.390625 14.5 40.28125 
Q 14.5 37.15625 16.890625 35.375 
Q 19.28125 33.59375 26.515625 31.984375 
L 29.59375 31.296875 
Q 39.15625 29.25 43.1875 25.515625 
Q 47.21875 21.78125 47.21875 15.09375 
Q 47.21875 7.46875 41.1875 3.015625 
Q 35.15625 -1.421875 24.609375 -1.421875 
Q 20.21875 -1.421875 15.453125 -0.5625 
Q 10.6875 0.296875 5.421875 2 
L 5.421875 11.28125 
Q 10.40625 8.6875 15.234375 7.390625 
Q 20.0625 6.109375 24.8125 6.109375 
Q 31.15625 6.109375 34.5625 8.28125 
Q 37.984375 10.453125 37.984375 14.40625 
Q 37.984375 18.0625 35.515625 20.015625 
Q 33.0625 21.96875 24.703125 23.78125 
L 21.578125 24.515625 
Q 13.234375 26.265625 9.515625 29.90625 
Q 5.8125 33.546875 5.8125 39.890625 
Q 5.8125 47.609375 11.28125 51.796875 
Q 16.75 56 26.8125 56 
Q 31.78125 56 36.171875 55.265625 
Q 40.578125 54.546875 44.28125 53.078125 
z
" id="DejaVuSans-115"/>
      <path d="M 9.078125 75.984375 
L 18.109375 75.984375 
L 18.109375 31.109375 
L 44.921875 54.6875 
L 56.390625 54.6875 
L 27.390625 29.109375 
L 57.625 0 
L 45.90625 0 
L 18.109375 26.703125 
L 18.109375 0 
L 9.078125 0 
z
" id="DejaVuSans-107"/>
      <path d="M 2.984375 54.6875 
L 12.5 54.6875 
L 29.59375 8.796875 
L 46.6875 54.6875 
L 56.203125 54.6875 
L 35.6875 0 
L 23.484375 0 
z
" id="DejaVuSans-118"/>
      <path d="M 9.421875 75.984375 
L 18.40625 75.984375 
L 18.40625 0 
L 9.421875 0 
z
" id="DejaVuSans-108"/>
      <path d="M 8.5 21.578125 
L 8.5 54.6875 
L 17.484375 54.6875 
L 17.484375 21.921875 
Q 17.484375 14.15625 20.5 10.265625 
Q 23.53125 6.390625 29.59375 6.390625 
Q 36.859375 6.390625 41.078125 11.03125 
Q 45.3125 15.671875 45.3125 23.6875 
L 45.3125 54.6875 
L 54.296875 54.6875 
L 54.296875 0 
L 45.3125 0 
L 45.3125 8.40625 
Q 42.046875 3.421875 37.71875 1 
Q 33.40625 -1.421875 27.6875 -1.421875 
Q 18.265625 -1.421875 13.375 4.4375 
Q 8.5 10.296875 8.5 21.578125 
z
M 31.109375 56 
z
" id="DejaVuSans-117"/>
      <path d="M 52 44.1875 
Q 55.375 50.25 60.0625 53.125 
Q 64.75 56 71.09375 56 
Q 79.640625 56 84.28125 50.015625 
Q 88.921875 44.046875 88.921875 33.015625 
L 88.921875 0 
L 79.890625 0 
L 79.890625 32.71875 
Q 79.890625 40.578125 77.09375 44.375 
Q 74.3125 48.1875 68.609375 48.1875 
Q 61.625 48.1875 57.5625 43.546875 
Q 53.515625 38.921875 53.515625 30.90625 
L 53.515625 0 
L 44.484375 0 
L 44.484375 32.71875 
Q 44.484375 40.625 41.703125 44.40625 
Q 38.921875 48.1875 33.109375 48.1875 
Q 26.21875 48.1875 22.15625 43.53125 
Q 18.109375 38.875 18.109375 30.90625 
L 18.109375 0 
L 9.078125 0 
L 9.078125 54.6875 
L 18.109375 54.6875 
L 18.109375 46.1875 
Q 21.1875 51.21875 25.484375 53.609375 
Q 29.78125 56 35.6875 56 
Q 41.65625 56 45.828125 52.96875 
Q 50 49.953125 52 44.1875 
z
" id="DejaVuSans-109"/>
     </defs>
     <g transform="translate(79.904375 388.071563)rotate(-90)scale(0.12 -0.12)">
      <use xlink:href="#DejaVuSans-70"/>
      <use x="57.410156" xlink:href="#DejaVuSans-114"/>
      <use x="98.523438" xlink:href="#DejaVuSans-97"/>
      <use x="159.802734" xlink:href="#DejaVuSans-99"/>
      <use x="214.783203" xlink:href="#DejaVuSans-116"/>
      <use x="253.992188" xlink:href="#DejaVuSans-105"/>
      <use x="281.775391" xlink:href="#DejaVuSans-111"/>
      <use x="342.957031" xlink:href="#DejaVuSans-110"/>
      <use x="406.335938" xlink:href="#DejaVuSans-32"/>
      <use x="438.123047" xlink:href="#DejaVuSans-111"/>
      <use x="499.304688" xlink:href="#DejaVuSans-102"/>
      <use x="534.509766" xlink:href="#DejaVuSans-32"/>
      <use x="566.296875" xlink:href="#DejaVuSans-103"/>
      <use x="629.773438" xlink:href="#DejaVuSans-114"/>
      <use x="670.855469" xlink:href="#DejaVuSans-111"/>
      <use x="732.037109" xlink:href="#DejaVuSans-119"/>
      <use x="813.824219" xlink:href="#DejaVuSans-105"/>
      <use x="841.607422" xlink:href="#DejaVuSans-110"/>
      <use x="904.986328" xlink:href="#DejaVuSans-103"/>
      <use x="968.462891" xlink:href="#DejaVuSans-32"/>
      <use x="1000.25" xlink:href="#DejaVuSans-115"/>
      <use x="1052.349609" xlink:href="#DejaVuSans-116"/>
      <use x="1091.558594" xlink:href="#DejaVuSans-111"/>
      <use x="1152.740234" xlink:href="#DejaVuSans-99"/>
      <use x="1207.720703" xlink:href="#DejaVuSans-107"/>
      <use x="1265.630859" xlink:href="#DejaVuSans-32"/>
      <use x="1297.417969" xlink:href="#DejaVuSans-118"/>
      <use x="1356.597656" xlink:href="#DejaVuSans-111"/>
      <use x="1417.779297" xlink:href="#DejaVuSans-108"/>
      <use x="1445.5625" xlink:href="#DejaVuSans-117"/>
      <use x="1508.941406" xlink:href="#DejaVuSans-109"/>
      <use x="1606.353516" xlink:href="#DejaVuSans-101"/>
     </g>
    </g>
   </g>
   <g id="patch_47">
    <path d="M 86.4 518.4 
L 389.496774 518.4 
" style="fill:none;stroke:#000000;stroke-linecap:square;stroke-linejoin:miter;stroke-width:0.8;"/>
   </g>
   <g id="text_7">
    <!-- Slovakia -->
    <defs>
     <path d="M 53.515625 70.515625 
L 53.515625 60.890625 
Q 47.90625 63.578125 42.921875 64.890625 
Q 37.9375 66.21875 33.296875 66.21875 
Q 25.25 66.21875 20.875 63.09375 
Q 16.5 59.96875 16.5 54.203125 
Q 16.5 49.359375 19.40625 46.890625 
Q 22.3125 44.4375 30.421875 42.921875 
L 36.375 41.703125 
Q 47.40625 39.59375 52.65625 34.296875 
Q 57.90625 29 57.90625 20.125 
Q 57.90625 9.515625 50.796875 4.046875 
Q 43.703125 -1.421875 29.984375 -1.421875 
Q 24.8125 -1.421875 18.96875 -0.25 
Q 13.140625 0.921875 6.890625 3.21875 
L 6.890625 13.375 
Q 12.890625 10.015625 18.65625 8.296875 
Q 24.421875 6.59375 29.984375 6.59375 
Q 38.421875 6.59375 43.015625 9.90625 
Q 47.609375 13.234375 47.609375 19.390625 
Q 47.609375 24.75 44.3125 27.78125 
Q 41.015625 30.8125 33.5 32.328125 
L 27.484375 33.5 
Q 16.453125 35.6875 11.515625 40.375 
Q 6.59375 45.0625 6.59375 53.421875 
Q 6.59375 63.09375 13.40625 68.65625 
Q 20.21875 74.21875 32.171875 74.21875 
Q 37.3125 74.21875 42.625 73.28125 
Q 47.953125 72.359375 53.515625 70.515625 
z
" id="DejaVuSans-83"/>
    </defs>
    <g transform="translate(101.554839 34.56)scale(0.22 -0.22)">
     <use xlink:href="#DejaVuSans-83"/>
     <use x="63.476562" xlink:href="#DejaVuSans-108"/>
     <use x="91.259766" xlink:href="#DejaVuSans-111"/>
     <use x="152.441406" xlink:href="#DejaVuSans-118"/>
     <use x="211.621094" xlink:href="#DejaVuSans-97"/>
     <use x="272.900391" xlink:href="#DejaVuSans-107"/>
     <use x="330.810547" xlink:href="#DejaVuSans-105"/>
     <use x="358.59375" xlink:href="#DejaVuSans-97"/>
    </g>
   </g>
  </g>
  <g id="axes_2">
   <g id="patch_48">
    <path d="M 480.425806 518.4 
L 783.522581 518.4 
L 783.522581 57.6 
L 480.425806 57.6 
z
" style="fill:#ffffff;"/>
   </g>
   <g id="patch_49">
    <path clip-path="url(#pdb2a80ef9d)" d="M 516.797419 518.4 
L 565.292903 518.4 
L 565.292903 380.785448 
L 516.797419 380.785448 
z
" style="fill:#377eb8;"/>
   </g>
   <g id="patch_50">
    <path clip-path="url(#pdb2a80ef9d)" d="M 577.416774 518.4 
L 625.912258 518.4 
L 625.912258 379.410989 
L 577.416774 379.410989 
z
" style="fill:#377eb8;"/>
   </g>
   <g id="patch_51">
    <path clip-path="url(#pdb2a80ef9d)" d="M 638.036129 518.4 
L 686.531613 518.4 
L 686.531613 381.499095 
L 638.036129 381.499095 
z
" style="fill:#377eb8;"/>
   </g>
   <g id="patch_52">
    <path clip-path="url(#pdb2a80ef9d)" d="M 698.655484 518.4 
L 747.150968 518.4 
L 747.150968 381.588096 
L 698.655484 381.588096 
z
" style="fill:#377eb8;"/>
   </g>
   <g id="patch_53">
    <path clip-path="url(#pdb2a80ef9d)" d="M 516.797419 380.785448 
L 565.292903 380.785448 
L 565.292903 355.093116 
L 516.797419 355.093116 
z
" style="fill:#e41a1c;"/>
   </g>
   <g id="patch_54">
    <path clip-path="url(#pdb2a80ef9d)" d="M 577.416774 379.410989 
L 625.912258 379.410989 
L 625.912258 357.125275 
L 577.416774 357.125275 
z
" style="fill:#e41a1c;"/>
   </g>
   <g id="patch_55">
    <path clip-path="url(#pdb2a80ef9d)" d="M 638.036129 381.499095 
L 686.531613 381.499095 
L 686.531613 357.098591 
L 638.036129 357.098591 
z
" style="fill:#e41a1c;"/>
   </g>
   <g id="patch_56">
    <path clip-path="url(#pdb2a80ef9d)" d="M 698.655484 381.588096 
L 747.150968 381.588096 
L 747.150968 356.840919 
L 698.655484 356.840919 
z
" style="fill:#e41a1c;"/>
   </g>
   <g id="patch_57">
    <path clip-path="url(#pdb2a80ef9d)" d="M 516.797419 355.093116 
L 565.292903 355.093116 
L 565.292903 344.816183 
L 516.797419 344.816183 
z
" style="fill:#a65628;"/>
   </g>
   <g id="patch_58">
    <path clip-path="url(#pdb2a80ef9d)" d="M 577.416774 357.125275 
L 625.912258 357.125275 
L 625.912258 342.883516 
L 577.416774 342.883516 
z
" style="fill:#a65628;"/>
   </g>
   <g id="patch_59">
    <path clip-path="url(#pdb2a80ef9d)" d="M 638.036129 357.098591 
L 686.531613 357.098591 
L 686.531613 342.904067 
L 638.036129 342.904067 
z
" style="fill:#a65628;"/>
   </g>
   <g id="patch_60">
    <path clip-path="url(#pdb2a80ef9d)" d="M 698.655484 356.840919 
L 747.150968 356.840919 
L 747.150968 342.360038 
L 698.655484 342.360038 
z
" style="fill:#a65628;"/>
   </g>
   <g id="patch_61">
    <path clip-path="url(#pdb2a80ef9d)" d="M 516.797419 344.816183 
L 565.292903 344.816183 
L 565.292903 333.415211 
L 516.797419 333.415211 
z
" style="fill:#984ea3;"/>
   </g>
   <g id="patch_62">
    <path clip-path="url(#pdb2a80ef9d)" d="M 577.416774 342.883516 
L 625.912258 342.883516 
L 625.912258 335.762637 
L 577.416774 335.762637 
z
" style="fill:#984ea3;"/>
   </g>
   <g id="patch_63">
    <path clip-path="url(#pdb2a80ef9d)" d="M 638.036129 342.904067 
L 686.531613 342.904067 
L 686.531613 333.636568 
L 638.036129 333.636568 
z
" style="fill:#984ea3;"/>
   </g>
   <g id="patch_64">
    <path clip-path="url(#pdb2a80ef9d)" d="M 698.655484 342.360038 
L 747.150968 342.360038 
L 747.150968 332.526007 
L 698.655484 332.526007 
z
" style="fill:#984ea3;"/>
   </g>
   <g id="patch_65">
    <path clip-path="url(#pdb2a80ef9d)" d="M 516.797419 333.415211 
L 565.292903 333.415211 
L 565.292903 326.670974 
L 516.797419 326.670974 
z
" style="fill:#f781bf;"/>
   </g>
   <g id="patch_66">
    <path clip-path="url(#pdb2a80ef9d)" d="M 577.416774 335.762637 
L 625.912258 335.762637 
L 625.912258 329.169231 
L 577.416774 329.169231 
z
" style="fill:#f781bf;"/>
   </g>
   <g id="patch_67">
    <path clip-path="url(#pdb2a80ef9d)" d="M 638.036129 333.636568 
L 686.531613 333.636568 
L 686.531613 325.77679 
L 638.036129 325.77679 
z
" style="fill:#f781bf;"/>
   </g>
   <g id="patch_68">
    <path clip-path="url(#pdb2a80ef9d)" d="M 698.655484 332.526007 
L 747.150968 332.526007 
L 747.150968 325.393633 
L 698.655484 325.393633 
z
" style="fill:#f781bf;"/>
   </g>
   <g id="patch_69">
    <path clip-path="url(#pdb2a80ef9d)" d="M 516.797419 326.670974 
L 565.292903 326.670974 
L 565.292903 288.614207 
L 516.797419 288.614207 
z
"/>
   </g>
   <g id="patch_70">
    <path clip-path="url(#pdb2a80ef9d)" d="M 577.416774 329.169231 
L 625.912258 329.169231 
L 625.912258 289.872527 
L 577.416774 289.872527 
z
"/>
   </g>
   <g id="patch_71">
    <path clip-path="url(#pdb2a80ef9d)" d="M 638.036129 325.77679 
L 686.531613 325.77679 
L 686.531613 280.025845 
L 638.036129 280.025845 
z
"/>
   </g>
   <g id="patch_72">
    <path clip-path="url(#pdb2a80ef9d)" d="M 698.655484 325.393633 
L 747.150968 325.393633 
L 747.150968 276.007345 
L 698.655484 276.007345 
z
"/>
   </g>
   <g id="patch_73">
    <path clip-path="url(#pdb2a80ef9d)" d="M 516.797419 288.614207 
L 565.292903 288.614207 
L 565.292903 267.257456 
L 516.797419 267.257456 
z
" style="fill:#b3e2cd;"/>
   </g>
   <g id="patch_74">
    <path clip-path="url(#pdb2a80ef9d)" d="M 577.416774 289.872527 
L 625.912258 289.872527 
L 625.912258 266.795604 
L 577.416774 266.795604 
z
" style="fill:#b3e2cd;"/>
   </g>
   <g id="patch_75">
    <path clip-path="url(#pdb2a80ef9d)" d="M 638.036129 280.025845 
L 686.531613 280.025845 
L 686.531613 255.625341 
L 638.036129 255.625341 
z
" style="fill:#b3e2cd;"/>
   </g>
   <g id="patch_76">
    <path clip-path="url(#pdb2a80ef9d)" d="M 698.655484 276.007345 
L 747.150968 276.007345 
L 747.150968 250.395638 
L 698.655484 250.395638 
z
" style="fill:#b3e2cd;"/>
   </g>
   <g id="patch_77">
    <path clip-path="url(#pdb2a80ef9d)" d="M 516.797419 267.257456 
L 565.292903 267.257456 
L 565.292903 224.222801 
L 516.797419 224.222801 
z
" style="fill:#4daf4a;"/>
   </g>
   <g id="patch_78">
    <path clip-path="url(#pdb2a80ef9d)" d="M 577.416774 266.795604 
L 625.912258 266.795604 
L 625.912258 226.18022 
L 577.416774 226.18022 
z
" style="fill:#4daf4a;"/>
   </g>
   <g id="patch_79">
    <path clip-path="url(#pdb2a80ef9d)" d="M 638.036129 255.625341 
L 686.531613 255.625341 
L 686.531613 218.320724 
L 638.036129 218.320724 
z
" style="fill:#4daf4a;"/>
   </g>
   <g id="patch_80">
    <path clip-path="url(#pdb2a80ef9d)" d="M 698.655484 250.395638 
L 747.150968 250.395638 
L 747.150968 216.246695 
L 698.655484 216.246695 
z
" style="fill:#4daf4a;"/>
   </g>
   <g id="patch_81">
    <path clip-path="url(#pdb2a80ef9d)" d="M 516.797419 224.222801 
L 565.292903 224.222801 
L 565.292903 79.542857 
L 516.797419 79.542857 
z
" style="fill:#b3de69;"/>
   </g>
   <g id="patch_82">
    <path clip-path="url(#pdb2a80ef9d)" d="M 577.416774 226.18022 
L 625.912258 226.18022 
L 625.912258 79.542857 
L 577.416774 79.542857 
z
" style="fill:#b3de69;"/>
   </g>
   <g id="patch_83">
    <path clip-path="url(#pdb2a80ef9d)" d="M 638.036129 218.320724 
L 686.531613 218.320724 
L 686.531613 79.542857 
L 638.036129 79.542857 
z
" style="fill:#b3de69;"/>
   </g>
   <g id="patch_84">
    <path clip-path="url(#pdb2a80ef9d)" d="M 698.655484 216.246695 
L 747.150968 216.246695 
L 747.150968 79.542857 
L 698.655484 79.542857 
z
" style="fill:#b3de69;"/>
   </g>
   <g id="matplotlib.axis_3">
    <g id="xtick_5">
     <g id="line2d_5">
      <g>
       <use style="stroke:#000000;stroke-width:0.8;" x="541.045161" xlink:href="#mc173803f70" y="518.4"/>
      </g>
     </g>
     <g id="text_8">
      <!-- 1990 -->
      <g transform="translate(528.320161 532.998438)scale(0.1 -0.1)">
       <use xlink:href="#DejaVuSans-49"/>
       <use x="63.623047" xlink:href="#DejaVuSans-57"/>
       <use x="127.246094" xlink:href="#DejaVuSans-57"/>
       <use x="190.869141" xlink:href="#DejaVuSans-48"/>
      </g>
     </g>
    </g>
    <g id="xtick_6">
     <g id="line2d_6">
      <g>
       <use style="stroke:#000000;stroke-width:0.8;" x="601.664516" xlink:href="#mc173803f70" y="518.4"/>
      </g>
     </g>
     <g id="text_9">
      <!-- 2000 -->
      <g transform="translate(588.939516 532.998438)scale(0.1 -0.1)">
       <use xlink:href="#DejaVuSans-50"/>
       <use x="63.623047" xlink:href="#DejaVuSans-48"/>
       <use x="127.246094" xlink:href="#DejaVuSans-48"/>
       <use x="190.869141" xlink:href="#DejaVuSans-48"/>
      </g>
     </g>
    </g>
    <g id="xtick_7">
     <g id="line2d_7">
      <g>
       <use style="stroke:#000000;stroke-width:0.8;" x="662.283871" xlink:href="#mc173803f70" y="518.4"/>
      </g>
     </g>
     <g id="text_10">
      <!-- 2005 -->
      <g transform="translate(649.558871 532.998438)scale(0.1 -0.1)">
       <use xlink:href="#DejaVuSans-50"/>
       <use x="63.623047" xlink:href="#DejaVuSans-48"/>
       <use x="127.246094" xlink:href="#DejaVuSans-48"/>
       <use x="190.869141" xlink:href="#DejaVuSans-53"/>
      </g>
     </g>
    </g>
    <g id="xtick_8">
     <g id="line2d_8">
      <g>
       <use style="stroke:#000000;stroke-width:0.8;" x="722.903226" xlink:href="#mc173803f70" y="518.4"/>
      </g>
     </g>
     <g id="text_11">
      <!-- 2010 -->
      <g transform="translate(710.178226 532.998438)scale(0.1 -0.1)">
       <use xlink:href="#DejaVuSans-50"/>
       <use x="63.623047" xlink:href="#DejaVuSans-48"/>
       <use x="127.246094" xlink:href="#DejaVuSans-49"/>
       <use x="190.869141" xlink:href="#DejaVuSans-48"/>
      </g>
     </g>
    </g>
    <g id="text_12">
     <!-- Year -->
     <g transform="translate(620.73435 546.676563)scale(0.1 -0.1)">
      <use xlink:href="#DejaVuSans-89"/>
      <use x="60.880859" xlink:href="#DejaVuSans-101"/>
      <use x="122.404297" xlink:href="#DejaVuSans-97"/>
      <use x="183.683594" xlink:href="#DejaVuSans-114"/>
     </g>
    </g>
   </g>
   <g id="matplotlib.axis_4"/>
   <g id="patch_85">
    <path d="M 480.425806 518.4 
L 783.522581 518.4 
" style="fill:none;stroke:#000000;stroke-linecap:square;stroke-linejoin:miter;stroke-width:0.8;"/>
   </g>
   <g id="text_13">
    <!-- Slovenia -->
    <g transform="translate(495.580645 34.56)scale(0.22 -0.22)">
     <use xlink:href="#DejaVuSans-83"/>
     <use x="63.476562" xlink:href="#DejaVuSans-108"/>
     <use x="91.259766" xlink:href="#DejaVuSans-111"/>
     <use x="152.441406" xlink:href="#DejaVuSans-118"/>
     <use x="211.621094" xlink:href="#DejaVuSans-101"/>
     <use x="273.144531" xlink:href="#DejaVuSans-110"/>
     <use x="336.523438" xlink:href="#DejaVuSans-105"/>
     <use x="364.306641" xlink:href="#DejaVuSans-97"/>
    </g>
   </g>
  </g>
  <g id="axes_3">
   <g id="patch_86">
    <path d="M 874.451613 518.4 
L 1177.548387 518.4 
L 1177.548387 57.6 
L 874.451613 57.6 
z
" style="fill:#ffffff;"/>
   </g>
   <g id="patch_87">
    <path clip-path="url(#p9c4cb9cd60)" d="M 910.823226 518.4 
L 959.31871 518.4 
L 959.31871 454.99808 
L 910.823226 454.99808 
z
" style="fill:#e41a1c;"/>
   </g>
   <g id="patch_88">
    <path clip-path="url(#p9c4cb9cd60)" d="M 971.442581 518.4 
L 1019.938065 518.4 
L 1019.938065 446.714669 
L 971.442581 446.714669 
z
" style="fill:#e41a1c;"/>
   </g>
   <g id="patch_89">
    <path clip-path="url(#p9c4cb9cd60)" d="M 1032.061935 518.4 
L 1080.557419 518.4 
L 1080.557419 444.0387 
L 1032.061935 444.0387 
z
" style="fill:#e41a1c;"/>
   </g>
   <g id="patch_90">
    <path clip-path="url(#p9c4cb9cd60)" d="M 1092.68129 518.4 
L 1141.176774 518.4 
L 1141.176774 443.837418 
L 1092.68129 443.837418 
z
" style="fill:#e41a1c;"/>
   </g>
   <g id="patch_91">
    <path clip-path="url(#p9c4cb9cd60)" d="M 910.823226 454.99808 
L 959.31871 454.99808 
L 959.31871 414.525893 
L 910.823226 414.525893 
z
" style="fill:#377eb8;"/>
   </g>
   <g id="patch_92">
    <path clip-path="url(#p9c4cb9cd60)" d="M 971.442581 446.714669 
L 1019.938065 446.714669 
L 1019.938065 412.06221 
L 971.442581 412.06221 
z
" style="fill:#377eb8;"/>
   </g>
   <g id="patch_93">
    <path clip-path="url(#p9c4cb9cd60)" d="M 1032.061935 444.0387 
L 1080.557419 444.0387 
L 1080.557419 411.266313 
L 1032.061935 411.266313 
z
" style="fill:#377eb8;"/>
   </g>
   <g id="patch_94">
    <path clip-path="url(#p9c4cb9cd60)" d="M 1092.68129 443.837418 
L 1141.176774 443.837418 
L 1141.176774 411.620129 
L 1092.68129 411.620129 
z
" style="fill:#377eb8;"/>
   </g>
   <g id="patch_95">
    <path clip-path="url(#p9c4cb9cd60)" d="M 910.823226 414.525893 
L 959.31871 414.525893 
L 959.31871 313.210595 
L 910.823226 313.210595 
z
"/>
   </g>
   <g id="patch_96">
    <path clip-path="url(#p9c4cb9cd60)" d="M 971.442581 412.06221 
L 1019.938065 412.06221 
L 1019.938065 300.349006 
L 971.442581 300.349006 
z
"/>
   </g>
   <g id="patch_97">
    <path clip-path="url(#p9c4cb9cd60)" d="M 1032.061935 411.266313 
L 1080.557419 411.266313 
L 1080.557419 296.194049 
L 1032.061935 296.194049 
z
"/>
   </g>
   <g id="patch_98">
    <path clip-path="url(#p9c4cb9cd60)" d="M 1092.68129 411.620129 
L 1141.176774 411.620129 
L 1141.176774 289.080415 
L 1092.68129 289.080415 
z
"/>
   </g>
   <g id="patch_99">
    <path clip-path="url(#p9c4cb9cd60)" d="M 910.823226 313.210595 
L 959.31871 313.210595 
L 959.31871 79.542857 
L 910.823226 79.542857 
z
" style="fill:#b3e2cd;"/>
   </g>
   <g id="patch_100">
    <path clip-path="url(#p9c4cb9cd60)" d="M 971.442581 300.349006 
L 1019.938065 300.349006 
L 1019.938065 79.542857 
L 971.442581 79.542857 
z
" style="fill:#b3e2cd;"/>
   </g>
   <g id="patch_101">
    <path clip-path="url(#p9c4cb9cd60)" d="M 1032.061935 296.194049 
L 1080.557419 296.194049 
L 1080.557419 79.542857 
L 1032.061935 79.542857 
z
" style="fill:#b3e2cd;"/>
   </g>
   <g id="patch_102">
    <path clip-path="url(#p9c4cb9cd60)" d="M 1092.68129 289.080415 
L 1141.176774 289.080415 
L 1141.176774 79.542857 
L 1092.68129 79.542857 
z
" style="fill:#b3e2cd;"/>
   </g>
   <g id="matplotlib.axis_5">
    <g id="xtick_9">
     <g id="line2d_9">
      <g>
       <use style="stroke:#000000;stroke-width:0.8;" x="935.070968" xlink:href="#mc173803f70" y="518.4"/>
      </g>
     </g>
     <g id="text_14">
      <!-- 1990 -->
      <g transform="translate(922.345968 532.998438)scale(0.1 -0.1)">
       <use xlink:href="#DejaVuSans-49"/>
       <use x="63.623047" xlink:href="#DejaVuSans-57"/>
       <use x="127.246094" xlink:href="#DejaVuSans-57"/>
       <use x="190.869141" xlink:href="#DejaVuSans-48"/>
      </g>
     </g>
    </g>
    <g id="xtick_10">
     <g id="line2d_10">
      <g>
       <use style="stroke:#000000;stroke-width:0.8;" x="995.690323" xlink:href="#mc173803f70" y="518.4"/>
      </g>
     </g>
     <g id="text_15">
      <!-- 2000 -->
      <g transform="translate(982.965323 532.998438)scale(0.1 -0.1)">
       <use xlink:href="#DejaVuSans-50"/>
       <use x="63.623047" xlink:href="#DejaVuSans-48"/>
       <use x="127.246094" xlink:href="#DejaVuSans-48"/>
       <use x="190.869141" xlink:href="#DejaVuSans-48"/>
      </g>
     </g>
    </g>
    <g id="xtick_11">
     <g id="line2d_11">
      <g>
       <use style="stroke:#000000;stroke-width:0.8;" x="1056.309677" xlink:href="#mc173803f70" y="518.4"/>
      </g>
     </g>
     <g id="text_16">
      <!-- 2005 -->
      <g transform="translate(1043.584677 532.998438)scale(0.1 -0.1)">
       <use xlink:href="#DejaVuSans-50"/>
       <use x="63.623047" xlink:href="#DejaVuSans-48"/>
       <use x="127.246094" xlink:href="#DejaVuSans-48"/>
       <use x="190.869141" xlink:href="#DejaVuSans-53"/>
      </g>
     </g>
    </g>
    <g id="xtick_12">
     <g id="line2d_12">
      <g>
       <use style="stroke:#000000;stroke-width:0.8;" x="1116.929032" xlink:href="#mc173803f70" y="518.4"/>
      </g>
     </g>
     <g id="text_17">
      <!-- 2010 -->
      <g transform="translate(1104.204032 532.998438)scale(0.1 -0.1)">
       <use xlink:href="#DejaVuSans-50"/>
       <use x="63.623047" xlink:href="#DejaVuSans-48"/>
       <use x="127.246094" xlink:href="#DejaVuSans-49"/>
       <use x="190.869141" xlink:href="#DejaVuSans-48"/>
      </g>
     </g>
    </g>
    <g id="text_18">
     <!-- Year -->
     <g transform="translate(1014.760156 546.676563)scale(0.1 -0.1)">
      <use xlink:href="#DejaVuSans-89"/>
      <use x="60.880859" xlink:href="#DejaVuSans-101"/>
      <use x="122.404297" xlink:href="#DejaVuSans-97"/>
      <use x="183.683594" xlink:href="#DejaVuSans-114"/>
     </g>
    </g>
   </g>
   <g id="matplotlib.axis_6"/>
   <g id="patch_103">
    <path d="M 874.451613 518.4 
L 1177.548387 518.4 
" style="fill:none;stroke:#000000;stroke-linecap:square;stroke-linejoin:miter;stroke-width:0.8;"/>
   </g>
   <g id="text_19">
    <!-- Spain -->
    <defs>
     <path d="M 18.109375 8.203125 
L 18.109375 -20.796875 
L 9.078125 -20.796875 
L 9.078125 54.6875 
L 18.109375 54.6875 
L 18.109375 46.390625 
Q 20.953125 51.265625 25.265625 53.625 
Q 29.59375 56 35.59375 56 
Q 45.5625 56 51.78125 48.09375 
Q 58.015625 40.1875 58.015625 27.296875 
Q 58.015625 14.40625 51.78125 6.484375 
Q 45.5625 -1.421875 35.59375 -1.421875 
Q 29.59375 -1.421875 25.265625 0.953125 
Q 20.953125 3.328125 18.109375 8.203125 
z
M 48.6875 27.296875 
Q 48.6875 37.203125 44.609375 42.84375 
Q 40.53125 48.484375 33.40625 48.484375 
Q 26.265625 48.484375 22.1875 42.84375 
Q 18.109375 37.203125 18.109375 27.296875 
Q 18.109375 17.390625 22.1875 11.75 
Q 26.265625 6.109375 33.40625 6.109375 
Q 40.53125 6.109375 44.609375 11.75 
Q 48.6875 17.390625 48.6875 27.296875 
z
" id="DejaVuSans-112"/>
    </defs>
    <g transform="translate(889.606452 34.56)scale(0.22 -0.22)">
     <use xlink:href="#DejaVuSans-83"/>
     <use x="63.476562" xlink:href="#DejaVuSans-112"/>
     <use x="126.953125" xlink:href="#DejaVuSans-97"/>
     <use x="188.232422" xlink:href="#DejaVuSans-105"/>
     <use x="216.015625" xlink:href="#DejaVuSans-110"/>
    </g>
   </g>
  </g>
  <g id="axes_4">
   <g id="patch_104">
    <path d="M 1268.477419 518.4 
L 1571.574194 518.4 
L 1571.574194 57.6 
L 1268.477419 57.6 
z
" style="fill:#ffffff;"/>
   </g>
   <g id="patch_105">
    <path clip-path="url(#p201d2fa59f)" d="M 1426.087742 518.4 
L 1474.583226 518.4 
L 1474.583226 473.667339 
L 1426.087742 473.667339 
z
" style="fill:#ff7f00;"/>
   </g>
   <g id="patch_106">
    <path clip-path="url(#p201d2fa59f)" d="M 1486.707097 518.4 
L 1535.202581 518.4 
L 1535.202581 471.785293 
L 1486.707097 471.785293 
z
" style="fill:#ff7f00;"/>
   </g>
   <g id="patch_107">
    <path clip-path="url(#p201d2fa59f)" d="M 1426.087742 473.667339 
L 1474.583226 473.667339 
L 1474.583226 467.281273 
L 1426.087742 467.281273 
z
" style="fill:#f1e2cc;"/>
   </g>
   <g id="patch_108">
    <path clip-path="url(#p201d2fa59f)" d="M 1486.707097 471.785293 
L 1535.202581 471.785293 
L 1535.202581 465.100527 
L 1486.707097 465.100527 
z
" style="fill:#f1e2cc;"/>
   </g>
   <g id="patch_109">
    <path clip-path="url(#p201d2fa59f)" d="M 1426.087742 467.281273 
L 1474.583226 467.281273 
L 1474.583226 462.616274 
L 1426.087742 462.616274 
z
" style="fill:#e41a1c;"/>
   </g>
   <g id="patch_110">
    <path clip-path="url(#p201d2fa59f)" d="M 1486.707097 465.100527 
L 1535.202581 465.100527 
L 1535.202581 459.770579 
L 1486.707097 459.770579 
z
" style="fill:#e41a1c;"/>
   </g>
   <g id="patch_111">
    <path clip-path="url(#p201d2fa59f)" d="M 1426.087742 462.616274 
L 1474.583226 462.616274 
L 1474.583226 458.75142 
L 1426.087742 458.75142 
z
" style="fill:#f4cae4;"/>
   </g>
   <g id="patch_112">
    <path clip-path="url(#p201d2fa59f)" d="M 1486.707097 459.770579 
L 1535.202581 459.770579 
L 1535.202581 455.564497 
L 1486.707097 455.564497 
z
" style="fill:#f4cae4;"/>
   </g>
   <g id="patch_113">
    <path clip-path="url(#p201d2fa59f)" d="M 1426.087742 458.75142 
L 1474.583226 458.75142 
L 1474.583226 455.263994 
L 1426.087742 455.263994 
z
" style="fill:#377eb8;"/>
   </g>
   <g id="patch_114">
    <path clip-path="url(#p201d2fa59f)" d="M 1486.707097 455.564497 
L 1535.202581 455.564497 
L 1535.202581 452.631537 
L 1486.707097 452.631537 
z
" style="fill:#377eb8;"/>
   </g>
   <g id="patch_115">
    <path clip-path="url(#p201d2fa59f)" d="M 1426.087742 455.263994 
L 1474.583226 455.263994 
L 1474.583226 453.331567 
L 1426.087742 453.331567 
z
" style="fill:#fdb462;"/>
   </g>
   <g id="patch_116">
    <path clip-path="url(#p201d2fa59f)" d="M 1486.707097 452.631537 
L 1535.202581 452.631537 
L 1535.202581 450.636528 
L 1486.707097 450.636528 
z
" style="fill:#fdb462;"/>
   </g>
   <g id="patch_117">
    <path clip-path="url(#p201d2fa59f)" d="M 1426.087742 453.331567 
L 1474.583226 453.331567 
L 1474.583226 449.965723 
L 1426.087742 449.965723 
z
"/>
   </g>
   <g id="patch_118">
    <path clip-path="url(#p201d2fa59f)" d="M 1486.707097 450.636528 
L 1535.202581 450.636528 
L 1535.202581 446.805974 
L 1486.707097 446.805974 
z
"/>
   </g>
   <g id="patch_119">
    <path clip-path="url(#p201d2fa59f)" d="M 1426.087742 449.965723 
L 1474.583226 449.965723 
L 1474.583226 268.014857 
L 1426.087742 268.014857 
z
" style="fill:#b3e2cd;"/>
   </g>
   <g id="patch_120">
    <path clip-path="url(#p201d2fa59f)" d="M 1486.707097 446.805974 
L 1535.202581 446.805974 
L 1535.202581 263.753578 
L 1486.707097 263.753578 
z
" style="fill:#b3e2cd;"/>
   </g>
   <g id="patch_121">
    <path clip-path="url(#p201d2fa59f)" d="M 1426.087742 268.014857 
L 1474.583226 268.014857 
L 1474.583226 79.542857 
L 1426.087742 79.542857 
z
" style="fill:#b3de69;"/>
   </g>
   <g id="patch_122">
    <path clip-path="url(#p201d2fa59f)" d="M 1486.707097 263.753578 
L 1535.202581 263.753578 
L 1535.202581 79.542857 
L 1486.707097 79.542857 
z
" style="fill:#b3de69;"/>
   </g>
   <g id="matplotlib.axis_7">
    <g id="xtick_13">
     <g id="line2d_13">
      <g>
       <use style="stroke:#000000;stroke-width:0.8;" x="1329.096774" xlink:href="#mc173803f70" y="518.4"/>
      </g>
     </g>
     <g id="text_20">
      <!-- 1990 -->
      <g transform="translate(1316.371774 532.998438)scale(0.1 -0.1)">
       <use xlink:href="#DejaVuSans-49"/>
       <use x="63.623047" xlink:href="#DejaVuSans-57"/>
       <use x="127.246094" xlink:href="#DejaVuSans-57"/>
       <use x="190.869141" xlink:href="#DejaVuSans-48"/>
      </g>
     </g>
    </g>
    <g id="xtick_14">
     <g id="line2d_14">
      <g>
       <use style="stroke:#000000;stroke-width:0.8;" x="1389.716129" xlink:href="#mc173803f70" y="518.4"/>
      </g>
     </g>
     <g id="text_21">
      <!-- 2000 -->
      <g transform="translate(1376.991129 532.998438)scale(0.1 -0.1)">
       <use xlink:href="#DejaVuSans-50"/>
       <use x="63.623047" xlink:href="#DejaVuSans-48"/>
       <use x="127.246094" xlink:href="#DejaVuSans-48"/>
       <use x="190.869141" xlink:href="#DejaVuSans-48"/>
      </g>
     </g>
    </g>
    <g id="xtick_15">
     <g id="line2d_15">
      <g>
       <use style="stroke:#000000;stroke-width:0.8;" x="1450.335484" xlink:href="#mc173803f70" y="518.4"/>
      </g>
     </g>
     <g id="text_22">
      <!-- 2005 -->
      <g transform="translate(1437.610484 532.998438)scale(0.1 -0.1)">
       <use xlink:href="#DejaVuSans-50"/>
       <use x="63.623047" xlink:href="#DejaVuSans-48"/>
       <use x="127.246094" xlink:href="#DejaVuSans-48"/>
       <use x="190.869141" xlink:href="#DejaVuSans-53"/>
      </g>
     </g>
    </g>
    <g id="xtick_16">
     <g id="line2d_16">
      <g>
       <use style="stroke:#000000;stroke-width:0.8;" x="1510.954839" xlink:href="#mc173803f70" y="518.4"/>
      </g>
     </g>
     <g id="text_23">
      <!-- 2010 -->
      <g transform="translate(1498.229839 532.998438)scale(0.1 -0.1)">
       <use xlink:href="#DejaVuSans-50"/>
       <use x="63.623047" xlink:href="#DejaVuSans-48"/>
       <use x="127.246094" xlink:href="#DejaVuSans-49"/>
       <use x="190.869141" xlink:href="#DejaVuSans-48"/>
      </g>
     </g>
    </g>
    <g id="text_24">
     <!-- Year -->
     <g transform="translate(1408.785963 546.676563)scale(0.1 -0.1)">
      <use xlink:href="#DejaVuSans-89"/>
      <use x="60.880859" xlink:href="#DejaVuSans-101"/>
      <use x="122.404297" xlink:href="#DejaVuSans-97"/>
      <use x="183.683594" xlink:href="#DejaVuSans-114"/>
     </g>
    </g>
   </g>
   <g id="matplotlib.axis_8"/>
   <g id="patch_123">
    <path d="M 1268.477419 518.4 
L 1571.574194 518.4 
" style="fill:none;stroke:#000000;stroke-linecap:square;stroke-linejoin:miter;stroke-width:0.8;"/>
   </g>
   <g id="text_25">
    <!-- Sweden -->
    <defs>
     <path d="M 45.40625 46.390625 
L 45.40625 75.984375 
L 54.390625 75.984375 
L 54.390625 0 
L 45.40625 0 
L 45.40625 8.203125 
Q 42.578125 3.328125 38.25 0.953125 
Q 33.9375 -1.421875 27.875 -1.421875 
Q 17.96875 -1.421875 11.734375 6.484375 
Q 5.515625 14.40625 5.515625 27.296875 
Q 5.515625 40.1875 11.734375 48.09375 
Q 17.96875 56 27.875 56 
Q 33.9375 56 38.25 53.625 
Q 42.578125 51.265625 45.40625 46.390625 
z
M 14.796875 27.296875 
Q 14.796875 17.390625 18.875 11.75 
Q 22.953125 6.109375 30.078125 6.109375 
Q 37.203125 6.109375 41.296875 11.75 
Q 45.40625 17.390625 45.40625 27.296875 
Q 45.40625 37.203125 41.296875 42.84375 
Q 37.203125 48.484375 30.078125 48.484375 
Q 22.953125 48.484375 18.875 42.84375 
Q 14.796875 37.203125 14.796875 27.296875 
z
" id="DejaVuSans-100"/>
    </defs>
    <g transform="translate(1283.632258 34.56)scale(0.22 -0.22)">
     <use xlink:href="#DejaVuSans-83"/>
     <use x="63.476562" xlink:href="#DejaVuSans-119"/>
     <use x="145.263672" xlink:href="#DejaVuSans-101"/>
     <use x="206.787109" xlink:href="#DejaVuSans-100"/>
     <use x="270.263672" xlink:href="#DejaVuSans-101"/>
     <use x="331.787109" xlink:href="#DejaVuSans-110"/>
    </g>
   </g>
  </g>
  <g id="axes_5">
   <g id="patch_124">
    <path d="M 1662.503226 518.4 
L 1965.6 518.4 
L 1965.6 57.6 
L 1662.503226 57.6 
z
" style="fill:#ffffff;"/>
   </g>
   <g id="patch_125">
    <path clip-path="url(#pad7ca31744)" d="M 1698.874839 518.4 
L 1747.370323 518.4 
L 1747.370323 445.456442 
L 1698.874839 445.456442 
z
" style="fill:#e41a1c;"/>
   </g>
   <g id="patch_126">
    <path clip-path="url(#pad7ca31744)" d="M 1759.494194 518.4 
L 1807.989677 518.4 
L 1807.989677 457.014972 
L 1759.494194 457.014972 
z
" style="fill:#e41a1c;"/>
   </g>
   <g id="patch_127">
    <path clip-path="url(#pad7ca31744)" d="M 1820.113548 518.4 
L 1868.609032 518.4 
L 1868.609032 461.086567 
L 1820.113548 461.086567 
z
" style="fill:#e41a1c;"/>
   </g>
   <g id="patch_128">
    <path clip-path="url(#pad7ca31744)" d="M 1880.732903 518.4 
L 1929.228387 518.4 
L 1929.228387 464.647363 
L 1880.732903 464.647363 
z
" style="fill:#e41a1c;"/>
   </g>
   <g id="patch_129">
    <path clip-path="url(#pad7ca31744)" d="M 1698.874839 445.456442 
L 1747.370323 445.456442 
L 1747.370323 411.974153 
L 1698.874839 411.974153 
z
" style="fill:#377eb8;"/>
   </g>
   <g id="patch_130">
    <path clip-path="url(#pad7ca31744)" d="M 1759.494194 457.014972 
L 1807.989677 457.014972 
L 1807.989677 428.612944 
L 1759.494194 428.612944 
z
" style="fill:#377eb8;"/>
   </g>
   <g id="patch_131">
    <path clip-path="url(#pad7ca31744)" d="M 1820.113548 461.086567 
L 1868.609032 461.086567 
L 1868.609032 434.886141 
L 1820.113548 434.886141 
z
" style="fill:#377eb8;"/>
   </g>
   <g id="patch_132">
    <path clip-path="url(#pad7ca31744)" d="M 1880.732903 464.647363 
L 1929.228387 464.647363 
L 1929.228387 439.611889 
L 1880.732903 439.611889 
z
" style="fill:#377eb8;"/>
   </g>
   <g id="patch_133">
    <path clip-path="url(#pad7ca31744)" d="M 1698.874839 411.974153 
L 1747.370323 411.974153 
L 1747.370323 384.470845 
L 1698.874839 384.470845 
z
" style="fill:#fff2ae;"/>
   </g>
   <g id="patch_134">
    <path clip-path="url(#pad7ca31744)" d="M 1759.494194 428.612944 
L 1807.989677 428.612944 
L 1807.989677 402.959499 
L 1759.494194 402.959499 
z
" style="fill:#fff2ae;"/>
   </g>
   <g id="patch_135">
    <path clip-path="url(#pad7ca31744)" d="M 1820.113548 434.886141 
L 1868.609032 434.886141 
L 1868.609032 409.504478 
L 1820.113548 409.504478 
z
" style="fill:#fff2ae;"/>
   </g>
   <g id="patch_136">
    <path clip-path="url(#pad7ca31744)" d="M 1880.732903 439.611889 
L 1929.228387 439.611889 
L 1929.228387 414.576414 
L 1880.732903 414.576414 
z
" style="fill:#fff2ae;"/>
   </g>
   <g id="patch_137">
    <path clip-path="url(#pad7ca31744)" d="M 1698.874839 384.470845 
L 1747.370323 384.470845 
L 1747.370323 362.946516 
L 1698.874839 362.946516 
z
" style="fill:#a65628;"/>
   </g>
   <g id="patch_138">
    <path clip-path="url(#pad7ca31744)" d="M 1759.494194 402.959499 
L 1807.989677 402.959499 
L 1807.989677 382.803221 
L 1759.494194 382.803221 
z
" style="fill:#a65628;"/>
   </g>
   <g id="patch_139">
    <path clip-path="url(#pad7ca31744)" d="M 1820.113548 409.504478 
L 1868.609032 409.504478 
L 1868.609032 389.854158 
L 1820.113548 389.854158 
z
" style="fill:#a65628;"/>
   </g>
   <g id="patch_140">
    <path clip-path="url(#pad7ca31744)" d="M 1880.732903 414.576414 
L 1929.228387 414.576414 
L 1929.228387 395.43164 
L 1880.732903 395.43164 
z
" style="fill:#a65628;"/>
   </g>
   <g id="patch_141">
    <path clip-path="url(#pad7ca31744)" d="M 1698.874839 362.946516 
L 1747.370323 362.946516 
L 1747.370323 346.205372 
L 1698.874839 346.205372 
z
" style="fill:#ff7f00;"/>
   </g>
   <g id="patch_142">
    <path clip-path="url(#pad7ca31744)" d="M 1759.494194 382.803221 
L 1807.989677 382.803221 
L 1807.989677 366.311721 
L 1759.494194 366.311721 
z
" style="fill:#ff7f00;"/>
   </g>
   <g id="patch_143">
    <path clip-path="url(#pad7ca31744)" d="M 1820.113548 389.854158 
L 1868.609032 389.854158 
L 1868.609032 373.478891 
L 1820.113548 373.478891 
z
" style="fill:#ff7f00;"/>
   </g>
   <g id="patch_144">
    <path clip-path="url(#pad7ca31744)" d="M 1880.732903 395.43164 
L 1929.228387 395.43164 
L 1929.228387 379.232215 
L 1880.732903 379.232215 
z
" style="fill:#ff7f00;"/>
   </g>
   <g id="patch_145">
    <path clip-path="url(#pad7ca31744)" d="M 1698.874839 346.205372 
L 1747.370323 346.205372 
L 1747.370323 269.674426 
L 1698.874839 269.674426 
z
"/>
   </g>
   <g id="patch_146">
    <path clip-path="url(#pad7ca31744)" d="M 1759.494194 366.311721 
L 1807.989677 366.311721 
L 1807.989677 293.932359 
L 1759.494194 293.932359 
z
"/>
   </g>
   <g id="patch_147">
    <path clip-path="url(#pad7ca31744)" d="M 1820.113548 373.478891 
L 1868.609032 373.478891 
L 1868.609032 302.246482 
L 1820.113548 302.246482 
z
"/>
   </g>
   <g id="patch_148">
    <path clip-path="url(#pad7ca31744)" d="M 1880.732903 379.232215 
L 1929.228387 379.232215 
L 1929.228387 308.543816 
L 1880.732903 308.543816 
z
"/>
   </g>
   <g id="patch_149">
    <path clip-path="url(#pad7ca31744)" d="M 1698.874839 269.674426 
L 1747.370323 269.674426 
L 1747.370323 242.171117 
L 1698.874839 242.171117 
z
" style="fill:#cbd5e8;"/>
   </g>
   <g id="patch_150">
    <path clip-path="url(#pad7ca31744)" d="M 1759.494194 293.932359 
L 1807.989677 293.932359 
L 1807.989677 266.446525 
L 1759.494194 266.446525 
z
" style="fill:#cbd5e8;"/>
   </g>
   <g id="patch_151">
    <path clip-path="url(#pad7ca31744)" d="M 1820.113548 302.246482 
L 1868.609032 302.246482 
L 1868.609032 274.408529 
L 1820.113548 274.408529 
z
" style="fill:#cbd5e8;"/>
   </g>
   <g id="patch_152">
    <path clip-path="url(#pad7ca31744)" d="M 1880.732903 308.543816 
L 1929.228387 308.543816 
L 1929.228387 281.299329 
L 1880.732903 281.299329 
z
" style="fill:#cbd5e8;"/>
   </g>
   <g id="patch_153">
    <path clip-path="url(#pad7ca31744)" d="M 1698.874839 242.171117 
L 1747.370323 242.171117 
L 1747.370323 190.751888 
L 1698.874839 190.751888 
z
" style="fill:#b3e2cd;"/>
   </g>
   <g id="patch_154">
    <path clip-path="url(#pad7ca31744)" d="M 1759.494194 266.446525 
L 1807.989677 266.446525 
L 1807.989677 215.139636 
L 1759.494194 215.139636 
z
" style="fill:#b3e2cd;"/>
   </g>
   <g id="patch_155">
    <path clip-path="url(#pad7ca31744)" d="M 1820.113548 274.408529 
L 1868.609032 274.408529 
L 1868.609032 222.826439 
L 1820.113548 222.826439 
z
" style="fill:#b3e2cd;"/>
   </g>
   <g id="patch_156">
    <path clip-path="url(#pad7ca31744)" d="M 1880.732903 281.299329 
L 1929.228387 281.299329 
L 1929.228387 229.019367 
L 1880.732903 229.019367 
z
" style="fill:#b3e2cd;"/>
   </g>
   <g id="patch_157">
    <path clip-path="url(#pad7ca31744)" d="M 1698.874839 190.751888 
L 1747.370323 190.751888 
L 1747.370323 79.542857 
L 1698.874839 79.542857 
z
" style="fill:#b3de69;"/>
   </g>
   <g id="patch_158">
    <path clip-path="url(#pad7ca31744)" d="M 1759.494194 215.139636 
L 1807.989677 215.139636 
L 1807.989677 79.542857 
L 1759.494194 79.542857 
z
" style="fill:#b3de69;"/>
   </g>
   <g id="patch_159">
    <path clip-path="url(#pad7ca31744)" d="M 1820.113548 222.826439 
L 1868.609032 222.826439 
L 1868.609032 79.542857 
L 1820.113548 79.542857 
z
" style="fill:#b3de69;"/>
   </g>
   <g id="patch_160">
    <path clip-path="url(#pad7ca31744)" d="M 1880.732903 229.019367 
L 1929.228387 229.019367 
L 1929.228387 79.542857 
L 1880.732903 79.542857 
z
" style="fill:#b3de69;"/>
   </g>
   <g id="matplotlib.axis_9">
    <g id="xtick_17">
     <g id="line2d_17">
      <g>
       <use style="stroke:#000000;stroke-width:0.8;" x="1723.122581" xlink:href="#mc173803f70" y="518.4"/>
      </g>
     </g>
     <g id="text_26">
      <!-- 1990 -->
      <g transform="translate(1710.397581 532.998438)scale(0.1 -0.1)">
       <use xlink:href="#DejaVuSans-49"/>
       <use x="63.623047" xlink:href="#DejaVuSans-57"/>
       <use x="127.246094" xlink:href="#DejaVuSans-57"/>
       <use x="190.869141" xlink:href="#DejaVuSans-48"/>
      </g>
     </g>
    </g>
    <g id="xtick_18">
     <g id="line2d_18">
      <g>
       <use style="stroke:#000000;stroke-width:0.8;" x="1783.741935" xlink:href="#mc173803f70" y="518.4"/>
      </g>
     </g>
     <g id="text_27">
      <!-- 2000 -->
      <g transform="translate(1771.016935 532.998438)scale(0.1 -0.1)">
       <use xlink:href="#DejaVuSans-50"/>
       <use x="63.623047" xlink:href="#DejaVuSans-48"/>
       <use x="127.246094" xlink:href="#DejaVuSans-48"/>
       <use x="190.869141" xlink:href="#DejaVuSans-48"/>
      </g>
     </g>
    </g>
    <g id="xtick_19">
     <g id="line2d_19">
      <g>
       <use style="stroke:#000000;stroke-width:0.8;" x="1844.36129" xlink:href="#mc173803f70" y="518.4"/>
      </g>
     </g>
     <g id="text_28">
      <!-- 2005 -->
      <g transform="translate(1831.63629 532.998438)scale(0.1 -0.1)">
       <use xlink:href="#DejaVuSans-50"/>
       <use x="63.623047" xlink:href="#DejaVuSans-48"/>
       <use x="127.246094" xlink:href="#DejaVuSans-48"/>
       <use x="190.869141" xlink:href="#DejaVuSans-53"/>
      </g>
     </g>
    </g>
    <g id="xtick_20">
     <g id="line2d_20">
      <g>
       <use style="stroke:#000000;stroke-width:0.8;" x="1904.980645" xlink:href="#mc173803f70" y="518.4"/>
      </g>
     </g>
     <g id="text_29">
      <!-- 2010 -->
      <g transform="translate(1892.255645 532.998438)scale(0.1 -0.1)">
       <use xlink:href="#DejaVuSans-50"/>
       <use x="63.623047" xlink:href="#DejaVuSans-48"/>
       <use x="127.246094" xlink:href="#DejaVuSans-49"/>
       <use x="190.869141" xlink:href="#DejaVuSans-48"/>
      </g>
     </g>
    </g>
    <g id="text_30">
     <!-- Year -->
     <g transform="translate(1802.811769 546.676563)scale(0.1 -0.1)">
      <use xlink:href="#DejaVuSans-89"/>
      <use x="60.880859" xlink:href="#DejaVuSans-101"/>
      <use x="122.404297" xlink:href="#DejaVuSans-97"/>
      <use x="183.683594" xlink:href="#DejaVuSans-114"/>
     </g>
    </g>
   </g>
   <g id="matplotlib.axis_10"/>
   <g id="patch_161">
    <path d="M 1662.503226 518.4 
L 1965.6 518.4 
" style="fill:none;stroke:#000000;stroke-linecap:square;stroke-linejoin:miter;stroke-width:0.8;"/>
   </g>
   <g id="text_31">
    <!-- United Kingdom -->
    <defs>
     <path d="M 8.6875 72.90625 
L 18.609375 72.90625 
L 18.609375 28.609375 
Q 18.609375 16.890625 22.84375 11.734375 
Q 27.09375 6.59375 36.625 6.59375 
Q 46.09375 6.59375 50.34375 11.734375 
Q 54.59375 16.890625 54.59375 28.609375 
L 54.59375 72.90625 
L 64.5 72.90625 
L 64.5 27.390625 
Q 64.5 13.140625 57.4375 5.859375 
Q 50.390625 -1.421875 36.625 -1.421875 
Q 22.796875 -1.421875 15.734375 5.859375 
Q 8.6875 13.140625 8.6875 27.390625 
z
" id="DejaVuSans-85"/>
     <path d="M 9.8125 72.90625 
L 19.671875 72.90625 
L 19.671875 42.09375 
L 52.390625 72.90625 
L 65.09375 72.90625 
L 28.90625 38.921875 
L 67.671875 0 
L 54.6875 0 
L 19.671875 35.109375 
L 19.671875 0 
L 9.8125 0 
z
" id="DejaVuSans-75"/>
    </defs>
    <g transform="translate(1677.658065 34.56)scale(0.22 -0.22)">
     <use xlink:href="#DejaVuSans-85"/>
     <use x="73.193359" xlink:href="#DejaVuSans-110"/>
     <use x="136.572266" xlink:href="#DejaVuSans-105"/>
     <use x="164.355469" xlink:href="#DejaVuSans-116"/>
     <use x="203.564453" xlink:href="#DejaVuSans-101"/>
     <use x="265.087891" xlink:href="#DejaVuSans-100"/>
     <use x="328.564453" xlink:href="#DejaVuSans-32"/>
     <use x="360.351562" xlink:href="#DejaVuSans-75"/>
     <use x="425.927734" xlink:href="#DejaVuSans-105"/>
     <use x="453.710938" xlink:href="#DejaVuSans-110"/>
     <use x="517.089844" xlink:href="#DejaVuSans-103"/>
     <use x="580.566406" xlink:href="#DejaVuSans-100"/>
     <use x="644.042969" xlink:href="#DejaVuSans-111"/>
     <use x="705.224609" xlink:href="#DejaVuSans-109"/>
    </g>
   </g>
  </g>
 </g>
 <defs>
  <clipPath id="pfea020e116">
   <rect height="460.8" width="303.096774" x="86.4" y="57.6"/>
  </clipPath>
  <clipPath id="pdb2a80ef9d">
   <rect height="460.8" width="303.096774" x="480.425806" y="57.6"/>
  </clipPath>
  <clipPath id="p9c4cb9cd60">
   <rect height="460.8" width="303.096774" x="874.451613" y="57.6"/>
  </clipPath>
  <clipPath id="p201d2fa59f">
   <rect height="460.8" width="303.096774" x="1268.477419" y="57.6"/>
  </clipPath>
  <clipPath id="pad7ca31744">
   <rect height="460.8" width="303.096774" x="1662.503226" y="57.6"/>
  </clipPath>
 </defs>
</svg>
