<?xml version="1.0" encoding="utf-8" standalone="no"?>
<!DOCTYPE svg PUBLIC "-//W3C//DTD SVG 1.1//EN"
  "http://www.w3.org/Graphics/SVG/1.1/DTD/svg11.dtd">
<!-- Created with matplotlib (https://matplotlib.org/) -->
<svg height="576pt" version="1.1" viewBox="0 0 2160 576" width="2160pt" xmlns="http://www.w3.org/2000/svg" xmlns:xlink="http://www.w3.org/1999/xlink">
 <defs>
  <style type="text/css">
*{stroke-linecap:butt;stroke-linejoin:round;}
  </style>
 </defs>
 <g id="figure_1">
  <g id="patch_1">
   <path d="M 0 576 
L 2160 576 
L 2160 0 
L 0 0 
z
" style="fill:#ffffff;"/>
  </g>
  <g id="axes_1">
   <g id="patch_2">
    <path d="M 86.4 518.4 
L 389.496774 518.4 
L 389.496774 57.6 
L 86.4 57.6 
z
" style="fill:#ffffff;"/>
   </g>
   <g id="patch_3">
    <path clip-path="url(#p6c6b7bc38f)" d="M 122.771613 518.4 
L 171.267097 518.4 
L 171.267097 327.476245 
L 122.771613 327.476245 
z
" style="fill:#b3de69;"/>
   </g>
   <g id="patch_4">
    <path clip-path="url(#p6c6b7bc38f)" d="M 183.390968 518.4 
L 231.886452 518.4 
L 231.886452 340.983533 
L 183.390968 340.983533 
z
" style="fill:#b3de69;"/>
   </g>
   <g id="patch_5">
    <path clip-path="url(#p6c6b7bc38f)" d="M 304.629677 518.4 
L 353.125161 518.4 
L 353.125161 354.946722 
L 304.629677 354.946722 
z
" style="fill:#b3de69;"/>
   </g>
   <g id="patch_6">
    <path clip-path="url(#p6c6b7bc38f)" d="M 122.771613 327.476245 
L 171.267097 327.476245 
L 171.267097 221.481796 
L 122.771613 221.481796 
z
" style="fill:#b3e2cd;"/>
   </g>
   <g id="patch_7">
    <path clip-path="url(#p6c6b7bc38f)" d="M 183.390968 340.983533 
L 231.886452 340.983533 
L 231.886452 239.376214 
L 183.390968 239.376214 
z
" style="fill:#b3e2cd;"/>
   </g>
   <g id="patch_8">
    <path clip-path="url(#p6c6b7bc38f)" d="M 304.629677 354.946722 
L 353.125161 354.946722 
L 353.125161 250.857072 
L 304.629677 250.857072 
z
" style="fill:#b3e2cd;"/>
   </g>
   <g id="patch_9">
    <path clip-path="url(#p6c6b7bc38f)" d="M 122.771613 221.481796 
L 171.267097 221.481796 
L 171.267097 209.611755 
L 122.771613 209.611755 
z
" style="fill:#4daf4a;"/>
   </g>
   <g id="patch_10">
    <path clip-path="url(#p6c6b7bc38f)" d="M 183.390968 239.376214 
L 231.886452 239.376214 
L 231.886452 227.558058 
L 183.390968 227.558058 
z
" style="fill:#4daf4a;"/>
   </g>
   <g id="patch_11">
    <path clip-path="url(#p6c6b7bc38f)" d="M 304.629677 250.857072 
L 353.125161 250.857072 
L 353.125161 238.252466 
L 304.629677 238.252466 
z
" style="fill:#4daf4a;"/>
   </g>
   <g id="patch_12">
    <path clip-path="url(#p6c6b7bc38f)" d="M 122.771613 209.611755 
L 171.267097 209.611755 
L 171.267097 198.744816 
L 122.771613 198.744816 
z
" style="fill:#cbd5e8;"/>
   </g>
   <g id="patch_13">
    <path clip-path="url(#p6c6b7bc38f)" d="M 183.390968 227.558058 
L 231.886452 227.558058 
L 231.886452 214.298663 
L 183.390968 214.298663 
z
" style="fill:#cbd5e8;"/>
   </g>
   <g id="patch_14">
    <path clip-path="url(#p6c6b7bc38f)" d="M 304.629677 238.252466 
L 353.125161 238.252466 
L 353.125161 224.42806 
L 304.629677 224.42806 
z
" style="fill:#cbd5e8;"/>
   </g>
   <g id="patch_15">
    <path clip-path="url(#p6c6b7bc38f)" d="M 122.771613 198.744816 
L 171.267097 198.744816 
L 171.267097 195.066776 
L 122.771613 195.066776 
z
" style="fill:#e6f5c9;"/>
   </g>
   <g id="patch_16">
    <path clip-path="url(#p6c6b7bc38f)" d="M 183.390968 214.298663 
L 231.886452 214.298663 
L 231.886452 207.09247 
L 183.390968 207.09247 
z
" style="fill:#e6f5c9;"/>
   </g>
   <g id="patch_17">
    <path clip-path="url(#p6c6b7bc38f)" d="M 304.629677 224.42806 
L 353.125161 224.42806 
L 353.125161 214.534122 
L 304.629677 214.534122 
z
" style="fill:#e6f5c9;"/>
   </g>
   <g id="patch_18">
    <path clip-path="url(#p6c6b7bc38f)" d="M 122.771613 195.066776 
L 171.267097 195.066776 
L 171.267097 158.955102 
L 122.771613 158.955102 
z
" style="fill:#e41a1c;"/>
   </g>
   <g id="patch_19">
    <path clip-path="url(#p6c6b7bc38f)" d="M 183.390968 207.09247 
L 231.886452 207.09247 
L 231.886452 163.567065 
L 183.390968 163.567065 
z
" style="fill:#e41a1c;"/>
   </g>
   <g id="patch_20">
    <path clip-path="url(#p6c6b7bc38f)" d="M 304.629677 214.534122 
L 353.125161 214.534122 
L 353.125161 165.606565 
L 304.629677 165.606565 
z
" style="fill:#e41a1c;"/>
   </g>
   <g id="patch_21">
    <path clip-path="url(#p6c6b7bc38f)" d="M 122.771613 158.955102 
L 171.267097 158.955102 
L 171.267097 79.542857 
L 122.771613 79.542857 
z
" style="fill:#377eb8;"/>
   </g>
   <g id="patch_22">
    <path clip-path="url(#p6c6b7bc38f)" d="M 183.390968 163.567065 
L 231.886452 163.567065 
L 231.886452 79.542857 
L 183.390968 79.542857 
z
" style="fill:#377eb8;"/>
   </g>
   <g id="patch_23">
    <path clip-path="url(#p6c6b7bc38f)" d="M 304.629677 165.606565 
L 353.125161 165.606565 
L 353.125161 79.542857 
L 304.629677 79.542857 
z
" style="fill:#377eb8;"/>
   </g>
   <g id="matplotlib.axis_1">
    <g id="xtick_1">
     <g id="line2d_1">
      <defs>
       <path d="M 0 0 
L 0 3.5 
" id="me4ef18afcd" style="stroke:#000000;stroke-width:0.8;"/>
      </defs>
      <g>
       <use style="stroke:#000000;stroke-width:0.8;" x="147.019355" xlink:href="#me4ef18afcd" y="518.4"/>
      </g>
     </g>
     <g id="text_1">
      <!-- 1990 -->
      <defs>
       <path d="M 12.40625 8.296875 
L 28.515625 8.296875 
L 28.515625 63.921875 
L 10.984375 60.40625 
L 10.984375 69.390625 
L 28.421875 72.90625 
L 38.28125 72.90625 
L 38.28125 8.296875 
L 54.390625 8.296875 
L 54.390625 0 
L 12.40625 0 
z
" id="DejaVuSans-49"/>
       <path d="M 10.984375 1.515625 
L 10.984375 10.5 
Q 14.703125 8.734375 18.5 7.8125 
Q 22.3125 6.890625 25.984375 6.890625 
Q 35.75 6.890625 40.890625 13.453125 
Q 46.046875 20.015625 46.78125 33.40625 
Q 43.953125 29.203125 39.59375 26.953125 
Q 35.25 24.703125 29.984375 24.703125 
Q 19.046875 24.703125 12.671875 31.3125 
Q 6.296875 37.9375 6.296875 49.421875 
Q 6.296875 60.640625 12.9375 67.421875 
Q 19.578125 74.21875 30.609375 74.21875 
Q 43.265625 74.21875 49.921875 64.515625 
Q 56.59375 54.828125 56.59375 36.375 
Q 56.59375 19.140625 48.40625 8.859375 
Q 40.234375 -1.421875 26.421875 -1.421875 
Q 22.703125 -1.421875 18.890625 -0.6875 
Q 15.09375 0.046875 10.984375 1.515625 
z
M 30.609375 32.421875 
Q 37.25 32.421875 41.125 36.953125 
Q 45.015625 41.5 45.015625 49.421875 
Q 45.015625 57.28125 41.125 61.84375 
Q 37.25 66.40625 30.609375 66.40625 
Q 23.96875 66.40625 20.09375 61.84375 
Q 16.21875 57.28125 16.21875 49.421875 
Q 16.21875 41.5 20.09375 36.953125 
Q 23.96875 32.421875 30.609375 32.421875 
z
" id="DejaVuSans-57"/>
       <path d="M 31.78125 66.40625 
Q 24.171875 66.40625 20.328125 58.90625 
Q 16.5 51.421875 16.5 36.375 
Q 16.5 21.390625 20.328125 13.890625 
Q 24.171875 6.390625 31.78125 6.390625 
Q 39.453125 6.390625 43.28125 13.890625 
Q 47.125 21.390625 47.125 36.375 
Q 47.125 51.421875 43.28125 58.90625 
Q 39.453125 66.40625 31.78125 66.40625 
z
M 31.78125 74.21875 
Q 44.046875 74.21875 50.515625 64.515625 
Q 56.984375 54.828125 56.984375 36.375 
Q 56.984375 17.96875 50.515625 8.265625 
Q 44.046875 -1.421875 31.78125 -1.421875 
Q 19.53125 -1.421875 13.0625 8.265625 
Q 6.59375 17.96875 6.59375 36.375 
Q 6.59375 54.828125 13.0625 64.515625 
Q 19.53125 74.21875 31.78125 74.21875 
z
" id="DejaVuSans-48"/>
      </defs>
      <g transform="translate(134.294355 532.998438)scale(0.1 -0.1)">
       <use xlink:href="#DejaVuSans-49"/>
       <use x="63.623047" xlink:href="#DejaVuSans-57"/>
       <use x="127.246094" xlink:href="#DejaVuSans-57"/>
       <use x="190.869141" xlink:href="#DejaVuSans-48"/>
      </g>
     </g>
    </g>
    <g id="xtick_2">
     <g id="line2d_2">
      <g>
       <use style="stroke:#000000;stroke-width:0.8;" x="207.63871" xlink:href="#me4ef18afcd" y="518.4"/>
      </g>
     </g>
     <g id="text_2">
      <!-- 2000 -->
      <defs>
       <path d="M 19.1875 8.296875 
L 53.609375 8.296875 
L 53.609375 0 
L 7.328125 0 
L 7.328125 8.296875 
Q 12.9375 14.109375 22.625 23.890625 
Q 32.328125 33.6875 34.8125 36.53125 
Q 39.546875 41.84375 41.421875 45.53125 
Q 43.3125 49.21875 43.3125 52.78125 
Q 43.3125 58.59375 39.234375 62.25 
Q 35.15625 65.921875 28.609375 65.921875 
Q 23.96875 65.921875 18.8125 64.3125 
Q 13.671875 62.703125 7.8125 59.421875 
L 7.8125 69.390625 
Q 13.765625 71.78125 18.9375 73 
Q 24.125 74.21875 28.421875 74.21875 
Q 39.75 74.21875 46.484375 68.546875 
Q 53.21875 62.890625 53.21875 53.421875 
Q 53.21875 48.921875 51.53125 44.890625 
Q 49.859375 40.875 45.40625 35.40625 
Q 44.1875 33.984375 37.640625 27.21875 
Q 31.109375 20.453125 19.1875 8.296875 
z
" id="DejaVuSans-50"/>
      </defs>
      <g transform="translate(194.91371 532.998438)scale(0.1 -0.1)">
       <use xlink:href="#DejaVuSans-50"/>
       <use x="63.623047" xlink:href="#DejaVuSans-48"/>
       <use x="127.246094" xlink:href="#DejaVuSans-48"/>
       <use x="190.869141" xlink:href="#DejaVuSans-48"/>
      </g>
     </g>
    </g>
    <g id="xtick_3">
     <g id="line2d_3">
      <g>
       <use style="stroke:#000000;stroke-width:0.8;" x="268.258065" xlink:href="#me4ef18afcd" y="518.4"/>
      </g>
     </g>
     <g id="text_3">
      <!-- 2005 -->
      <defs>
       <path d="M 10.796875 72.90625 
L 49.515625 72.90625 
L 49.515625 64.59375 
L 19.828125 64.59375 
L 19.828125 46.734375 
Q 21.96875 47.46875 24.109375 47.828125 
Q 26.265625 48.1875 28.421875 48.1875 
Q 40.625 48.1875 47.75 41.5 
Q 54.890625 34.8125 54.890625 23.390625 
Q 54.890625 11.625 47.5625 5.09375 
Q 40.234375 -1.421875 26.90625 -1.421875 
Q 22.3125 -1.421875 17.546875 -0.640625 
Q 12.796875 0.140625 7.71875 1.703125 
L 7.71875 11.625 
Q 12.109375 9.234375 16.796875 8.0625 
Q 21.484375 6.890625 26.703125 6.890625 
Q 35.15625 6.890625 40.078125 11.328125 
Q 45.015625 15.765625 45.015625 23.390625 
Q 45.015625 31 40.078125 35.4375 
Q 35.15625 39.890625 26.703125 39.890625 
Q 22.75 39.890625 18.8125 39.015625 
Q 14.890625 38.140625 10.796875 36.28125 
z
" id="DejaVuSans-53"/>
      </defs>
      <g transform="translate(255.533065 532.998438)scale(0.1 -0.1)">
       <use xlink:href="#DejaVuSans-50"/>
       <use x="63.623047" xlink:href="#DejaVuSans-48"/>
       <use x="127.246094" xlink:href="#DejaVuSans-48"/>
       <use x="190.869141" xlink:href="#DejaVuSans-53"/>
      </g>
     </g>
    </g>
    <g id="xtick_4">
     <g id="line2d_4">
      <g>
       <use style="stroke:#000000;stroke-width:0.8;" x="328.877419" xlink:href="#me4ef18afcd" y="518.4"/>
      </g>
     </g>
     <g id="text_4">
      <!-- 2010 -->
      <g transform="translate(316.152419 532.998438)scale(0.1 -0.1)">
       <use xlink:href="#DejaVuSans-50"/>
       <use x="63.623047" xlink:href="#DejaVuSans-48"/>
       <use x="127.246094" xlink:href="#DejaVuSans-49"/>
       <use x="190.869141" xlink:href="#DejaVuSans-48"/>
      </g>
     </g>
    </g>
    <g id="text_5">
     <!-- Year -->
     <defs>
      <path d="M -0.203125 72.90625 
L 10.40625 72.90625 
L 30.609375 42.921875 
L 50.6875 72.90625 
L 61.28125 72.90625 
L 35.5 34.71875 
L 35.5 0 
L 25.59375 0 
L 25.59375 34.71875 
z
" id="DejaVuSans-89"/>
      <path d="M 56.203125 29.59375 
L 56.203125 25.203125 
L 14.890625 25.203125 
Q 15.484375 15.921875 20.484375 11.0625 
Q 25.484375 6.203125 34.421875 6.203125 
Q 39.59375 6.203125 44.453125 7.46875 
Q 49.3125 8.734375 54.109375 11.28125 
L 54.109375 2.78125 
Q 49.265625 0.734375 44.1875 -0.34375 
Q 39.109375 -1.421875 33.890625 -1.421875 
Q 20.796875 -1.421875 13.15625 6.1875 
Q 5.515625 13.8125 5.515625 26.8125 
Q 5.515625 40.234375 12.765625 48.109375 
Q 20.015625 56 32.328125 56 
Q 43.359375 56 49.78125 48.890625 
Q 56.203125 41.796875 56.203125 29.59375 
z
M 47.21875 32.234375 
Q 47.125 39.59375 43.09375 43.984375 
Q 39.0625 48.390625 32.421875 48.390625 
Q 24.90625 48.390625 20.390625 44.140625 
Q 15.875 39.890625 15.1875 32.171875 
z
" id="DejaVuSans-101"/>
      <path d="M 34.28125 27.484375 
Q 23.390625 27.484375 19.1875 25 
Q 14.984375 22.515625 14.984375 16.5 
Q 14.984375 11.71875 18.140625 8.90625 
Q 21.296875 6.109375 26.703125 6.109375 
Q 34.1875 6.109375 38.703125 11.40625 
Q 43.21875 16.703125 43.21875 25.484375 
L 43.21875 27.484375 
z
M 52.203125 31.203125 
L 52.203125 0 
L 43.21875 0 
L 43.21875 8.296875 
Q 40.140625 3.328125 35.546875 0.953125 
Q 30.953125 -1.421875 24.3125 -1.421875 
Q 15.921875 -1.421875 10.953125 3.296875 
Q 6 8.015625 6 15.921875 
Q 6 25.140625 12.171875 29.828125 
Q 18.359375 34.515625 30.609375 34.515625 
L 43.21875 34.515625 
L 43.21875 35.40625 
Q 43.21875 41.609375 39.140625 45 
Q 35.0625 48.390625 27.6875 48.390625 
Q 23 48.390625 18.546875 47.265625 
Q 14.109375 46.140625 10.015625 43.890625 
L 10.015625 52.203125 
Q 14.9375 54.109375 19.578125 55.046875 
Q 24.21875 56 28.609375 56 
Q 40.484375 56 46.34375 49.84375 
Q 52.203125 43.703125 52.203125 31.203125 
z
" id="DejaVuSans-97"/>
      <path d="M 41.109375 46.296875 
Q 39.59375 47.171875 37.8125 47.578125 
Q 36.03125 48 33.890625 48 
Q 26.265625 48 22.1875 43.046875 
Q 18.109375 38.09375 18.109375 28.8125 
L 18.109375 0 
L 9.078125 0 
L 9.078125 54.6875 
L 18.109375 54.6875 
L 18.109375 46.1875 
Q 20.953125 51.171875 25.484375 53.578125 
Q 30.03125 56 36.53125 56 
Q 37.453125 56 38.578125 55.875 
Q 39.703125 55.765625 41.0625 55.515625 
z
" id="DejaVuSans-114"/>
     </defs>
     <g transform="translate(227.360887 546.676563)scale(0.1 -0.1)">
      <use xlink:href="#DejaVuSans-89"/>
      <use x="47.833984" xlink:href="#DejaVuSans-101"/>
      <use x="109.357422" xlink:href="#DejaVuSans-97"/>
      <use x="170.636719" xlink:href="#DejaVuSans-114"/>
     </g>
    </g>
   </g>
   <g id="matplotlib.axis_2">
    <g id="text_6">
     <!-- Fraction of growing stock volume -->
     <defs>
      <path d="M 9.8125 72.90625 
L 51.703125 72.90625 
L 51.703125 64.59375 
L 19.671875 64.59375 
L 19.671875 43.109375 
L 48.578125 43.109375 
L 48.578125 34.8125 
L 19.671875 34.8125 
L 19.671875 0 
L 9.8125 0 
z
" id="DejaVuSans-70"/>
      <path d="M 48.78125 52.59375 
L 48.78125 44.1875 
Q 44.96875 46.296875 41.140625 47.34375 
Q 37.3125 48.390625 33.40625 48.390625 
Q 24.65625 48.390625 19.8125 42.84375 
Q 14.984375 37.3125 14.984375 27.296875 
Q 14.984375 17.28125 19.8125 11.734375 
Q 24.65625 6.203125 33.40625 6.203125 
Q 37.3125 6.203125 41.140625 7.25 
Q 44.96875 8.296875 48.78125 10.40625 
L 48.78125 2.09375 
Q 45.015625 0.34375 40.984375 -0.53125 
Q 36.96875 -1.421875 32.421875 -1.421875 
Q 20.0625 -1.421875 12.78125 6.34375 
Q 5.515625 14.109375 5.515625 27.296875 
Q 5.515625 40.671875 12.859375 48.328125 
Q 20.21875 56 33.015625 56 
Q 37.15625 56 41.109375 55.140625 
Q 45.0625 54.296875 48.78125 52.59375 
z
" id="DejaVuSans-99"/>
      <path d="M 18.3125 70.21875 
L 18.3125 54.6875 
L 36.8125 54.6875 
L 36.8125 47.703125 
L 18.3125 47.703125 
L 18.3125 18.015625 
Q 18.3125 11.328125 20.140625 9.421875 
Q 21.96875 7.515625 27.59375 7.515625 
L 36.8125 7.515625 
L 36.8125 0 
L 27.59375 0 
Q 17.1875 0 13.234375 3.875 
Q 9.28125 7.765625 9.28125 18.015625 
L 9.28125 47.703125 
L 2.6875 47.703125 
L 2.6875 54.6875 
L 9.28125 54.6875 
L 9.28125 70.21875 
z
" id="DejaVuSans-116"/>
      <path d="M 9.421875 54.6875 
L 18.40625 54.6875 
L 18.40625 0 
L 9.421875 0 
z
M 9.421875 75.984375 
L 18.40625 75.984375 
L 18.40625 64.59375 
L 9.421875 64.59375 
z
" id="DejaVuSans-105"/>
      <path d="M 30.609375 48.390625 
Q 23.390625 48.390625 19.1875 42.75 
Q 14.984375 37.109375 14.984375 27.296875 
Q 14.984375 17.484375 19.15625 11.84375 
Q 23.34375 6.203125 30.609375 6.203125 
Q 37.796875 6.203125 41.984375 11.859375 
Q 46.1875 17.53125 46.1875 27.296875 
Q 46.1875 37.015625 41.984375 42.703125 
Q 37.796875 48.390625 30.609375 48.390625 
z
M 30.609375 56 
Q 42.328125 56 49.015625 48.375 
Q 55.71875 40.765625 55.71875 27.296875 
Q 55.71875 13.875 49.015625 6.21875 
Q 42.328125 -1.421875 30.609375 -1.421875 
Q 18.84375 -1.421875 12.171875 6.21875 
Q 5.515625 13.875 5.515625 27.296875 
Q 5.515625 40.765625 12.171875 48.375 
Q 18.84375 56 30.609375 56 
z
" id="DejaVuSans-111"/>
      <path d="M 54.890625 33.015625 
L 54.890625 0 
L 45.90625 0 
L 45.90625 32.71875 
Q 45.90625 40.484375 42.875 44.328125 
Q 39.84375 48.1875 33.796875 48.1875 
Q 26.515625 48.1875 22.3125 43.546875 
Q 18.109375 38.921875 18.109375 30.90625 
L 18.109375 0 
L 9.078125 0 
L 9.078125 54.6875 
L 18.109375 54.6875 
L 18.109375 46.1875 
Q 21.34375 51.125 25.703125 53.5625 
Q 30.078125 56 35.796875 56 
Q 45.21875 56 50.046875 50.171875 
Q 54.890625 44.34375 54.890625 33.015625 
z
" id="DejaVuSans-110"/>
      <path id="DejaVuSans-32"/>
      <path d="M 37.109375 75.984375 
L 37.109375 68.5 
L 28.515625 68.5 
Q 23.6875 68.5 21.796875 66.546875 
Q 19.921875 64.59375 19.921875 59.515625 
L 19.921875 54.6875 
L 34.71875 54.6875 
L 34.71875 47.703125 
L 19.921875 47.703125 
L 19.921875 0 
L 10.890625 0 
L 10.890625 47.703125 
L 2.296875 47.703125 
L 2.296875 54.6875 
L 10.890625 54.6875 
L 10.890625 58.5 
Q 10.890625 67.625 15.140625 71.796875 
Q 19.390625 75.984375 28.609375 75.984375 
z
" id="DejaVuSans-102"/>
      <path d="M 45.40625 27.984375 
Q 45.40625 37.75 41.375 43.109375 
Q 37.359375 48.484375 30.078125 48.484375 
Q 22.859375 48.484375 18.828125 43.109375 
Q 14.796875 37.75 14.796875 27.984375 
Q 14.796875 18.265625 18.828125 12.890625 
Q 22.859375 7.515625 30.078125 7.515625 
Q 37.359375 7.515625 41.375 12.890625 
Q 45.40625 18.265625 45.40625 27.984375 
z
M 54.390625 6.78125 
Q 54.390625 -7.171875 48.1875 -13.984375 
Q 42 -20.796875 29.203125 -20.796875 
Q 24.46875 -20.796875 20.265625 -20.09375 
Q 16.0625 -19.390625 12.109375 -17.921875 
L 12.109375 -9.1875 
Q 16.0625 -11.328125 19.921875 -12.34375 
Q 23.78125 -13.375 27.78125 -13.375 
Q 36.625 -13.375 41.015625 -8.765625 
Q 45.40625 -4.15625 45.40625 5.171875 
L 45.40625 9.625 
Q 42.625 4.78125 38.28125 2.390625 
Q 33.9375 0 27.875 0 
Q 17.828125 0 11.671875 7.65625 
Q 5.515625 15.328125 5.515625 27.984375 
Q 5.515625 40.671875 11.671875 48.328125 
Q 17.828125 56 27.875 56 
Q 33.9375 56 38.28125 53.609375 
Q 42.625 51.21875 45.40625 46.390625 
L 45.40625 54.6875 
L 54.390625 54.6875 
z
" id="DejaVuSans-103"/>
      <path d="M 4.203125 54.6875 
L 13.1875 54.6875 
L 24.421875 12.015625 
L 35.59375 54.6875 
L 46.1875 54.6875 
L 57.421875 12.015625 
L 68.609375 54.6875 
L 77.59375 54.6875 
L 63.28125 0 
L 52.6875 0 
L 40.921875 44.828125 
L 29.109375 0 
L 18.5 0 
z
" id="DejaVuSans-119"/>
      <path d="M 44.28125 53.078125 
L 44.28125 44.578125 
Q 40.484375 46.53125 36.375 47.5 
Q 32.28125 48.484375 27.875 48.484375 
Q 21.1875 48.484375 17.84375 46.4375 
Q 14.5 44.390625 14.5 40.28125 
Q 14.5 37.15625 16.890625 35.375 
Q 19.28125 33.59375 26.515625 31.984375 
L 29.59375 31.296875 
Q 39.15625 29.25 43.1875 25.515625 
Q 47.21875 21.78125 47.21875 15.09375 
Q 47.21875 7.46875 41.1875 3.015625 
Q 35.15625 -1.421875 24.609375 -1.421875 
Q 20.21875 -1.421875 15.453125 -0.5625 
Q 10.6875 0.296875 5.421875 2 
L 5.421875 11.28125 
Q 10.40625 8.6875 15.234375 7.390625 
Q 20.0625 6.109375 24.8125 6.109375 
Q 31.15625 6.109375 34.5625 8.28125 
Q 37.984375 10.453125 37.984375 14.40625 
Q 37.984375 18.0625 35.515625 20.015625 
Q 33.0625 21.96875 24.703125 23.78125 
L 21.578125 24.515625 
Q 13.234375 26.265625 9.515625 29.90625 
Q 5.8125 33.546875 5.8125 39.890625 
Q 5.8125 47.609375 11.28125 51.796875 
Q 16.75 56 26.8125 56 
Q 31.78125 56 36.171875 55.265625 
Q 40.578125 54.546875 44.28125 53.078125 
z
" id="DejaVuSans-115"/>
      <path d="M 9.078125 75.984375 
L 18.109375 75.984375 
L 18.109375 31.109375 
L 44.921875 54.6875 
L 56.390625 54.6875 
L 27.390625 29.109375 
L 57.625 0 
L 45.90625 0 
L 18.109375 26.703125 
L 18.109375 0 
L 9.078125 0 
z
" id="DejaVuSans-107"/>
      <path d="M 2.984375 54.6875 
L 12.5 54.6875 
L 29.59375 8.796875 
L 46.6875 54.6875 
L 56.203125 54.6875 
L 35.6875 0 
L 23.484375 0 
z
" id="DejaVuSans-118"/>
      <path d="M 9.421875 75.984375 
L 18.40625 75.984375 
L 18.40625 0 
L 9.421875 0 
z
" id="DejaVuSans-108"/>
      <path d="M 8.5 21.578125 
L 8.5 54.6875 
L 17.484375 54.6875 
L 17.484375 21.921875 
Q 17.484375 14.15625 20.5 10.265625 
Q 23.53125 6.390625 29.59375 6.390625 
Q 36.859375 6.390625 41.078125 11.03125 
Q 45.3125 15.671875 45.3125 23.6875 
L 45.3125 54.6875 
L 54.296875 54.6875 
L 54.296875 0 
L 45.3125 0 
L 45.3125 8.40625 
Q 42.046875 3.421875 37.71875 1 
Q 33.40625 -1.421875 27.6875 -1.421875 
Q 18.265625 -1.421875 13.375 4.4375 
Q 8.5 10.296875 8.5 21.578125 
z
M 31.109375 56 
z
" id="DejaVuSans-117"/>
      <path d="M 52 44.1875 
Q 55.375 50.25 60.0625 53.125 
Q 64.75 56 71.09375 56 
Q 79.640625 56 84.28125 50.015625 
Q 88.921875 44.046875 88.921875 33.015625 
L 88.921875 0 
L 79.890625 0 
L 79.890625 32.71875 
Q 79.890625 40.578125 77.09375 44.375 
Q 74.3125 48.1875 68.609375 48.1875 
Q 61.625 48.1875 57.5625 43.546875 
Q 53.515625 38.921875 53.515625 30.90625 
L 53.515625 0 
L 44.484375 0 
L 44.484375 32.71875 
Q 44.484375 40.625 41.703125 44.40625 
Q 38.921875 48.1875 33.109375 48.1875 
Q 26.21875 48.1875 22.15625 43.53125 
Q 18.109375 38.875 18.109375 30.90625 
L 18.109375 0 
L 9.078125 0 
L 9.078125 54.6875 
L 18.109375 54.6875 
L 18.109375 46.1875 
Q 21.1875 51.21875 25.484375 53.609375 
Q 29.78125 56 35.6875 56 
Q 41.65625 56 45.828125 52.96875 
Q 50 49.953125 52 44.1875 
z
" id="DejaVuSans-109"/>
     </defs>
     <g transform="translate(79.904375 387.51)rotate(-90)scale(0.12 -0.12)">
      <use xlink:href="#DejaVuSans-70"/>
      <use x="50.269531" xlink:href="#DejaVuSans-114"/>
      <use x="91.382812" xlink:href="#DejaVuSans-97"/>
      <use x="152.662109" xlink:href="#DejaVuSans-99"/>
      <use x="207.642578" xlink:href="#DejaVuSans-116"/>
      <use x="246.851562" xlink:href="#DejaVuSans-105"/>
      <use x="274.634766" xlink:href="#DejaVuSans-111"/>
      <use x="335.816406" xlink:href="#DejaVuSans-110"/>
      <use x="399.195312" xlink:href="#DejaVuSans-32"/>
      <use x="430.982422" xlink:href="#DejaVuSans-111"/>
      <use x="492.164062" xlink:href="#DejaVuSans-102"/>
      <use x="527.369141" xlink:href="#DejaVuSans-32"/>
      <use x="559.15625" xlink:href="#DejaVuSans-103"/>
      <use x="622.632812" xlink:href="#DejaVuSans-114"/>
      <use x="661.496094" xlink:href="#DejaVuSans-111"/>
      <use x="722.677734" xlink:href="#DejaVuSans-119"/>
      <use x="804.464844" xlink:href="#DejaVuSans-105"/>
      <use x="832.248047" xlink:href="#DejaVuSans-110"/>
      <use x="895.626953" xlink:href="#DejaVuSans-103"/>
      <use x="959.103516" xlink:href="#DejaVuSans-32"/>
      <use x="990.890625" xlink:href="#DejaVuSans-115"/>
      <use x="1042.990234" xlink:href="#DejaVuSans-116"/>
      <use x="1082.199219" xlink:href="#DejaVuSans-111"/>
      <use x="1143.380859" xlink:href="#DejaVuSans-99"/>
      <use x="1198.361328" xlink:href="#DejaVuSans-107"/>
      <use x="1256.271484" xlink:href="#DejaVuSans-32"/>
      <use x="1288.058594" xlink:href="#DejaVuSans-118"/>
      <use x="1347.238281" xlink:href="#DejaVuSans-111"/>
      <use x="1408.419922" xlink:href="#DejaVuSans-108"/>
      <use x="1436.203125" xlink:href="#DejaVuSans-117"/>
      <use x="1499.582031" xlink:href="#DejaVuSans-109"/>
      <use x="1596.994141" xlink:href="#DejaVuSans-101"/>
     </g>
    </g>
   </g>
   <g id="patch_24">
    <path d="M 86.4 518.4 
L 389.496774 518.4 
" style="fill:none;stroke:#000000;stroke-linecap:square;stroke-linejoin:miter;stroke-width:0.8;"/>
   </g>
   <g id="text_7">
    <!-- Germany -->
    <defs>
     <path d="M 59.515625 10.40625 
L 59.515625 29.984375 
L 43.40625 29.984375 
L 43.40625 38.09375 
L 69.28125 38.09375 
L 69.28125 6.78125 
Q 63.578125 2.734375 56.6875 0.65625 
Q 49.8125 -1.421875 42 -1.421875 
Q 24.90625 -1.421875 15.25 8.5625 
Q 5.609375 18.5625 5.609375 36.375 
Q 5.609375 54.25 15.25 64.234375 
Q 24.90625 74.21875 42 74.21875 
Q 49.125 74.21875 55.546875 72.453125 
Q 61.96875 70.703125 67.390625 67.28125 
L 67.390625 56.78125 
Q 61.921875 61.421875 55.765625 63.765625 
Q 49.609375 66.109375 42.828125 66.109375 
Q 29.4375 66.109375 22.71875 58.640625 
Q 16.015625 51.171875 16.015625 36.375 
Q 16.015625 21.625 22.71875 14.15625 
Q 29.4375 6.6875 42.828125 6.6875 
Q 48.046875 6.6875 52.140625 7.59375 
Q 56.25 8.5 59.515625 10.40625 
z
" id="DejaVuSans-71"/>
     <path d="M 32.171875 -5.078125 
Q 28.375 -14.84375 24.75 -17.8125 
Q 21.140625 -20.796875 15.09375 -20.796875 
L 7.90625 -20.796875 
L 7.90625 -13.28125 
L 13.1875 -13.28125 
Q 16.890625 -13.28125 18.9375 -11.515625 
Q 21 -9.765625 23.484375 -3.21875 
L 25.09375 0.875 
L 2.984375 54.6875 
L 12.5 54.6875 
L 29.59375 11.921875 
L 46.6875 54.6875 
L 56.203125 54.6875 
z
" id="DejaVuSans-121"/>
    </defs>
    <g transform="translate(101.554839 34.56)scale(0.22 -0.22)">
     <use xlink:href="#DejaVuSans-71"/>
     <use x="77.490234" xlink:href="#DejaVuSans-101"/>
     <use x="139.013672" xlink:href="#DejaVuSans-114"/>
     <use x="178.376953" xlink:href="#DejaVuSans-109"/>
     <use x="275.789062" xlink:href="#DejaVuSans-97"/>
     <use x="337.068359" xlink:href="#DejaVuSans-110"/>
     <use x="400.447266" xlink:href="#DejaVuSans-121"/>
    </g>
   </g>
  </g>
  <g id="axes_2">
   <g id="patch_25">
    <path d="M 480.425806 518.4 
L 783.522581 518.4 
L 783.522581 57.6 
L 480.425806 57.6 
z
" style="fill:#ffffff;"/>
   </g>
   <g id="patch_26">
    <path clip-path="url(#p5f288d4fb1)" d="M 516.797419 518.4 
L 565.292903 518.4 
L 565.292903 463.584765 
L 516.797419 463.584765 
z
" style="fill:#b3e2cd;"/>
   </g>
   <g id="patch_27">
    <path clip-path="url(#p5f288d4fb1)" d="M 577.416774 518.4 
L 625.912258 518.4 
L 625.912258 459.811033 
L 577.416774 459.811033 
z
" style="fill:#b3e2cd;"/>
   </g>
   <g id="patch_28">
    <path clip-path="url(#p5f288d4fb1)" d="M 638.036129 518.4 
L 686.531613 518.4 
L 686.531613 459.388596 
L 638.036129 459.388596 
z
" style="fill:#b3e2cd;"/>
   </g>
   <g id="patch_29">
    <path clip-path="url(#p5f288d4fb1)" d="M 698.655484 518.4 
L 747.150968 518.4 
L 747.150968 461.215696 
L 698.655484 461.215696 
z
" style="fill:#b3e2cd;"/>
   </g>
   <g id="patch_30">
    <path clip-path="url(#p5f288d4fb1)" d="M 516.797419 463.584765 
L 565.292903 463.584765 
L 565.292903 418.964523 
L 516.797419 418.964523 
z
"/>
   </g>
   <g id="patch_31">
    <path clip-path="url(#p5f288d4fb1)" d="M 577.416774 459.811033 
L 625.912258 459.811033 
L 625.912258 403.0981 
L 577.416774 403.0981 
z
"/>
   </g>
   <g id="patch_32">
    <path clip-path="url(#p5f288d4fb1)" d="M 638.036129 459.388596 
L 686.531613 459.388596 
L 686.531613 392.534717 
L 638.036129 392.534717 
z
"/>
   </g>
   <g id="patch_33">
    <path clip-path="url(#p5f288d4fb1)" d="M 698.655484 461.215696 
L 747.150968 461.215696 
L 747.150968 392.345159 
L 698.655484 392.345159 
z
"/>
   </g>
   <g id="patch_34">
    <path clip-path="url(#p5f288d4fb1)" d="M 516.797419 418.964523 
L 565.292903 418.964523 
L 565.292903 366.374205 
L 516.797419 366.374205 
z
" style="fill:#80b1d3;"/>
   </g>
   <g id="patch_35">
    <path clip-path="url(#p5f288d4fb1)" d="M 577.416774 403.0981 
L 625.912258 403.0981 
L 625.912258 350.231714 
L 577.416774 350.231714 
z
" style="fill:#80b1d3;"/>
   </g>
   <g id="patch_36">
    <path clip-path="url(#p5f288d4fb1)" d="M 638.036129 392.534717 
L 686.531613 392.534717 
L 686.531613 336.930289 
L 638.036129 336.930289 
z
" style="fill:#80b1d3;"/>
   </g>
   <g id="patch_37">
    <path clip-path="url(#p5f288d4fb1)" d="M 698.655484 392.345159 
L 747.150968 392.345159 
L 747.150968 333.559498 
L 698.655484 333.559498 
z
" style="fill:#80b1d3;"/>
   </g>
   <g id="patch_38">
    <path clip-path="url(#p5f288d4fb1)" d="M 516.797419 366.374205 
L 565.292903 366.374205 
L 565.292903 355.402014 
L 516.797419 355.402014 
z
" style="fill:#fff2ae;"/>
   </g>
   <g id="patch_39">
    <path clip-path="url(#p5f288d4fb1)" d="M 577.416774 350.231714 
L 625.912258 350.231714 
L 625.912258 337.423391 
L 577.416774 337.423391 
z
" style="fill:#fff2ae;"/>
   </g>
   <g id="patch_40">
    <path clip-path="url(#p5f288d4fb1)" d="M 638.036129 336.930289 
L 686.531613 336.930289 
L 686.531613 324.318048 
L 638.036129 324.318048 
z
" style="fill:#fff2ae;"/>
   </g>
   <g id="patch_41">
    <path clip-path="url(#p5f288d4fb1)" d="M 698.655484 333.559498 
L 747.150968 333.559498 
L 747.150968 319.110621 
L 698.655484 319.110621 
z
" style="fill:#fff2ae;"/>
   </g>
   <g id="patch_42">
    <path clip-path="url(#p5f288d4fb1)" d="M 516.797419 355.402014 
L 565.292903 355.402014 
L 565.292903 335.103462 
L 516.797419 335.103462 
z
" style="fill:#f1e2cc;"/>
   </g>
   <g id="patch_43">
    <path clip-path="url(#p5f288d4fb1)" d="M 577.416774 337.423391 
L 625.912258 337.423391 
L 625.912258 319.931729 
L 577.416774 319.931729 
z
" style="fill:#f1e2cc;"/>
   </g>
   <g id="patch_44">
    <path clip-path="url(#p5f288d4fb1)" d="M 638.036129 324.318048 
L 686.531613 324.318048 
L 686.531613 308.697382 
L 638.036129 308.697382 
z
" style="fill:#f1e2cc;"/>
   </g>
   <g id="patch_45">
    <path clip-path="url(#p5f288d4fb1)" d="M 698.655484 319.110621 
L 747.150968 319.110621 
L 747.150968 299.759883 
L 698.655484 299.759883 
z
" style="fill:#f1e2cc;"/>
   </g>
   <g id="patch_46">
    <path clip-path="url(#p5f288d4fb1)" d="M 516.797419 335.103462 
L 565.292903 335.103462 
L 565.292903 308.876878 
L 516.797419 308.876878 
z
" style="fill:#984ea3;"/>
   </g>
   <g id="patch_47">
    <path clip-path="url(#p5f288d4fb1)" d="M 577.416774 319.931729 
L 625.912258 319.931729 
L 625.912258 295.799715 
L 577.416774 295.799715 
z
" style="fill:#984ea3;"/>
   </g>
   <g id="patch_48">
    <path clip-path="url(#p5f288d4fb1)" d="M 638.036129 308.697382 
L 686.531613 308.697382 
L 686.531613 286.442755 
L 638.036129 286.442755 
z
" style="fill:#984ea3;"/>
   </g>
   <g id="patch_49">
    <path clip-path="url(#p5f288d4fb1)" d="M 698.655484 299.759883 
L 747.150968 299.759883 
L 747.150968 278.636651 
L 698.655484 278.636651 
z
" style="fill:#984ea3;"/>
   </g>
   <g id="patch_50">
    <path clip-path="url(#p5f288d4fb1)" d="M 516.797419 308.876878 
L 565.292903 308.876878 
L 565.292903 135.516268 
L 516.797419 135.516268 
z
" style="fill:#e41a1c;"/>
   </g>
   <g id="patch_51">
    <path clip-path="url(#p5f288d4fb1)" d="M 577.416774 295.799715 
L 625.912258 295.799715 
L 625.912258 132.301271 
L 577.416774 132.301271 
z
" style="fill:#e41a1c;"/>
   </g>
   <g id="patch_52">
    <path clip-path="url(#p5f288d4fb1)" d="M 638.036129 286.442755 
L 686.531613 286.442755 
L 686.531613 130.120388 
L 638.036129 130.120388 
z
" style="fill:#e41a1c;"/>
   </g>
   <g id="patch_53">
    <path clip-path="url(#p5f288d4fb1)" d="M 698.655484 278.636651 
L 747.150968 278.636651 
L 747.150968 127.705781 
L 698.655484 127.705781 
z
" style="fill:#e41a1c;"/>
   </g>
   <g id="patch_54">
    <path clip-path="url(#p5f288d4fb1)" d="M 516.797419 135.516268 
L 565.292903 135.516268 
L 565.292903 79.542857 
L 516.797419 79.542857 
z
" style="fill:#377eb8;"/>
   </g>
   <g id="patch_55">
    <path clip-path="url(#p5f288d4fb1)" d="M 577.416774 132.301271 
L 625.912258 132.301271 
L 625.912258 79.542857 
L 577.416774 79.542857 
z
" style="fill:#377eb8;"/>
   </g>
   <g id="patch_56">
    <path clip-path="url(#p5f288d4fb1)" d="M 638.036129 130.120388 
L 686.531613 130.120388 
L 686.531613 79.542857 
L 638.036129 79.542857 
z
" style="fill:#377eb8;"/>
   </g>
   <g id="patch_57">
    <path clip-path="url(#p5f288d4fb1)" d="M 698.655484 127.705781 
L 747.150968 127.705781 
L 747.150968 79.542857 
L 698.655484 79.542857 
z
" style="fill:#377eb8;"/>
   </g>
   <g id="matplotlib.axis_3">
    <g id="xtick_5">
     <g id="line2d_5">
      <g>
       <use style="stroke:#000000;stroke-width:0.8;" x="541.045161" xlink:href="#me4ef18afcd" y="518.4"/>
      </g>
     </g>
     <g id="text_8">
      <!-- 1990 -->
      <g transform="translate(528.320161 532.998438)scale(0.1 -0.1)">
       <use xlink:href="#DejaVuSans-49"/>
       <use x="63.623047" xlink:href="#DejaVuSans-57"/>
       <use x="127.246094" xlink:href="#DejaVuSans-57"/>
       <use x="190.869141" xlink:href="#DejaVuSans-48"/>
      </g>
     </g>
    </g>
    <g id="xtick_6">
     <g id="line2d_6">
      <g>
       <use style="stroke:#000000;stroke-width:0.8;" x="601.664516" xlink:href="#me4ef18afcd" y="518.4"/>
      </g>
     </g>
     <g id="text_9">
      <!-- 2000 -->
      <g transform="translate(588.939516 532.998438)scale(0.1 -0.1)">
       <use xlink:href="#DejaVuSans-50"/>
       <use x="63.623047" xlink:href="#DejaVuSans-48"/>
       <use x="127.246094" xlink:href="#DejaVuSans-48"/>
       <use x="190.869141" xlink:href="#DejaVuSans-48"/>
      </g>
     </g>
    </g>
    <g id="xtick_7">
     <g id="line2d_7">
      <g>
       <use style="stroke:#000000;stroke-width:0.8;" x="662.283871" xlink:href="#me4ef18afcd" y="518.4"/>
      </g>
     </g>
     <g id="text_10">
      <!-- 2005 -->
      <g transform="translate(649.558871 532.998438)scale(0.1 -0.1)">
       <use xlink:href="#DejaVuSans-50"/>
       <use x="63.623047" xlink:href="#DejaVuSans-48"/>
       <use x="127.246094" xlink:href="#DejaVuSans-48"/>
       <use x="190.869141" xlink:href="#DejaVuSans-53"/>
      </g>
     </g>
    </g>
    <g id="xtick_8">
     <g id="line2d_8">
      <g>
       <use style="stroke:#000000;stroke-width:0.8;" x="722.903226" xlink:href="#me4ef18afcd" y="518.4"/>
      </g>
     </g>
     <g id="text_11">
      <!-- 2010 -->
      <g transform="translate(710.178226 532.998438)scale(0.1 -0.1)">
       <use xlink:href="#DejaVuSans-50"/>
       <use x="63.623047" xlink:href="#DejaVuSans-48"/>
       <use x="127.246094" xlink:href="#DejaVuSans-49"/>
       <use x="190.869141" xlink:href="#DejaVuSans-48"/>
      </g>
     </g>
    </g>
    <g id="text_12">
     <!-- Year -->
     <g transform="translate(621.386694 546.676563)scale(0.1 -0.1)">
      <use xlink:href="#DejaVuSans-89"/>
      <use x="47.833984" xlink:href="#DejaVuSans-101"/>
      <use x="109.357422" xlink:href="#DejaVuSans-97"/>
      <use x="170.636719" xlink:href="#DejaVuSans-114"/>
     </g>
    </g>
   </g>
   <g id="matplotlib.axis_4"/>
   <g id="patch_58">
    <path d="M 480.425806 518.4 
L 783.522581 518.4 
" style="fill:none;stroke:#000000;stroke-linecap:square;stroke-linejoin:miter;stroke-width:0.8;"/>
   </g>
   <g id="text_13">
    <!-- Hungary -->
    <defs>
     <path d="M 9.8125 72.90625 
L 19.671875 72.90625 
L 19.671875 43.015625 
L 55.515625 43.015625 
L 55.515625 72.90625 
L 65.375 72.90625 
L 65.375 0 
L 55.515625 0 
L 55.515625 34.71875 
L 19.671875 34.71875 
L 19.671875 0 
L 9.8125 0 
z
" id="DejaVuSans-72"/>
    </defs>
    <g transform="translate(495.580645 34.56)scale(0.22 -0.22)">
     <use xlink:href="#DejaVuSans-72"/>
     <use x="75.195312" xlink:href="#DejaVuSans-117"/>
     <use x="138.574219" xlink:href="#DejaVuSans-110"/>
     <use x="201.953125" xlink:href="#DejaVuSans-103"/>
     <use x="265.429688" xlink:href="#DejaVuSans-97"/>
     <use x="326.708984" xlink:href="#DejaVuSans-114"/>
     <use x="367.822266" xlink:href="#DejaVuSans-121"/>
    </g>
   </g>
  </g>
  <g id="axes_3">
   <g id="patch_59">
    <path d="M 874.451613 518.4 
L 1177.548387 518.4 
L 1177.548387 57.6 
L 874.451613 57.6 
z
" style="fill:#ffffff;"/>
   </g>
   <g id="patch_60">
    <path clip-path="url(#pe0650fdfaa)" d="M 1032.061935 518.4 
L 1080.557419 518.4 
L 1080.557419 251.136 
L 1032.061935 251.136 
z
" style="fill:#b3de69;"/>
   </g>
   <g id="patch_61">
    <path clip-path="url(#pe0650fdfaa)" d="M 1092.68129 518.4 
L 1141.176774 518.4 
L 1141.176774 239.725714 
L 1092.68129 239.725714 
z
" style="fill:#b3de69;"/>
   </g>
   <g id="patch_62">
    <path clip-path="url(#pe0650fdfaa)" d="M 1032.061935 251.136 
L 1080.557419 251.136 
L 1080.557419 203.739429 
L 1032.061935 203.739429 
z
" style="fill:#b3e2cd;"/>
   </g>
   <g id="patch_63">
    <path clip-path="url(#pe0650fdfaa)" d="M 1092.68129 239.725714 
L 1141.176774 239.725714 
L 1141.176774 199.8336 
L 1092.68129 199.8336 
z
" style="fill:#b3e2cd;"/>
   </g>
   <g id="patch_64">
    <path clip-path="url(#pe0650fdfaa)" d="M 1032.061935 203.739429 
L 1080.557419 203.739429 
L 1080.557419 195.84 
L 1032.061935 195.84 
z
" style="fill:#cbd5e8;"/>
   </g>
   <g id="patch_65">
    <path clip-path="url(#pe0650fdfaa)" d="M 1092.68129 199.8336 
L 1141.176774 199.8336 
L 1141.176774 187.106743 
L 1092.68129 187.106743 
z
" style="fill:#cbd5e8;"/>
   </g>
   <g id="patch_66">
    <path clip-path="url(#pe0650fdfaa)" d="M 1032.061935 195.84 
L 1080.557419 195.84 
L 1080.557419 184.429714 
L 1032.061935 184.429714 
z
" style="fill:#e6f5c9;"/>
   </g>
   <g id="patch_67">
    <path clip-path="url(#pe0650fdfaa)" d="M 1092.68129 187.106743 
L 1141.176774 187.106743 
L 1141.176774 175.2576 
L 1092.68129 175.2576 
z
" style="fill:#e6f5c9;"/>
   </g>
   <g id="patch_68">
    <path clip-path="url(#pe0650fdfaa)" d="M 1032.061935 184.429714 
L 1080.557419 184.429714 
L 1080.557419 133.083429 
L 1032.061935 133.083429 
z
"/>
   </g>
   <g id="patch_69">
    <path clip-path="url(#pe0650fdfaa)" d="M 1092.68129 175.2576 
L 1141.176774 175.2576 
L 1141.176774 126.061714 
L 1092.68129 126.061714 
z
"/>
   </g>
   <g id="patch_70">
    <path clip-path="url(#pe0650fdfaa)" d="M 1032.061935 133.083429 
L 1080.557419 133.083429 
L 1080.557419 122.550857 
L 1032.061935 122.550857 
z
" style="fill:#fff2ae;"/>
   </g>
   <g id="patch_71">
    <path clip-path="url(#pe0650fdfaa)" d="M 1092.68129 126.061714 
L 1141.176774 126.061714 
L 1141.176774 115.529143 
L 1092.68129 115.529143 
z
" style="fill:#fff2ae;"/>
   </g>
   <g id="patch_72">
    <path clip-path="url(#pe0650fdfaa)" d="M 1032.061935 122.550857 
L 1080.557419 122.550857 
L 1080.557419 113.773714 
L 1032.061935 113.773714 
z
" style="fill:#ff7f00;"/>
   </g>
   <g id="patch_73">
    <path clip-path="url(#pe0650fdfaa)" d="M 1092.68129 115.529143 
L 1141.176774 115.529143 
L 1141.176774 108.068571 
L 1092.68129 108.068571 
z
" style="fill:#ff7f00;"/>
   </g>
   <g id="patch_74">
    <path clip-path="url(#pe0650fdfaa)" d="M 1032.061935 113.773714 
L 1080.557419 113.773714 
L 1080.557419 94.464 
L 1032.061935 94.464 
z
" style="fill:#e41a1c;"/>
   </g>
   <g id="patch_75">
    <path clip-path="url(#pe0650fdfaa)" d="M 1092.68129 108.068571 
L 1141.176774 108.068571 
L 1141.176774 92.269714 
L 1092.68129 92.269714 
z
" style="fill:#e41a1c;"/>
   </g>
   <g id="patch_76">
    <path clip-path="url(#pe0650fdfaa)" d="M 1032.061935 94.464 
L 1080.557419 94.464 
L 1080.557419 79.542857 
L 1032.061935 79.542857 
z
" style="fill:#377eb8;"/>
   </g>
   <g id="patch_77">
    <path clip-path="url(#pe0650fdfaa)" d="M 1092.68129 92.269714 
L 1141.176774 92.269714 
L 1141.176774 79.542857 
L 1092.68129 79.542857 
z
" style="fill:#377eb8;"/>
   </g>
   <g id="matplotlib.axis_5">
    <g id="xtick_9">
     <g id="line2d_9">
      <g>
       <use style="stroke:#000000;stroke-width:0.8;" x="935.070968" xlink:href="#me4ef18afcd" y="518.4"/>
      </g>
     </g>
     <g id="text_14">
      <!-- 1990 -->
      <g transform="translate(922.345968 532.998438)scale(0.1 -0.1)">
       <use xlink:href="#DejaVuSans-49"/>
       <use x="63.623047" xlink:href="#DejaVuSans-57"/>
       <use x="127.246094" xlink:href="#DejaVuSans-57"/>
       <use x="190.869141" xlink:href="#DejaVuSans-48"/>
      </g>
     </g>
    </g>
    <g id="xtick_10">
     <g id="line2d_10">
      <g>
       <use style="stroke:#000000;stroke-width:0.8;" x="995.690323" xlink:href="#me4ef18afcd" y="518.4"/>
      </g>
     </g>
     <g id="text_15">
      <!-- 2000 -->
      <g transform="translate(982.965323 532.998438)scale(0.1 -0.1)">
       <use xlink:href="#DejaVuSans-50"/>
       <use x="63.623047" xlink:href="#DejaVuSans-48"/>
       <use x="127.246094" xlink:href="#DejaVuSans-48"/>
       <use x="190.869141" xlink:href="#DejaVuSans-48"/>
      </g>
     </g>
    </g>
    <g id="xtick_11">
     <g id="line2d_11">
      <g>
       <use style="stroke:#000000;stroke-width:0.8;" x="1056.309677" xlink:href="#me4ef18afcd" y="518.4"/>
      </g>
     </g>
     <g id="text_16">
      <!-- 2005 -->
      <g transform="translate(1043.584677 532.998438)scale(0.1 -0.1)">
       <use xlink:href="#DejaVuSans-50"/>
       <use x="63.623047" xlink:href="#DejaVuSans-48"/>
       <use x="127.246094" xlink:href="#DejaVuSans-48"/>
       <use x="190.869141" xlink:href="#DejaVuSans-53"/>
      </g>
     </g>
    </g>
    <g id="xtick_12">
     <g id="line2d_12">
      <g>
       <use style="stroke:#000000;stroke-width:0.8;" x="1116.929032" xlink:href="#me4ef18afcd" y="518.4"/>
      </g>
     </g>
     <g id="text_17">
      <!-- 2010 -->
      <g transform="translate(1104.204032 532.998438)scale(0.1 -0.1)">
       <use xlink:href="#DejaVuSans-50"/>
       <use x="63.623047" xlink:href="#DejaVuSans-48"/>
       <use x="127.246094" xlink:href="#DejaVuSans-49"/>
       <use x="190.869141" xlink:href="#DejaVuSans-48"/>
      </g>
     </g>
    </g>
    <g id="text_18">
     <!-- Year -->
     <g transform="translate(1015.4125 546.676563)scale(0.1 -0.1)">
      <use xlink:href="#DejaVuSans-89"/>
      <use x="47.833984" xlink:href="#DejaVuSans-101"/>
      <use x="109.357422" xlink:href="#DejaVuSans-97"/>
      <use x="170.636719" xlink:href="#DejaVuSans-114"/>
     </g>
    </g>
   </g>
   <g id="matplotlib.axis_6"/>
   <g id="patch_78">
    <path d="M 874.451613 518.4 
L 1177.548387 518.4 
" style="fill:none;stroke:#000000;stroke-linecap:square;stroke-linejoin:miter;stroke-width:0.8;"/>
   </g>
   <g id="text_19">
    <!-- Ireland -->
    <defs>
     <path d="M 9.8125 72.90625 
L 19.671875 72.90625 
L 19.671875 0 
L 9.8125 0 
z
" id="DejaVuSans-73"/>
     <path d="M 45.40625 46.390625 
L 45.40625 75.984375 
L 54.390625 75.984375 
L 54.390625 0 
L 45.40625 0 
L 45.40625 8.203125 
Q 42.578125 3.328125 38.25 0.953125 
Q 33.9375 -1.421875 27.875 -1.421875 
Q 17.96875 -1.421875 11.734375 6.484375 
Q 5.515625 14.40625 5.515625 27.296875 
Q 5.515625 40.1875 11.734375 48.09375 
Q 17.96875 56 27.875 56 
Q 33.9375 56 38.25 53.625 
Q 42.578125 51.265625 45.40625 46.390625 
z
M 14.796875 27.296875 
Q 14.796875 17.390625 18.875 11.75 
Q 22.953125 6.109375 30.078125 6.109375 
Q 37.203125 6.109375 41.296875 11.75 
Q 45.40625 17.390625 45.40625 27.296875 
Q 45.40625 37.203125 41.296875 42.84375 
Q 37.203125 48.484375 30.078125 48.484375 
Q 22.953125 48.484375 18.875 42.84375 
Q 14.796875 37.203125 14.796875 27.296875 
z
" id="DejaVuSans-100"/>
    </defs>
    <g transform="translate(889.606452 34.56)scale(0.22 -0.22)">
     <use xlink:href="#DejaVuSans-73"/>
     <use x="29.492188" xlink:href="#DejaVuSans-114"/>
     <use x="68.355469" xlink:href="#DejaVuSans-101"/>
     <use x="129.878906" xlink:href="#DejaVuSans-108"/>
     <use x="157.662109" xlink:href="#DejaVuSans-97"/>
     <use x="218.941406" xlink:href="#DejaVuSans-110"/>
     <use x="282.320312" xlink:href="#DejaVuSans-100"/>
    </g>
   </g>
  </g>
  <g id="axes_4">
   <g id="patch_79">
    <path d="M 1268.477419 518.4 
L 1571.574194 518.4 
L 1571.574194 57.6 
L 1268.477419 57.6 
z
" style="fill:#ffffff;"/>
   </g>
   <g id="patch_80">
    <path clip-path="url(#p9075dd8893)" d="M 1304.849032 518.4 
L 1353.344516 518.4 
L 1353.344516 447.343518 
L 1304.849032 447.343518 
z
" style="fill:#b3de69;"/>
   </g>
   <g id="patch_81">
    <path clip-path="url(#p9075dd8893)" d="M 1365.468387 518.4 
L 1413.963871 518.4 
L 1413.963871 444.483326 
L 1365.468387 444.483326 
z
" style="fill:#b3de69;"/>
   </g>
   <g id="patch_82">
    <path clip-path="url(#p9075dd8893)" d="M 1426.087742 518.4 
L 1474.583226 518.4 
L 1474.583226 443.414783 
L 1426.087742 443.414783 
z
" style="fill:#b3de69;"/>
   </g>
   <g id="patch_83">
    <path clip-path="url(#p9075dd8893)" d="M 1486.707097 518.4 
L 1535.202581 518.4 
L 1535.202581 443.373016 
L 1486.707097 443.373016 
z
" style="fill:#b3de69;"/>
   </g>
   <g id="patch_84">
    <path clip-path="url(#p9075dd8893)" d="M 1304.849032 447.343518 
L 1353.344516 447.343518 
L 1353.344516 447.343518 
L 1304.849032 447.343518 
z
" style="fill:#b3e2cd;"/>
   </g>
   <g id="patch_85">
    <path clip-path="url(#p9075dd8893)" d="M 1365.468387 444.483326 
L 1413.963871 444.483326 
L 1413.963871 444.483326 
L 1365.468387 444.483326 
z
" style="fill:#b3e2cd;"/>
   </g>
   <g id="patch_86">
    <path clip-path="url(#p9075dd8893)" d="M 1426.087742 443.414783 
L 1474.583226 443.414783 
L 1474.583226 432.312785 
L 1426.087742 432.312785 
z
" style="fill:#b3e2cd;"/>
   </g>
   <g id="patch_87">
    <path clip-path="url(#p9075dd8893)" d="M 1486.707097 443.373016 
L 1535.202581 443.373016 
L 1535.202581 432.249314 
L 1486.707097 432.249314 
z
" style="fill:#b3e2cd;"/>
   </g>
   <g id="patch_88">
    <path clip-path="url(#p9075dd8893)" d="M 1304.849032 447.343518 
L 1353.344516 447.343518 
L 1353.344516 434.0557 
L 1304.849032 434.0557 
z
" style="fill:#4daf4a;"/>
   </g>
   <g id="patch_89">
    <path clip-path="url(#p9075dd8893)" d="M 1365.468387 444.483326 
L 1413.963871 444.483326 
L 1413.963871 431.622892 
L 1365.468387 431.622892 
z
" style="fill:#4daf4a;"/>
   </g>
   <g id="patch_90">
    <path clip-path="url(#p9075dd8893)" d="M 1426.087742 432.312785 
L 1474.583226 432.312785 
L 1474.583226 419.640807 
L 1426.087742 419.640807 
z
" style="fill:#4daf4a;"/>
   </g>
   <g id="patch_91">
    <path clip-path="url(#p9075dd8893)" d="M 1486.707097 432.249314 
L 1535.202581 432.249314 
L 1535.202581 419.558856 
L 1486.707097 419.558856 
z
" style="fill:#4daf4a;"/>
   </g>
   <g id="patch_92">
    <path clip-path="url(#p9075dd8893)" d="M 1304.849032 434.0557 
L 1353.344516 434.0557 
L 1353.344516 405.06876 
L 1304.849032 405.06876 
z
" style="fill:#cbd5e8;"/>
   </g>
   <g id="patch_93">
    <path clip-path="url(#p9075dd8893)" d="M 1365.468387 431.622892 
L 1413.963871 431.622892 
L 1413.963871 401.957612 
L 1365.468387 401.957612 
z
" style="fill:#cbd5e8;"/>
   </g>
   <g id="patch_94">
    <path clip-path="url(#p9075dd8893)" d="M 1426.087742 419.640807 
L 1474.583226 419.640807 
L 1474.583226 389.736433 
L 1426.087742 389.736433 
z
" style="fill:#cbd5e8;"/>
   </g>
   <g id="patch_95">
    <path clip-path="url(#p9075dd8893)" d="M 1486.707097 419.558856 
L 1535.202581 419.558856 
L 1535.202581 389.648884 
L 1486.707097 389.648884 
z
" style="fill:#cbd5e8;"/>
   </g>
   <g id="patch_96">
    <path clip-path="url(#p9075dd8893)" d="M 1304.849032 405.06876 
L 1353.344516 405.06876 
L 1353.344516 234.994943 
L 1304.849032 234.994943 
z
"/>
   </g>
   <g id="patch_97">
    <path clip-path="url(#p9075dd8893)" d="M 1365.468387 401.957612 
L 1413.963871 401.957612 
L 1413.963871 234.032405 
L 1365.468387 234.032405 
z
"/>
   </g>
   <g id="patch_98">
    <path clip-path="url(#p9075dd8893)" d="M 1426.087742 389.736433 
L 1474.583226 389.736433 
L 1474.583226 267.192801 
L 1426.087742 267.192801 
z
"/>
   </g>
   <g id="patch_99">
    <path clip-path="url(#p9075dd8893)" d="M 1486.707097 389.648884 
L 1535.202581 389.648884 
L 1535.202581 267.254941 
L 1486.707097 267.254941 
z
"/>
   </g>
   <g id="patch_100">
    <path clip-path="url(#p9075dd8893)" d="M 1304.849032 234.994943 
L 1353.344516 234.994943 
L 1353.344516 185.332362 
L 1304.849032 185.332362 
z
" style="fill:#f781bf;"/>
   </g>
   <g id="patch_101">
    <path clip-path="url(#p9075dd8893)" d="M 1365.468387 234.032405 
L 1413.963871 234.032405 
L 1413.963871 187.315752 
L 1365.468387 187.315752 
z
" style="fill:#f781bf;"/>
   </g>
   <g id="patch_102">
    <path clip-path="url(#p9075dd8893)" d="M 1426.087742 267.192801 
L 1474.583226 267.192801 
L 1474.583226 221.551251 
L 1426.087742 221.551251 
z
" style="fill:#f781bf;"/>
   </g>
   <g id="patch_103">
    <path clip-path="url(#p9075dd8893)" d="M 1486.707097 267.254941 
L 1535.202581 267.254941 
L 1535.202581 221.614149 
L 1486.707097 221.614149 
z
" style="fill:#f781bf;"/>
   </g>
   <g id="patch_104">
    <path clip-path="url(#p9075dd8893)" d="M 1304.849032 185.332362 
L 1353.344516 185.332362 
L 1353.344516 155.729771 
L 1304.849032 155.729771 
z
" style="fill:#e41a1c;"/>
   </g>
   <g id="patch_105">
    <path clip-path="url(#p9075dd8893)" d="M 1365.468387 187.315752 
L 1413.963871 187.315752 
L 1413.963871 156.62328 
L 1365.468387 156.62328 
z
" style="fill:#e41a1c;"/>
   </g>
   <g id="patch_106">
    <path clip-path="url(#p9075dd8893)" d="M 1426.087742 221.551251 
L 1474.583226 221.551251 
L 1474.583226 156.957804 
L 1426.087742 156.957804 
z
" style="fill:#e41a1c;"/>
   </g>
   <g id="patch_107">
    <path clip-path="url(#p9075dd8893)" d="M 1486.707097 221.614149 
L 1535.202581 221.614149 
L 1535.202581 156.974469 
L 1486.707097 156.974469 
z
" style="fill:#e41a1c;"/>
   </g>
   <g id="patch_108">
    <path clip-path="url(#p9075dd8893)" d="M 1304.849032 155.729771 
L 1353.344516 155.729771 
L 1353.344516 79.542857 
L 1304.849032 79.542857 
z
" style="fill:#377eb8;"/>
   </g>
   <g id="patch_109">
    <path clip-path="url(#p9075dd8893)" d="M 1365.468387 156.62328 
L 1413.963871 156.62328 
L 1413.963871 79.542857 
L 1365.468387 79.542857 
z
" style="fill:#377eb8;"/>
   </g>
   <g id="patch_110">
    <path clip-path="url(#p9075dd8893)" d="M 1426.087742 156.957804 
L 1474.583226 156.957804 
L 1474.583226 79.542857 
L 1426.087742 79.542857 
z
" style="fill:#377eb8;"/>
   </g>
   <g id="patch_111">
    <path clip-path="url(#p9075dd8893)" d="M 1486.707097 156.974469 
L 1535.202581 156.974469 
L 1535.202581 79.542857 
L 1486.707097 79.542857 
z
" style="fill:#377eb8;"/>
   </g>
   <g id="matplotlib.axis_7">
    <g id="xtick_13">
     <g id="line2d_13">
      <g>
       <use style="stroke:#000000;stroke-width:0.8;" x="1329.096774" xlink:href="#me4ef18afcd" y="518.4"/>
      </g>
     </g>
     <g id="text_20">
      <!-- 1990 -->
      <g transform="translate(1316.371774 532.998438)scale(0.1 -0.1)">
       <use xlink:href="#DejaVuSans-49"/>
       <use x="63.623047" xlink:href="#DejaVuSans-57"/>
       <use x="127.246094" xlink:href="#DejaVuSans-57"/>
       <use x="190.869141" xlink:href="#DejaVuSans-48"/>
      </g>
     </g>
    </g>
    <g id="xtick_14">
     <g id="line2d_14">
      <g>
       <use style="stroke:#000000;stroke-width:0.8;" x="1389.716129" xlink:href="#me4ef18afcd" y="518.4"/>
      </g>
     </g>
     <g id="text_21">
      <!-- 2000 -->
      <g transform="translate(1376.991129 532.998438)scale(0.1 -0.1)">
       <use xlink:href="#DejaVuSans-50"/>
       <use x="63.623047" xlink:href="#DejaVuSans-48"/>
       <use x="127.246094" xlink:href="#DejaVuSans-48"/>
       <use x="190.869141" xlink:href="#DejaVuSans-48"/>
      </g>
     </g>
    </g>
    <g id="xtick_15">
     <g id="line2d_15">
      <g>
       <use style="stroke:#000000;stroke-width:0.8;" x="1450.335484" xlink:href="#me4ef18afcd" y="518.4"/>
      </g>
     </g>
     <g id="text_22">
      <!-- 2005 -->
      <g transform="translate(1437.610484 532.998438)scale(0.1 -0.1)">
       <use xlink:href="#DejaVuSans-50"/>
       <use x="63.623047" xlink:href="#DejaVuSans-48"/>
       <use x="127.246094" xlink:href="#DejaVuSans-48"/>
       <use x="190.869141" xlink:href="#DejaVuSans-53"/>
      </g>
     </g>
    </g>
    <g id="xtick_16">
     <g id="line2d_16">
      <g>
       <use style="stroke:#000000;stroke-width:0.8;" x="1510.954839" xlink:href="#me4ef18afcd" y="518.4"/>
      </g>
     </g>
     <g id="text_23">
      <!-- 2010 -->
      <g transform="translate(1498.229839 532.998438)scale(0.1 -0.1)">
       <use xlink:href="#DejaVuSans-50"/>
       <use x="63.623047" xlink:href="#DejaVuSans-48"/>
       <use x="127.246094" xlink:href="#DejaVuSans-49"/>
       <use x="190.869141" xlink:href="#DejaVuSans-48"/>
      </g>
     </g>
    </g>
    <g id="text_24">
     <!-- Year -->
     <g transform="translate(1409.438306 546.676563)scale(0.1 -0.1)">
      <use xlink:href="#DejaVuSans-89"/>
      <use x="47.833984" xlink:href="#DejaVuSans-101"/>
      <use x="109.357422" xlink:href="#DejaVuSans-97"/>
      <use x="170.636719" xlink:href="#DejaVuSans-114"/>
     </g>
    </g>
   </g>
   <g id="matplotlib.axis_8"/>
   <g id="patch_112">
    <path d="M 1268.477419 518.4 
L 1571.574194 518.4 
" style="fill:none;stroke:#000000;stroke-linecap:square;stroke-linejoin:miter;stroke-width:0.8;"/>
   </g>
   <g id="text_25">
    <!-- Italy -->
    <g transform="translate(1283.632258 34.56)scale(0.22 -0.22)">
     <use xlink:href="#DejaVuSans-73"/>
     <use x="29.492188" xlink:href="#DejaVuSans-116"/>
     <use x="68.701172" xlink:href="#DejaVuSans-97"/>
     <use x="129.980469" xlink:href="#DejaVuSans-108"/>
     <use x="157.763672" xlink:href="#DejaVuSans-121"/>
    </g>
   </g>
  </g>
  <g id="axes_5">
   <g id="patch_113">
    <path d="M 1662.503226 518.4 
L 1965.6 518.4 
L 1965.6 57.6 
L 1662.503226 57.6 
z
" style="fill:#ffffff;"/>
   </g>
   <g id="patch_114">
    <path clip-path="url(#pf065892697)" d="M 1698.874839 518.4 
L 1747.370323 518.4 
L 1747.370323 431.522172 
L 1698.874839 431.522172 
z
" style="fill:#b3de69;"/>
   </g>
   <g id="patch_115">
    <path clip-path="url(#pf065892697)" d="M 1759.494194 518.4 
L 1807.989677 518.4 
L 1807.989677 446.646449 
L 1759.494194 446.646449 
z
" style="fill:#b3de69;"/>
   </g>
   <g id="patch_116">
    <path clip-path="url(#pf065892697)" d="M 1820.113548 518.4 
L 1868.609032 518.4 
L 1868.609032 451.822929 
L 1820.113548 451.822929 
z
" style="fill:#b3de69;"/>
   </g>
   <g id="patch_117">
    <path clip-path="url(#pf065892697)" d="M 1880.732903 518.4 
L 1929.228387 518.4 
L 1929.228387 447.425221 
L 1880.732903 447.425221 
z
" style="fill:#b3de69;"/>
   </g>
   <g id="patch_118">
    <path clip-path="url(#pf065892697)" d="M 1698.874839 431.522172 
L 1747.370323 431.522172 
L 1747.370323 253.695669 
L 1698.874839 253.695669 
z
" style="fill:#b3e2cd;"/>
   </g>
   <g id="patch_119">
    <path clip-path="url(#pf065892697)" d="M 1759.494194 446.646449 
L 1807.989677 446.646449 
L 1807.989677 256.720192 
L 1759.494194 256.720192 
z
" style="fill:#b3e2cd;"/>
   </g>
   <g id="patch_120">
    <path clip-path="url(#pf065892697)" d="M 1820.113548 451.822929 
L 1868.609032 451.822929 
L 1868.609032 259.576712 
L 1820.113548 259.576712 
z
" style="fill:#b3e2cd;"/>
   </g>
   <g id="patch_121">
    <path clip-path="url(#pf065892697)" d="M 1880.732903 447.425221 
L 1929.228387 447.425221 
L 1929.228387 284.890833 
L 1880.732903 284.890833 
z
" style="fill:#b3e2cd;"/>
   </g>
   <g id="patch_122">
    <path clip-path="url(#pf065892697)" d="M 1698.874839 253.695669 
L 1747.370323 253.695669 
L 1747.370323 252.404913 
L 1698.874839 252.404913 
z
"/>
   </g>
   <g id="patch_123">
    <path clip-path="url(#pf065892697)" d="M 1759.494194 256.720192 
L 1807.989677 256.720192 
L 1807.989677 255.821229 
L 1759.494194 255.821229 
z
"/>
   </g>
   <g id="patch_124">
    <path clip-path="url(#pf065892697)" d="M 1820.113548 259.576712 
L 1868.609032 259.576712 
L 1868.609032 258.788818 
L 1820.113548 258.788818 
z
"/>
   </g>
   <g id="patch_125">
    <path clip-path="url(#pf065892697)" d="M 1880.732903 284.890833 
L 1929.228387 284.890833 
L 1929.228387 283.03248 
L 1880.732903 283.03248 
z
"/>
   </g>
   <g id="patch_126">
    <path clip-path="url(#pf065892697)" d="M 1698.874839 252.404913 
L 1747.370323 252.404913 
L 1747.370323 249.8234 
L 1698.874839 249.8234 
z
" style="fill:#fff2ae;"/>
   </g>
   <g id="patch_127">
    <path clip-path="url(#pf065892697)" d="M 1759.494194 255.821229 
L 1807.989677 255.821229 
L 1807.989677 253.124342 
L 1759.494194 253.124342 
z
" style="fill:#fff2ae;"/>
   </g>
   <g id="patch_128">
    <path clip-path="url(#pf065892697)" d="M 1820.113548 258.788818 
L 1868.609032 258.788818 
L 1868.609032 255.952398 
L 1820.113548 255.952398 
z
" style="fill:#fff2ae;"/>
   </g>
   <g id="patch_129">
    <path clip-path="url(#pf065892697)" d="M 1880.732903 283.03248 
L 1929.228387 283.03248 
L 1929.228387 279.101349 
L 1880.732903 279.101349 
z
" style="fill:#fff2ae;"/>
   </g>
   <g id="patch_130">
    <path clip-path="url(#pf065892697)" d="M 1698.874839 249.8234 
L 1747.370323 249.8234 
L 1747.370323 223.015385 
L 1698.874839 223.015385 
z
" style="fill:#f1e2cc;"/>
   </g>
   <g id="patch_131">
    <path clip-path="url(#pf065892697)" d="M 1759.494194 253.124342 
L 1807.989677 253.124342 
L 1807.989677 237.43336 
L 1759.494194 237.43336 
z
" style="fill:#f1e2cc;"/>
   </g>
   <g id="patch_132">
    <path clip-path="url(#pf065892697)" d="M 1820.113548 255.952398 
L 1868.609032 255.952398 
L 1868.609032 237.59446 
L 1820.113548 237.59446 
z
" style="fill:#f1e2cc;"/>
   </g>
   <g id="patch_133">
    <path clip-path="url(#pf065892697)" d="M 1880.732903 279.101349 
L 1929.228387 279.101349 
L 1929.228387 239.361191 
L 1880.732903 239.361191 
z
" style="fill:#f1e2cc;"/>
   </g>
   <g id="patch_134">
    <path clip-path="url(#pf065892697)" d="M 1698.874839 223.015385 
L 1747.370323 223.015385 
L 1747.370323 187.569231 
L 1698.874839 187.569231 
z
" style="fill:#f4cae4;"/>
   </g>
   <g id="patch_135">
    <path clip-path="url(#pf065892697)" d="M 1759.494194 237.43336 
L 1807.989677 237.43336 
L 1807.989677 205.47933 
L 1759.494194 205.47933 
z
" style="fill:#f4cae4;"/>
   </g>
   <g id="patch_136">
    <path clip-path="url(#pf065892697)" d="M 1820.113548 237.59446 
L 1868.609032 237.59446 
L 1868.609032 203.321057 
L 1820.113548 203.321057 
z
" style="fill:#f4cae4;"/>
   </g>
   <g id="patch_137">
    <path clip-path="url(#pf065892697)" d="M 1880.732903 239.361191 
L 1929.228387 239.361191 
L 1929.228387 189.114193 
L 1880.732903 189.114193 
z
" style="fill:#f4cae4;"/>
   </g>
   <g id="patch_138">
    <path clip-path="url(#pf065892697)" d="M 1698.874839 187.569231 
L 1747.370323 187.569231 
L 1747.370323 81.230769 
L 1698.874839 81.230769 
z
" style="fill:#ff7f00;"/>
   </g>
   <g id="patch_139">
    <path clip-path="url(#pf065892697)" d="M 1759.494194 205.47933 
L 1807.989677 205.47933 
L 1807.989677 81.177334 
L 1759.494194 81.177334 
z
" style="fill:#ff7f00;"/>
   </g>
   <g id="patch_140">
    <path clip-path="url(#pf065892697)" d="M 1820.113548 203.321057 
L 1868.609032 203.321057 
L 1868.609032 81.118646 
L 1820.113548 81.118646 
z
" style="fill:#ff7f00;"/>
   </g>
   <g id="patch_141">
    <path clip-path="url(#pf065892697)" d="M 1880.732903 189.114193 
L 1929.228387 189.114193 
L 1929.228387 82.330386 
L 1880.732903 82.330386 
z
" style="fill:#ff7f00;"/>
   </g>
   <g id="patch_142">
    <path clip-path="url(#pf065892697)" d="M 1698.874839 81.230769 
L 1747.370323 81.230769 
L 1747.370323 79.542857 
L 1698.874839 79.542857 
z
" style="fill:#e41a1c;"/>
   </g>
   <g id="patch_143">
    <path clip-path="url(#pf065892697)" d="M 1759.494194 81.177334 
L 1807.989677 81.177334 
L 1807.989677 79.542857 
L 1759.494194 79.542857 
z
" style="fill:#e41a1c;"/>
   </g>
   <g id="patch_144">
    <path clip-path="url(#pf065892697)" d="M 1820.113548 81.118646 
L 1868.609032 81.118646 
L 1868.609032 79.542857 
L 1820.113548 79.542857 
z
" style="fill:#e41a1c;"/>
   </g>
   <g id="patch_145">
    <path clip-path="url(#pf065892697)" d="M 1880.732903 82.330386 
L 1929.228387 82.330386 
L 1929.228387 79.542857 
L 1880.732903 79.542857 
z
" style="fill:#e41a1c;"/>
   </g>
   <g id="matplotlib.axis_9">
    <g id="xtick_17">
     <g id="line2d_17">
      <g>
       <use style="stroke:#000000;stroke-width:0.8;" x="1723.122581" xlink:href="#me4ef18afcd" y="518.4"/>
      </g>
     </g>
     <g id="text_26">
      <!-- 1990 -->
      <g transform="translate(1710.397581 532.998438)scale(0.1 -0.1)">
       <use xlink:href="#DejaVuSans-49"/>
       <use x="63.623047" xlink:href="#DejaVuSans-57"/>
       <use x="127.246094" xlink:href="#DejaVuSans-57"/>
       <use x="190.869141" xlink:href="#DejaVuSans-48"/>
      </g>
     </g>
    </g>
    <g id="xtick_18">
     <g id="line2d_18">
      <g>
       <use style="stroke:#000000;stroke-width:0.8;" x="1783.741935" xlink:href="#me4ef18afcd" y="518.4"/>
      </g>
     </g>
     <g id="text_27">
      <!-- 2000 -->
      <g transform="translate(1771.016935 532.998438)scale(0.1 -0.1)">
       <use xlink:href="#DejaVuSans-50"/>
       <use x="63.623047" xlink:href="#DejaVuSans-48"/>
       <use x="127.246094" xlink:href="#DejaVuSans-48"/>
       <use x="190.869141" xlink:href="#DejaVuSans-48"/>
      </g>
     </g>
    </g>
    <g id="xtick_19">
     <g id="line2d_19">
      <g>
       <use style="stroke:#000000;stroke-width:0.8;" x="1844.36129" xlink:href="#me4ef18afcd" y="518.4"/>
      </g>
     </g>
     <g id="text_28">
      <!-- 2005 -->
      <g transform="translate(1831.63629 532.998438)scale(0.1 -0.1)">
       <use xlink:href="#DejaVuSans-50"/>
       <use x="63.623047" xlink:href="#DejaVuSans-48"/>
       <use x="127.246094" xlink:href="#DejaVuSans-48"/>
       <use x="190.869141" xlink:href="#DejaVuSans-53"/>
      </g>
     </g>
    </g>
    <g id="xtick_20">
     <g id="line2d_20">
      <g>
       <use style="stroke:#000000;stroke-width:0.8;" x="1904.980645" xlink:href="#me4ef18afcd" y="518.4"/>
      </g>
     </g>
     <g id="text_29">
      <!-- 2010 -->
      <g transform="translate(1892.255645 532.998438)scale(0.1 -0.1)">
       <use xlink:href="#DejaVuSans-50"/>
       <use x="63.623047" xlink:href="#DejaVuSans-48"/>
       <use x="127.246094" xlink:href="#DejaVuSans-49"/>
       <use x="190.869141" xlink:href="#DejaVuSans-48"/>
      </g>
     </g>
    </g>
    <g id="text_30">
     <!-- Year -->
     <g transform="translate(1803.464113 546.676563)scale(0.1 -0.1)">
      <use xlink:href="#DejaVuSans-89"/>
      <use x="47.833984" xlink:href="#DejaVuSans-101"/>
      <use x="109.357422" xlink:href="#DejaVuSans-97"/>
      <use x="170.636719" xlink:href="#DejaVuSans-114"/>
     </g>
    </g>
   </g>
   <g id="matplotlib.axis_10"/>
   <g id="patch_146">
    <path d="M 1662.503226 518.4 
L 1965.6 518.4 
" style="fill:none;stroke:#000000;stroke-linecap:square;stroke-linejoin:miter;stroke-width:0.8;"/>
   </g>
   <g id="text_31">
    <!-- Latvia -->
    <defs>
     <path d="M 9.8125 72.90625 
L 19.671875 72.90625 
L 19.671875 8.296875 
L 55.171875 8.296875 
L 55.171875 0 
L 9.8125 0 
z
" id="DejaVuSans-76"/>
    </defs>
    <g transform="translate(1677.658065 34.56)scale(0.22 -0.22)">
     <use xlink:href="#DejaVuSans-76"/>
     <use x="55.712891" xlink:href="#DejaVuSans-97"/>
     <use x="116.992188" xlink:href="#DejaVuSans-116"/>
     <use x="156.201172" xlink:href="#DejaVuSans-118"/>
     <use x="215.380859" xlink:href="#DejaVuSans-105"/>
     <use x="243.164062" xlink:href="#DejaVuSans-97"/>
    </g>
   </g>
  </g>
 </g>
 <defs>
  <clipPath id="p6c6b7bc38f">
   <rect height="460.8" width="303.096774" x="86.4" y="57.6"/>
  </clipPath>
  <clipPath id="p5f288d4fb1">
   <rect height="460.8" width="303.096774" x="480.425806" y="57.6"/>
  </clipPath>
  <clipPath id="pe0650fdfaa">
   <rect height="460.8" width="303.096774" x="874.451613" y="57.6"/>
  </clipPath>
  <clipPath id="p9075dd8893">
   <rect height="460.8" width="303.096774" x="1268.477419" y="57.6"/>
  </clipPath>
  <clipPath id="pf065892697">
   <rect height="460.8" width="303.096774" x="1662.503226" y="57.6"/>
  </clipPath>
 </defs>
</svg>
